<svg xmlns="http://www.w3.org/2000/svg" width="12" height="11" fill="none" viewBox="0 0 12 11"><path fill="#005AFF" d="M10.1953 1.91986L10.2452 7.32476L11.3091 7.33162L11.2642 1.92174L10.1953 1.91986ZM9.87204 1.59661C9.91563 1.59066 9.96014 1.59496 10.002 1.60916C10.0439 1.62337 10.0821 1.6471 10.1134 1.67846C10.1448 1.70982 10.1685 1.74797 10.1827 1.78987C10.1969 1.83177 10.2012 1.87627 10.1953 1.91986L11.2642 1.92174C11.267 1.73877 11.2328 1.55664 11.1635 1.38633C11.0942 1.21602 10.9914 1.06107 10.8611 0.930804C10.7308 0.80054 10.5759 0.697669 10.4056 0.628395C10.2353 0.55912 10.0531 0.524876 9.87017 0.527728L9.87204 1.59661ZM4.46715 1.54669L9.87204 1.59661L9.87017 0.527728L4.46028 0.482789L4.46715 1.54669ZM9.70938 1.2744L1.10852 9.87526L1.86613 10.6329L10.467 2.03201L9.70938 1.2744ZM10.2452 7.32476C10.2462 7.46581 10.3032 7.60143 10.4035 7.70181C10.5039 7.8022 10.6395 7.85914 10.7806 7.86014C10.9217 7.86096 11.0565 7.80576 11.1556 7.70666C11.2547 7.60757 11.3099 7.47268 11.3091 7.33162L10.2452 7.32476ZM10.7322 1.91831L10.1953 1.91986L10.7322 1.91831ZM9.8736 1.05968L9.87017 0.527728L9.8736 1.05968ZM4.46028 0.482789C4.31923 0.481967 4.18434 0.537167 4.08524 0.636264C3.98614 0.735361 3.93094 0.870251 3.93176 1.01131C3.93276 1.15236 3.98971 1.28798 4.09009 1.38836C4.19048 1.48874 4.32609 1.54569 4.46715 1.54669L4.46028 0.482789ZM1.10852 9.87526C1.00934 9.97444 0.954134 10.1095 0.955045 10.2506C0.955955 10.3918 1.01291 10.5276 1.11337 10.628C1.21384 10.7285 1.34959 10.7854 1.49076 10.7864C1.63193 10.7873 1.76695 10.7321 1.86613 10.6329L1.10852 9.87526ZM10.467 2.03201C10.5662 1.93284 10.6214 1.79781 10.6205 1.65664C10.6196 1.51547 10.5626 1.37972 10.4621 1.27926C10.3617 1.17879 10.2259 1.12184 10.0848 1.12093C9.94359 1.12001 9.80856 1.17522 9.70938 1.2744L10.467 2.03201Z"/></svg>