<svg version="1.1" id="Layer_1" xmlns="http://www.w3.org/2000/svg" xmlns:xlink="http://www.w3.org/1999/xlink" x="0px" y="0px" viewBox="0 0 24 24" style="enable-background:new 0 0 24 24;" xml:space="preserve">
<style type="text/css">
	.st0{fill:#333333;}
</style>
<path id="Path_1063" class="st0" d="M16.2,6.7c-0.5,0-1,0.4-1,0.9s0.4,1,0.9,1c0.5,0,1-0.4,1-0.9c0,0,0,0,0,0
	C17.1,7.1,16.7,6.7,16.2,6.7C16.2,6.7,16.2,6.7,16.2,6.7z M12,14.7c-1.5-0.1-2.7-1.4-2.6-2.9c0.1-1.4,1.2-2.5,2.6-2.6
	c1.5,0.1,2.7,1.4,2.6,2.9C14.5,13.5,13.4,14.7,12,14.7z M12,7.8c-2.3,0.1-4.1,2-4,4.2c0,2.3,1.8,4.2,4,4.2c2.3-0.1,4.1-2,4-4.2
	C16.1,9.7,14.3,7.8,12,7.8z M12,3.8c-1.1,0-2.1,0-3.2,0.1C5.9,4,4.4,5.6,4.2,8.6C4.2,9.5,4.2,9.7,4.2,12s0,2.5,0.1,3.4
	c0.1,3,1.7,4.7,4.6,4.8c1.1,0.1,2.1,0.1,3.2,0.1c1.1,0,2.1,0,3.2-0.1c2.9-0.1,4.4-1.8,4.6-4.8c0.1-0.8,0.1-1.1,0.1-3.4
	s0-2.5-0.1-3.4c-0.1-3-1.7-4.6-4.6-4.8C14.1,3.8,13.1,3.7,12,3.8z M12,5.3c1.1,0,2.1,0,3.2,0.1c2.2,0.1,3.1,1.2,3.2,3.4
	c0.1,0.9,0.1,1.1,0.1,3.3s0,2.5-0.1,3.3c-0.1,2.2-1.1,3.3-3.2,3.4c-1.1,0.1-2.1,0.1-3.2,0.1c-1,0-2.1,0-3.1-0.1
	c-2.2-0.1-3.1-1.2-3.2-3.4c-0.1-0.9-0.1-1.1-0.1-3.3s0-2.5,0.1-3.3c0.1-2.2,1.1-3.3,3.2-3.4C9.9,5.3,11,5.3,12,5.3z"></path>
</svg>