<svg version="1.1" id="Layer_1" xmlns="http://www.w3.org/2000/svg" xmlns:xlink="http://www.w3.org/1999/xlink" x="0px" y="0px" viewBox="0 0 24 24" style="enable-background:new 0 0 24 24;" xml:space="preserve">
<style type="text/css">
	.st0{fill-rule:evenodd;clip-rule:evenodd;fill:#333333;}
</style>
<path id="Path_1069" class="st0" d="M21.9,21.9h-4.1v-6.4c0-1.5,0-3.5-2.1-3.5c-2.1,0-2.5,1.7-2.5,3.4v6.5H9.1V8.7H13v1.8h0.1
	c0.8-1.4,2.3-2.2,3.9-2.1c4.2,0,4.9,2.7,4.9,6.3L21.9,21.9z M4.5,6.9c-1.3,0-2.4-1.1-2.4-2.4c0-1.3,1.1-2.4,2.4-2.4
	c1.3,0,2.4,1.1,2.4,2.4C6.9,5.8,5.8,6.9,4.5,6.9z M6.5,21.9H2.4V8.7h4.1V21.9z"></path>
</svg>