<svg version="1.1" id="Layer_1" xmlns="http://www.w3.org/2000/svg" xmlns:xlink="http://www.w3.org/1999/xlink" x="0px" y="0px" viewBox="0 0 24 24" style="enable-background:new 0 0 24 24;" xml:space="preserve">
<style type="text/css">
	.st0{fill:#333333;}
</style>
<path id="Path_1065" class="st0" d="M21.2,6.3c-0.7,0.3-1.4,0.5-2.1,0.6c0.8-0.5,1.4-1.2,1.7-2c-0.7,0.4-1.5,0.8-2.4,0.9
	c-0.7-0.8-1.8-1.2-2.8-1.2c-2.1,0-3.8,1.7-3.8,3.7c0,0.3,0,0.5,0.1,0.8C8.8,9,6,7.6,4.1,5.3c-1,1.7-0.5,3.9,1.1,5
	c-0.6-0.1-1.2-0.2-1.7-0.5c0,1.8,1.2,3.3,3,3.7c-0.6,0.1-1.1,0.2-1.7,0.1c0.5,1.5,1.9,2.6,3.5,2.6c-1.6,1.2-3.6,1.8-5.6,1.5
	c5,3.2,11.6,1.7,14.8-3.2c1.2-1.8,1.8-4,1.7-6.2C20,7.8,20.7,7.1,21.2,6.3"></path>
</svg>