<svg xmlns="http://www.w3.org/2000/svg" xmlns:xlink="http://www.w3.org/1999/xlink" id="Layer_1" x="0" y="0" version="1.1" viewBox="0 0 24 24" style="enable-background:new 0 0 24 24" xml:space="preserve"><style type="text/css">.st0{fill:#333}</style><path id="Path_1071" d="M21.9,6.3c0.3,1.9,0.5,3.8,0.5,5.7c0,1.9-0.1,3.8-0.5,5.7c-0.3,1-1,1.8-2,2.1	c-1.8,0.5-7.9,0.5-7.9,0.5s-6.1,0-7.9-0.5c-1-0.3-1.8-1.1-2-2.1c-0.3-1.9-0.5-3.8-0.5-5.7c0-1.9,0.1-3.8,0.5-5.7c0.3-1,1-1.8,2-2.1	C5.9,3.7,12,3.7,12,3.7s6.1,0,7.9,0.5C20.9,4.5,21.6,5.3,21.9,6.3z M9.9,15.6l6.2-3.6L9.9,8.4V15.6z" class="st0"/></svg>