<svg xmlns="http://www.w3.org/2000/svg"><metadata/><defs><font id="nokia_pure_headlinelight" horiz-adv-x="757"><font-face ascent="1563" descent="-485" units-per-em="2048"/><glyph d="M356 909v-909h-123v909h-200v107h200v110q0 94 17.5 172t59.5 134.5t108.5 87t165.5 30.5q53 0 97 -7t67 -13l-17 -105q-16 4 -52 10.5t-67 6.5q-76 0 -125 -18.5t-78.5 -59.5t-41 -105.5t-11.5 -158.5v-84h490v110q0 94 17.5 173t59.5 134.5t108.5 86t164.5 30.5 q53 0 97 -7t67 -13l-17 -105q-16 4 -52 10.5t-66 6.5q-76 0 -125 -18.5t-79 -59.5t-41 -105.5t-11 -158.5v-84h313v-107h-313v-909h-123v909h-490z" horiz-adv-x="1288" unicode="ﬀ"/><glyph d="M850 909h-494v-909h-123v909h-200v107h200v110q0 94 17.5 172t58.5 134.5t106.5 87t162.5 30.5q53 0 96 -7t65 -13l-16 -105q-16 4 -52 10.5t-65 6.5q-74 0 -122 -18.5t-76.5 -59.5t-40 -105.5t-11.5 -158.5v-84h615v-1016h-121v909zM815 1356q0 45 25.5 72.5t66.5 27.5 t67.5 -27.5t26.5 -72.5q0 -47 -26.5 -74t-67.5 -27t-66.5 28t-25.5 73z" horiz-adv-x="1105" unicode="ﬁ"/><glyph d="M670 909h-314v-909h-123v909h-200v107h200v110q0 94 17.5 172t58.5 134.5t106.5 87t162.5 30.5q53 0 96 -7t65 -13l-16 -105q-16 4 -52 10.5t-65 6.5q-74 0 -122 -18.5t-76.5 -59.5t-40 -105.5t-11.5 -158.5v-84h314v-107zM995 0h-123v1536h123v-1536z" horiz-adv-x="1124" unicode="ﬂ"/><glyph d="M1462 909h-493v-909h-123v909h-490v-909h-123v909h-200v107h200v110q0 94 17.5 172t59.5 134.5t108.5 87t165.5 30.5q53 0 97 -7t67 -13l-17 -105q-16 4 -52 10.5t-67 6.5q-76 0 -125 -18.5t-78.5 -59.5t-41 -105.5t-11.5 -158.5v-84h490v110q0 94 17.5 172t58.5 134.5 t106.5 87t161.5 30.5q53 0 96 -7t66 -13l-17 -105q-16 4 -52 10.5t-64 6.5q-74 0 -122 -18.5t-77 -59.5t-40 -105.5t-11 -158.5v-84h614v-1016h-121v909zM1430 1356q0 45 25.5 72.5t66.5 27.5t67.5 -27.5t26.5 -72.5q0 -47 -26.5 -74t-67.5 -27t-66.5 28t-25.5 73z" horiz-adv-x="1720" unicode="ﬃ"/><glyph d="M1610 0h-123v1536h123v-1536zM356 909v-909h-123v909h-200v107h200v110q0 94 17.5 172t59.5 134.5t108.5 87t165.5 30.5q53 0 97 -7t67 -13l-17 -105q-16 4 -52 10.5t-67 6.5q-76 0 -125 -18.5t-78.5 -59.5t-41 -105.5t-11.5 -158.5v-84h490v110q0 94 17.5 172 t59.5 134.5t108.5 87t164.5 30.5q53 0 97 -7t67 -13l-17 -105q-16 4 -52 10.5t-66 6.5q-76 0 -125 -18.5t-79 -59.5t-41 -105.5t-11 -158.5v-84h313v-107h-313v-909h-123v909h-490z" horiz-adv-x="1738" unicode="ﬄ"/><glyph horiz-adv-x="518"/><glyph horiz-adv-x="0"/><glyph horiz-adv-x="518"/><glyph horiz-adv-x="518"/><glyph horiz-adv-x="518"/><glyph d="M309 406h-123v1034h123v-1034zM150 90q0 49 28.5 79t71.5 30t71.5 -29t28.5 -80q0 -49 -28.5 -78.5t-71.5 -29.5t-71.5 29.5t-28.5 78.5z" horiz-adv-x="499" unicode="!"/><glyph d="M135 1440h135l-16 -512h-104zM451 1440h135l-15 -512h-104z" horiz-adv-x="720" unicode="&quot;"/><glyph d="M115 1057h225l78 383h108l-77 -383h348l77 383h109l-78 -383h199l-19 -101h-200l-88 -446h223l-19 -100h-223l-80 -410h-108l82 410h-353l-79 -410h-109l80 410h-199l19 100h200l88 446h-223zM340 510h350l86 446h-348z" horiz-adv-x="1116" unicode="#"/><glyph d="M631 1442q57 0 115.5 -11.5t109.5 -26.5t90 -33.5t60 -33.5l-50 -100q-51 33 -140 62.5t-185 33.5v-565l69 -25q150 -53 237 -138t87 -230q0 -160 -98.5 -267.5t-294.5 -130.5v-200h-96v196q-88 2 -160 17.5t-128.5 35t-96 41t-64.5 37.5l53 101q25 -16 64 -35.5t88 -38 t110.5 -32t133.5 -15.5v590q-84 31 -156 61.5t-124 72.5t-83 100.5t-31 146.5q0 174 103.5 272t290.5 115v176h96v-176zM899 367q0 117 -68.5 175t-199.5 101v-555q57 6 106 25.5t85 53.5t56.5 84t20.5 116zM264 1063q0 -51 15.5 -90t48 -70t84 -55.5t123.5 -48.5v534 q-271 -30 -271 -270z" horiz-adv-x="1138" unicode="$"/><glyph d="M1208 1440h119l-782 -1440h-121zM1069 389q0 203 79 309.5t228 106.5q154 0 227.5 -106.5t73.5 -309.5q0 -211 -78.5 -313.5t-222.5 -102.5q-158 0 -232.5 103.5t-74.5 312.5zM1182 389q0 -88 12 -147.5t36.5 -96t60.5 -53t85 -16.5q94 0 142.5 69.5t48.5 243.5 q0 90 -12.5 150.5t-37 96.5t-60.5 51t-81 15t-80.5 -14t-61.5 -50t-39 -96.5t-13 -152.5zM61 1053q0 203 79 309t229 106q154 0 227.5 -106.5t73.5 -308.5q0 -211 -79 -313.5t-222 -102.5q-158 0 -233 103.5t-75 312.5zM174 1053q0 -88 12.5 -147.5t37 -96.5t60 -53.5 t85.5 -16.5q94 0 142 70t48 244q0 90 -12 150.5t-37 96t-60.5 51t-80.5 15.5t-81 -14.5t-61.5 -50t-39 -96t-13.5 -152.5z" horiz-adv-x="1738" unicode="%"/><glyph d="M424 805q-29 33 -57.5 69.5t-51 78.5t-37 88t-14.5 100q0 70 23.5 130t68.5 105t108.5 71t141.5 26q143 0 236.5 -80t93.5 -226q0 -68 -24.5 -125t-68.5 -104t-104.5 -88t-134.5 -76l414 -485q23 20 48.5 53t52 72t49 78.5t38.5 74.5l99 -49q-41 -88 -95.5 -169 t-117.5 -144l174 -205h-156l-111 133q-78 -66 -191.5 -113t-248.5 -47q-115 0 -201 30t-144 83t-87 127t-29 160q0 160 86 261t240 171zM492 723q-55 -25 -104.5 -55.5t-86.5 -72.5t-57.5 -95.5t-20.5 -120.5q0 -141 88 -218t254 -77q111 0 207 41t154 90zM381 1149 q0 -88 47 -157.5t107 -137.5q141 66 213.5 136.5t72.5 176.5q0 98 -59.5 150.5t-155.5 52.5q-104 0 -164.5 -62.5t-60.5 -158.5z" horiz-adv-x="1337" unicode="&amp;"/><glyph d="M135 1440h135l-16 -512h-104z" horiz-adv-x="405" unicode="'"/><glyph d="M123 670q0 160 21.5 297t52 247.5t64.5 192.5t58 129h113q-31 -63 -64.5 -151.5t-60 -199t-44 -240.5t-17.5 -275t17.5 -275.5t44 -241t60 -199.5t64.5 -151h-113q-25 47 -58.5 129t-64 193t-52 248t-21.5 297z" horiz-adv-x="503" unicode="("/><glyph d="M381 670q0 -160 -21.5 -297t-52.5 -248t-64.5 -193t-58.5 -129h-112q31 61 64.5 150.5t60 200t44 240.5t17.5 276q0 145 -17.5 275t-44 240.5t-60.5 199t-64 151.5h112q25 -47 58.5 -129t64.5 -192.5t52.5 -247.5t21.5 -297z" horiz-adv-x="503" unicode=")"/><glyph d="M459 1536l-10 -305l264 123l39 -109l-275 -98l205 -240l-92 -67l-189 254l-186 -254l-92 71l199 234l-273 90l43 108l264 -112l-14 305h117z" horiz-adv-x="792" unicode="*"/><glyph d="M117 778h395v424h115v-424h395v-110h-395v-424h-115v424h-395v110z" horiz-adv-x="1138" unicode="+"/><glyph d="M117 86q0 53 29.5 83t70.5 30q49 0 74.5 -33t25.5 -86q0 -92 -49 -204t-153 -210l-60 51q59 66 94 135.5t44 133.5q-27 6 -51.5 29.5t-24.5 70.5z" horiz-adv-x="446" unicode=","/><glyph d="M100 633h588v-117h-588v117z" horiz-adv-x="790" unicode="-"/><glyph d="M121 88q0 49 28.5 80t71.5 31t72 -30t29 -81q0 -49 -30 -77.5t-73 -28.5t-70.5 28.5t-27.5 77.5z" horiz-adv-x="440" unicode="."/><glyph d="M10 -96l639 1632h117l-639 -1632h-117z" horiz-adv-x="776" unicode="/"/><glyph d="M78 719q0 373 122 561t371 188q254 0 372 -188t118 -561q0 -377 -124 -561.5t-366 -184.5q-250 0 -371.5 183.5t-121.5 562.5zM207 719q0 -172 23.5 -293t69.5 -195.5t113.5 -109.5t155.5 -35q176 0 269.5 147.5t93.5 485.5q0 176 -24.5 297t-70.5 196.5t-114 108.5 t-154 33t-153.5 -33t-113.5 -108.5t-70.5 -196.5t-24.5 -297z" horiz-adv-x="1138" unicode="0"/><glyph d="M483 1294l-393 -237l-49 94l461 289h106v-1440h-125v1294z" horiz-adv-x="897" unicode="1"/><glyph d="M440 702q68 55 123 101.5t93 92.5t58.5 94t20.5 108q0 115 -67.5 186.5t-214.5 71.5q-61 0 -111.5 -14.5t-89.5 -36t-68.5 -48t-50.5 -53.5l-80 70q25 31 62 64.5t88 63.5t116.5 48t147.5 18q104 0 179 -30.5t123 -81.5t69.5 -116.5t21.5 -135.5q0 -84 -27.5 -150.5 t-73.5 -123t-103.5 -104.5t-116.5 -93q-80 -63 -144.5 -121.5t-110.5 -120t-71 -129t-25 -149.5h697v-113h-822v35q0 119 24 211t71 169t117.5 145t164.5 142z" horiz-adv-x="997" unicode="2"/><glyph d="M276 793h113q84 0 147.5 23.5t106.5 63.5t64.5 92t21.5 111q0 57 -15.5 107.5t-50 87.5t-90 58.5t-135.5 21.5q-117 0 -188.5 -37t-110.5 -76l-65 76q20 23 53 49.5t79 48t105.5 35.5t132.5 14q106 0 184.5 -29.5t127.5 -79.5t72.5 -115.5t23.5 -139.5 q0 -143 -69.5 -232.5t-194.5 -126.5q141 -31 216 -124t75 -228q0 -102 -37 -181t-102.5 -132t-154.5 -81t-196 -28q-117 0 -203 18.5t-127 37.5l29 102q35 -14 109.5 -29.5t181.5 -15.5q174 0 275.5 76t101.5 231q0 125 -90.5 208t-270.5 83h-119v111z" horiz-adv-x="958" unicode="3"/><glyph d="M768 889v-424h223v-107h-223v-358h-117v358h-600v86l537 996h127l-525 -975h461v424h117z" horiz-adv-x="1062" unicode="4"/><glyph d="M344 90q180 0 280.5 91t100.5 270q0 68 -15.5 127t-51 103t-94 70.5t-142.5 26.5q-92 0 -153.5 -19.5t-98.5 -39.5l-72 53l80 668h627v-113h-533l-59 -483q35 18 96.5 29.5t130.5 11.5q90 0 165 -27t129 -80t85 -134t31 -191q0 -98 -33 -185.5t-95.5 -152t-155.5 -101.5 t-214 -37q-115 0 -199.5 18.5t-125.5 37.5l28 102q35 -14 110 -29.5t179 -15.5z" horiz-adv-x="960" unicode="5"/><glyph d="M659 1360q-102 0 -177.5 -45t-128 -125t-80 -190.5t-31.5 -241.5q51 76 142 128t208 52q88 0 163.5 -28.5t132 -87t88.5 -145.5t32 -204q0 -115 -31 -207t-88.5 -156.5t-139 -100.5t-184.5 -36q-223 0 -338.5 164t-115.5 488q0 420 144 631.5t409 211.5q88 0 157.5 -18 t126.5 -49l-47 -96q-41 25 -101.5 40t-140.5 15zM565 82q147 0 231.5 98.5t84.5 280.5q0 184 -81 275t-222 91q-66 0 -125.5 -24.5t-105.5 -67.5t-72.5 -103.5t-26.5 -133.5q0 -94 21.5 -171t62.5 -131.5t100 -84t133 -29.5z" horiz-adv-x="1075" unicode="6"/><glyph d="M223 0l547 1325h-739v115h870v-94l-547 -1346h-131z" horiz-adv-x="958" unicode="7"/><glyph d="M1001 1126q0 -63 -21.5 -119.5t-60 -103.5t-90 -86t-108.5 -67q61 -27 116.5 -65t98.5 -88t68.5 -112.5t25.5 -140.5q0 -80 -30.5 -148.5t-89 -117.5t-145.5 -77t-198 -28q-119 0 -206 28t-143 76t-84 111.5t-28 135.5q0 76 25 139t68 115.5t103 93.5t132 73 q-55 25 -108.5 60t-93 81t-64.5 102t-25 128t30 135.5t86 111.5t136 76.5t180 28.5q104 0 184.5 -25.5t134.5 -71.5t80.5 -108.5t26.5 -136.5zM901 354q0 72 -30.5 126.5t-80 94t-113 68.5t-126.5 49q-53 -23 -108.5 -53.5t-102.5 -72.5t-77 -98t-30 -126 q0 -129 90.5 -194.5t245.5 -65.5q152 0 242 66.5t90 205.5zM600 801q47 18 96 48t89 69.5t64.5 92t24.5 113.5q0 109 -75.5 173.5t-223.5 64.5q-154 0 -230.5 -71.5t-76.5 -180.5q0 -66 31 -115t78 -86t106.5 -63.5t116.5 -44.5z" horiz-adv-x="1136" unicode="8"/><glyph d="M403 82q106 0 185.5 42t131.5 121t80.5 190.5t35.5 252.5q-51 -74 -143.5 -128t-209.5 -54q-88 0 -163.5 28.5t-132 87t-88 145.5t-31.5 204q0 113 30.5 205t88 157.5t138.5 100t183 34.5q223 0 339 -156.5t116 -475.5q0 -438 -139.5 -650.5t-411.5 -212.5 q-92 0 -169 15.5t-124 38.5l35 100q41 -16 107 -30.5t142 -14.5zM508 1360q-147 0 -230 -97.5t-83 -279.5q0 -184 80.5 -275.5t220.5 -91.5q66 0 126 25t106 68t72.5 103t26.5 134q0 207 -83.5 310.5t-235.5 103.5z" horiz-adv-x="1073" unicode="9"/><glyph d="M84 84q0 49 28.5 80t71.5 31t72 -30t29 -81q0 -49 -30 -77.5t-73 -28.5t-70.5 28.5t-27.5 77.5zM86 907q0 49 28.5 80t71.5 31t72 -30t29 -81q0 -49 -30 -77.5t-73 -28.5t-70.5 28.5t-27.5 77.5z" horiz-adv-x="440" unicode=":"/><glyph d="M84 907q0 49 28.5 80t71.5 31t72 -30t29 -81q0 -49 -30 -77.5t-73 -28.5t-70.5 28.5t-27.5 77.5zM82 86q0 53 29.5 83t70.5 30q49 0 74.5 -33t25.5 -86q0 -92 -49 -204t-153 -210l-60 51q59 66 94 135.5t44 133.5q-27 6 -51.5 29.5t-24.5 70.5z" horiz-adv-x="446" unicode=";"/><glyph d="M956 406l-43 -101l-731 375v104l729 377l45 -100l-653 -326z" horiz-adv-x="1138" unicode="&lt;"/><glyph d="M152 985h835v-108h-835v108zM152 563h835v-110h-835v110z" horiz-adv-x="1138" unicode="="/><glyph d="M182 1061l43 100l731 -377v-104l-729 -375l-45 101l654 325z" horiz-adv-x="1138" unicode="&gt;"/><glyph d="M420 379q0 78 12 135t39 104.5t69 92.5t101 98q23 20 50.5 48t51 63.5t39 77.5t15.5 92q0 123 -72 196.5t-221 73.5q-119 0 -211 -53.5t-152 -126.5l-75 77q27 33 67.5 71t96 71t127 53.5t161.5 20.5q102 0 178 -30t126 -81t75 -118.5t25 -143.5q0 -68 -17.5 -122 t-45.5 -98t-62.5 -80t-69.5 -67q-43 -37 -78 -70.5t-59.5 -73.5t-38.5 -90t-14 -120h-117zM385 90q0 49 28.5 79t71.5 30t72 -29t29 -80q0 -49 -29 -78.5t-72 -29.5t-71.5 29.5t-28.5 78.5z" horiz-adv-x="1044" unicode="?"/><glyph d="M1040 -340q129 0 235.5 22.5t193.5 57.5t156 78t122 86l65 -88q-57 -49 -138 -96.5t-179 -84t-213 -60.5t-240 -24q-209 0 -379.5 59.5t-292.5 174.5t-188.5 283t-66.5 385q0 225 73.5 418.5t203.5 335t310.5 221t395.5 79.5q197 0 349 -53t256.5 -151.5t159 -239.5 t54.5 -318q0 -170 -46 -303t-119 -225t-164 -140t-183 -48q-49 0 -81 9t-53.5 23.5t-35.5 33t-25 36.5q-14 -12 -39.5 -29.5t-59.5 -34t-76 -27.5t-87 -11q-76 0 -140.5 24.5t-111.5 72.5t-73.5 119.5t-26.5 166.5q0 137 37 247.5t100.5 188.5t146.5 120t175 42 q70 0 120 -18.5t82.5 -43t50 -50.5t23.5 -38l33 123h94l-141 -727q-6 -31 -6 -51q0 -78 102 -78q76 0 145.5 44t124 126t86 194.5t31.5 251.5q0 172 -54 296t-148.5 204t-223.5 118t-278 38q-184 0 -341 -68.5t-272.5 -193.5t-180 -299t-64.5 -383q0 -182 51 -328.5 t152.5 -250t251.5 -160t347 -56.5zM956 135q68 0 132.5 33t115.5 82l45 244q2 18 8.5 44.5t10.5 54.5t8 52.5t4 34.5q0 92 -59.5 159.5t-171.5 67.5q-66 0 -126.5 -30.5t-106.5 -92t-72.5 -154.5t-26.5 -216q0 -141 66.5 -210t172.5 -69z" horiz-adv-x="1992" unicode="@"/><glyph d="M856 401h-588l-131 -401h-131l481 1440h152l483 -1440h-137zM303 514h516l-256 776z" horiz-adv-x="1128" unicode="A"/><glyph d="M555 1440q113 0 193.5 -30t132 -79t76 -114.5t24.5 -139.5q0 -70 -20.5 -124t-52 -94t-69.5 -65.5t-71 -37.5q51 -12 102.5 -40t92.5 -71t67.5 -104.5t26.5 -141.5q0 -178 -115 -288.5t-360 -110.5h-430v1440h403zM532 799q172 0 247 77.5t75 200.5q0 70 -26.5 118 t-69.5 76.5t-99.5 41t-117.5 12.5h-265v-526h256zM598 115q176 0 252 75.5t76 210.5q0 141 -97.5 213t-277.5 72h-275v-571h322z" horiz-adv-x="1153" unicode="B"/><glyph d="M723 1346q-231 0 -358 -161t-127 -472q0 -324 127 -471.5t358 -147.5q68 0 124 12.5t102 31t83 41t64 42.5l61 -94q-70 -59 -183.5 -104.5t-258.5 -45.5q-313 0 -463 190.5t-150 545.5q0 168 38 306t115 236.5t192.5 152.5t271.5 54q84 0 153.5 -16t123 -40t91 -49.5 t60.5 -45.5l-68 -97q-27 20 -60.5 44t-77.5 43.5t-98 32t-120 12.5z" horiz-adv-x="1208" unicode="C"/><glyph d="M580 1440q311 0 475 -188.5t164 -532.5q0 -174 -44.5 -308.5t-127 -225.5t-201.5 -138t-266 -47h-428v1440h428zM580 119q233 0 369 153.5t136 448.5q0 309 -136 454.5t-369 145.5h-299v-1202h299z" horiz-adv-x="1323" unicode="D"/><glyph d="M152 1440h794v-119h-665v-512h520v-119h-520v-571h686v-119h-815v1440z" horiz-adv-x="1017" unicode="E"/><glyph d="M156 1440h800v-119h-671v-512h546v-119h-546v-690h-129v1440z" horiz-adv-x="1017" unicode="F"/><glyph d="M717 1352q-109 0 -198 -39t-151.5 -119t-97 -200t-34.5 -281q0 -328 128 -476.5t379 -148.5q94 0 172 16.5t125 34.5v482h-305v110h426v-665q-18 -10 -56 -26.5t-93.5 -32t-127 -27t-157.5 -11.5q-315 0 -471 188.5t-156 555.5q0 164 38 303t115 240.5t191.5 159 t268.5 57.5q139 0 244.5 -36t189.5 -104l-66 -102q-25 18 -57.5 39.5t-75.5 40t-100 30t-131 11.5z" horiz-adv-x="1261" unicode="G"/><glyph d="M1012 1440h129v-1440h-129v709h-731v-709h-129v1440h129v-611h731v611z" horiz-adv-x="1292" unicode="H"/><glyph d="M281 0h-129v1440h129v-1440z" horiz-adv-x="432" unicode="I"/><glyph d="M627 1440h129v-1065q0 -219 -101.5 -313.5t-281.5 -94.5q-76 0 -137.5 12.5t-107.5 30t-73.5 32.5t-36.5 21l50 103q8 -4 33.5 -17.5t64.5 -28t87 -25.5t101 -11q70 0 122 15.5t85 51t49.5 95t16.5 147.5v1047z" horiz-adv-x="894" unicode="J"/><glyph d="M281 0h-129v1440h129v-664l600 664h157l-604 -670l647 -770h-170l-630 750v-750z" horiz-adv-x="1081" unicode="K"/><glyph d="M285 119h665v-119h-794v1440h129v-1321z" horiz-adv-x="991" unicode="L"/><glyph d="M1370 1440v-1440h-131v1229l-430 -793h-113l-417 768v-1204h-132v1440h148l463 -856l461 856h151z" horiz-adv-x="1517" unicode="M"/><glyph d="M276 1217v-1217h-124v1440h143l723 -1211v1211h125v-1440h-133z" horiz-adv-x="1294" unicode="N"/><glyph d="M104 721q0 168 40 306t118 236.5t192.5 152.5t262.5 54q147 0 261 -54t190.5 -152.5t116.5 -236.5t40 -306t-40 -306.5t-116.5 -237.5t-191.5 -153.5t-262 -54.5t-262 54.5t-192 153.5t-117 237.5t-40 306.5zM240 721q0 -143 28.5 -259t88 -199t148.5 -128t210 -45 t210 45t148.5 128t88 199t28.5 259t-28.5 259t-88 198t-148.5 127t-210 45t-210 -45t-148.5 -127t-88 -198t-28.5 -259z" horiz-adv-x="1429" unicode="O"/><glyph d="M879 999q0 170 -88.5 248t-243.5 78h-271v-645h252q170 0 260.5 79.5t90.5 239.5zM1010 999q0 -86 -27 -164.5t-85 -139t-148.5 -96.5t-214.5 -36h-259v-563h-124v1440h401q119 0 205 -35t142 -94.5t83 -139.5t27 -172z" horiz-adv-x="1085" unicode="P"/><glyph d="M1325 721q0 -260 -95 -446.5t-276 -260.5q27 -37 67 -69.5t89 -59t104.5 -44t112.5 -25.5l-24 -105q-68 8 -137.5 34t-133 60.5t-117 79.5t-90.5 95q-25 -4 -50 -6.5t-54 -2.5q-160 0 -276.5 58.5t-191.5 160t-112 237.5t-37 294q0 168 40 306t117 236.5t191.5 152.5 t262.5 54q147 0 262 -54t191.5 -152.5t116.5 -236.5t40 -306zM1190 721q0 143 -28.5 259t-88 198t-148.5 127t-210 45t-210 -45t-148.5 -127t-88 -198t-28.5 -259t28.5 -259t88 -199t148.5 -128t210 -45t210 45t148.5 128t88 199t28.5 259z" horiz-adv-x="1429" unicode="Q"/><glyph d="M1071 0h-149l-353 592h-293v-592h-124v1440h378q129 0 216.5 -37t140.5 -97.5t76.5 -135t23.5 -150.5q0 -84 -21.5 -149.5t-60.5 -114.5t-90 -85t-108 -57zM858 1014q0 143 -81 227t-263 84h-238v-620h246q174 0 255 84t81 225z" horiz-adv-x="1107" unicode="R"/><glyph d="M469 690q-172 53 -264 146.5t-92 234.5q0 84 27.5 158t85 129t143.5 87t202 32q55 0 112.5 -8.5t111 -22.5t98.5 -33.5t76 -40.5l-49 -108q-47 31 -141.5 61.5t-215.5 30.5q-156 0 -237.5 -72t-81.5 -197q0 -49 13 -87.5t44 -71.5t82 -59.5t127 -53.5l147 -51 q176 -61 255 -153.5t79 -237.5q0 -84 -29.5 -158t-88 -128t-147.5 -86t-206 -32q-88 0 -163.5 14.5t-136 35t-102.5 42t-61 35.5l54 109q29 -18 68.5 -38t91 -37t115 -28.5t136.5 -11.5q152 0 244 67.5t92 204.5q0 102 -59.5 172t-200.5 115z" horiz-adv-x="1069" unicode="S"/><glyph d="M477 1319h-442v121h1012v-121h-441v-1319h-129v1319z" horiz-adv-x="1081" unicode="T"/><glyph d="M629 -33q-147 0 -242.5 44t-153 124t-80 189.5t-22.5 240.5v875h129v-846q0 -145 22.5 -243.5t68.5 -157t117 -83t165 -24.5t163.5 24.5t115.5 83t70 155.5t24 243v848h129v-877q0 -131 -24 -240.5t-82 -188.5t-155.5 -123t-244.5 -44z" horiz-adv-x="1265" unicode="U"/><glyph d="M561 180l408 1260h135l-481 -1440h-127l-490 1440h141z" horiz-adv-x="1110" unicode="V"/><glyph d="M483 0h-149l-314 1440h136l262 -1233l291 1198h143l283 -1196l272 1231h133l-330 -1440h-151l-281 1182z" horiz-adv-x="1560" unicode="W"/><glyph d="M33 0l475 768l-404 672h154l332 -568l350 568h139l-417 -674l458 -766h-155l-390 653l-397 -653h-145z" horiz-adv-x="1153" unicode="X"/><glyph d="M459 629l-453 811h148l374 -688l383 688h140l-463 -807v-633h-129v629z" horiz-adv-x="1056" unicode="Y"/><glyph d="M66 106l808 1215h-788v119h944v-107l-811 -1214h836v-119h-989v106z" horiz-adv-x="1112" unicode="Z"/><glyph d="M154 1536h419v-109h-299v-1527h299v-109h-419v1745z" horiz-adv-x="624" unicode="["/><glyph d="M649 -96l-639 1632h117l639 -1632h-117z" horiz-adv-x="776" unicode="\"/><glyph d="M471 -209h-420v109h299v1527h-299v109h420v-1745z" horiz-adv-x="624" unicode="]"/><glyph d="M1008 647h-123l-314 643l-319 -643h-121l389 766h105z" horiz-adv-x="1138" unicode="^"/><glyph d="M-37 -268h914v-113h-914v113z" horiz-adv-x="839" unicode="_"/><glyph d="M745 1294l-47 -92l-462 217l57 115z" horiz-adv-x="978" unicode="`"/><glyph d="M743 492q-16 4 -45.5 9t-68.5 9t-84 7t-88 3q-152 0 -212.5 -63.5t-60.5 -169.5q0 -109 67.5 -158t176.5 -49q61 0 118.5 24.5t101.5 65.5t69.5 93t25.5 108v121zM381 -25q-53 0 -109.5 16.5t-102.5 53.5t-76 96.5t-30 145.5q0 152 95.5 245t287.5 93q45 0 92.5 -3.5 t87.5 -8.5t70.5 -10t46.5 -7v90q0 133 -75.5 190.5t-216.5 57.5q-100 0 -171 -25.5t-112 -48.5l-41 94q39 23 127 54.5t227 31.5q180 0 279.5 -85t99.5 -259v-696h-110l-5 145q-31 -49 -72.5 -81.5t-91 -52t-101.5 -28t-99 -8.5z" horiz-adv-x="987" unicode="a"/><glyph d="M590 932q-164 0 -252 -116t-88 -308v-246q14 -23 44 -51.5t72 -54t95 -43t114 -17.5q147 0 234.5 101.5t87.5 318.5q0 90 -18.5 167t-55.5 132t-95 86t-138 31zM244 119q0 -37 -1 -59.5t-1 -59.5h-113v1536h121v-684q47 86 134 138t220 52q104 0 182 -39.5t130.5 -109.5 t79 -167t26.5 -210q0 -150 -39 -251t-100.5 -163.5t-139 -89t-155.5 -26.5q-96 0 -186 32.5t-158 100.5z" horiz-adv-x="1112" unicode="b"/><glyph d="M215 510q0 -111 25.5 -189.5t69.5 -131t106.5 -77t136.5 -24.5q94 0 153.5 20.5t96.5 38.5l45 -90q-29 -23 -101.5 -51.5t-201.5 -28.5q-217 0 -336 137.5t-119 393.5q0 119 32 217t91 169t143 109.5t191 38.5q63 0 113.5 -10t88 -25.5t62.5 -33t41 -29.5l-57 -92 q-29 20 -89.5 50t-152.5 30q-147 0 -242.5 -104.5t-95.5 -317.5z" horiz-adv-x="888" unicode="c"/><glyph d="M526 932q-80 0 -138 -33t-96 -89t-56.5 -134t-18.5 -168q0 -213 87 -312.5t231 -99.5q63 0 116.5 15.5t95 40t71.5 54.5t48 58v228q0 209 -88 324.5t-252 115.5zM872 123q-59 -59 -145 -98t-209 -39q-80 0 -156.5 25.5t-137 86t-96.5 160.5t-36 250q0 100 25.5 196.5 t78 172t134.5 120.5t196 45q121 0 205 -47t135 -137v678h121v-1536h-113z" horiz-adv-x="1112" unicode="d"/><glyph d="M592 88q92 0 157.5 20.5t104.5 36.5l37 -96q-31 -20 -113 -46t-198 -26q-248 0 -369 138.5t-121 392.5q0 121 31 220t88 169t140 107.5t188 37.5q98 0 176 -29.5t132 -96t82.5 -170t28.5 -250.5v-25h-745q10 -178 101.5 -280.5t279.5 -102.5zM836 575q-10 170 -78 264.5 t-223 94.5q-154 0 -230 -94.5t-92 -264.5h623z" horiz-adv-x="1042" unicode="e"/><glyph d="M33 909v107h200v110q0 94 17.5 173t59.5 134.5t108.5 86t165.5 30.5q53 0 97 -7t67 -13l-17 -105q-16 4 -52 10.5t-67 6.5q-76 0 -125 -18.5t-78.5 -59.5t-41 -105.5t-11.5 -158.5v-84h314v-107h-314v-909h-123v909h-200z" horiz-adv-x="675" unicode="f"/><glyph d="M811 928q57 -41 86 -106.5t29 -141.5q0 -94 -37 -161.5t-95.5 -112t-129 -66t-138.5 -21.5q-59 0 -120.5 11.5t-116.5 42.5q-29 -27 -52.5 -63t-23.5 -87q0 -59 48 -88t181 -31l226 -4q68 -2 129 -14t109 -40t76 -74t28 -115q0 -68 -33 -128.5t-100.5 -105.5t-169 -71.5 t-236.5 -26.5q-84 0 -159.5 13t-133 46t-92.5 84t-35 129t35 140.5t94 109.5q-35 23 -55.5 61.5t-20.5 96.5q0 63 33 121.5t78 95.5q-47 41 -73.5 106.5t-26.5 153.5q0 94 37.5 161.5t96 111.5t130.5 65.5t139 21.5q41 0 74 -4t60.5 -9t53 -9t54.5 -4h276v-96h-57 q-31 0 -82 2t-86 6zM473 -4q-43 2 -97 3t-104 13q-41 -35 -71.5 -87t-30.5 -115q0 -49 24.5 -85t66.5 -57.5t97.5 -32t116.5 -10.5q188 0 299 58.5t111 156.5q0 29 -8.5 55.5t-32 47t-64.5 34t-106 15.5zM805 684q0 72 -25.5 122t-65.5 81t-90.5 44t-101.5 13t-102 -14.5 t-92 -45t-66.5 -80.5t-25.5 -120q0 -72 25.5 -123t65.5 -83t91 -46t102 -14t101.5 14t91.5 46t66.5 82t25.5 124z" horiz-adv-x="1052" unicode="g"/><glyph d="M250 840q47 98 137 150t225 52q166 0 255 -96t89 -282v-664h-120v647q0 80 -19.5 135.5t-53.5 88t-80 47t-101 14.5q-84 0 -146.5 -38t-103.5 -98.5t-61.5 -136t-20.5 -153.5v-506h-121v1536h121v-696z" horiz-adv-x="1077" unicode="h"/><glyph d="M137 1016h121v-1016h-121v1016zM104 1356q0 45 26 72.5t67 27.5t67.5 -27.5t26.5 -72.5q0 -47 -26.5 -74t-67.5 -27t-67 28t-26 73z" horiz-adv-x="395" unicode="i"/><glyph d="M287 -29q0 -215 -80 -322.5t-260 -107.5q-29 0 -67 5t-60 14l14 102q20 -4 48 -8t55 -4q74 0 118.5 21.5t69.5 66.5t33 113.5t8 162.5v1002h121v-1045zM133 1356q0 45 25.5 72.5t66.5 27.5t67.5 -27.5t26.5 -72.5q0 -47 -26.5 -74t-67.5 -27t-66.5 28t-25.5 73z" horiz-adv-x="423" unicode="j"/><glyph d="M250 565l428 451h153l-440 -455l500 -561h-158l-483 549v-549h-121v1536h121v-971z" horiz-adv-x="890" unicode="k"/><glyph d="M250 0h-121v1536h121v-1536z" horiz-adv-x="378" unicode="l"/><glyph d="M1221 932q-78 0 -136.5 -36t-97.5 -94.5t-58.5 -130t-19.5 -145.5v-526h-121v649q0 160 -59 221.5t-168 61.5q-78 0 -136 -38t-97 -99.5t-58.5 -137t-19.5 -151.5v-506h-121v1016h113l4 -182q47 96 134 152t210 56q106 0 186 -55t109 -168q49 104 141 163.5t217 59.5 q160 0 243 -97t83 -281v-664h-121v649q0 160 -58 221.5t-169 61.5z" horiz-adv-x="1689" unicode="m"/><glyph d="M242 1016l4 -182q47 98 138 153t220 55q176 0 264 -96t88 -282v-664h-120v647q0 80 -19.5 135.5t-53.5 88t-80 47t-101 14.5q-84 0 -146.5 -38t-103.5 -98.5t-61.5 -136t-20.5 -153.5v-506h-121v1016h113z" horiz-adv-x="1077" unicode="n"/><glyph d="M557 88q176 0 260 113.5t84 308.5q0 190 -85 306t-259 116q-172 0 -257 -116t-85 -306q0 -195 84 -308.5t258 -113.5zM557 1042q117 0 204 -39.5t145.5 -110.5t88 -168t29.5 -214t-30.5 -215t-89 -169t-146.5 -110t-201 -39q-115 0 -203 39t-146 110t-88 169t-30 215 t31 214t89 168t145 110.5t202 39.5z" horiz-adv-x="1116" unicode="o"/><glyph d="M590 932q-98 0 -164 -39t-104.5 -101.5t-55 -142.5t-16.5 -160v-268q14 -18 45 -40.5t73 -42t93 -32t108 -12.5q145 0 236.5 104.5t91.5 323.5q0 88 -18.5 163t-56.5 130t-95 86t-137 31zM606 1042q104 0 182 -39.5t130.5 -109.5t78 -165t25.5 -206q0 -150 -40 -252 t-103.5 -165.5t-142.5 -91t-158 -27.5q-100 0 -183.5 28.5t-144.5 67.5v-533h-121v1467h113l4 -178q43 96 135 150t225 54z" horiz-adv-x="1112" unicode="p"/><glyph d="M524 932q-147 0 -228 -112.5t-81 -311.5q0 -109 24.5 -186.5t67.5 -129t101.5 -75t126.5 -23.5q63 0 117.5 15.5t96.5 39t70.5 51t44.5 50.5v221q0 104 -20.5 189t-62.5 145.5t-105.5 93.5t-151.5 33zM514 1042q141 0 229 -57t125 -137l4 168h113v-1467h-121v564 q-18 -20 -49 -43t-75 -41.5t-100 -30.5t-124 -12q-82 0 -158.5 26.5t-136 87t-95.5 160.5t-36 248q0 113 27.5 210t81 168.5t133.5 113.5t182 42z" horiz-adv-x="1112" unicode="q"/><glyph d="M606 1026q23 0 49.5 -2t34.5 -6l-10 -111q-16 4 -39 5t-43 1q-84 0 -147.5 -33.5t-106.5 -95t-65.5 -147.5t-22.5 -191v-446h-121v1016h113l4 -215q41 98 132 161.5t222 63.5z" horiz-adv-x="692" unicode="r"/><glyph d="M104 168q45 -27 130 -55.5t202 -28.5q74 0 124 14.5t81 39t44 57t13 67.5q0 74 -44 120t-171 69l-110 20q-66 12 -119 31.5t-93 52.5t-61.5 79t-21.5 114q0 141 104.5 217.5t272.5 76.5q102 0 185 -22.5t130 -46.5l-43 -101q-47 25 -113.5 43.5t-152.5 18.5 q-135 0 -200.5 -47t-65.5 -125q0 -39 10 -67.5t36.5 -49t69.5 -36t109 -27.5l112 -21q123 -25 204 -90t81 -190q0 -139 -99.5 -221.5t-279.5 -82.5q-127 0 -229.5 31t-149.5 62z" horiz-adv-x="876" unicode="s"/><glyph d="M588 96q29 0 53.5 2t42.5 6l12 -98q-20 -6 -61 -12t-90 -6q-164 0 -232.5 77.5t-68.5 217.5v626h-211v107h211v299l121 33v-332h309v-107h-309v-592q0 -70 14 -112.5t43 -67t71 -33t95 -8.5z" horiz-adv-x="731" unicode="t"/><glyph d="M834 1016h120v-1016h-112l-4 188q-49 -98 -138.5 -155.5t-230.5 -57.5q-168 0 -254 95.5t-86 281.5v664h121v-647q0 -80 18.5 -134.5t52 -87t79.5 -47t102 -14.5q80 0 141.5 37t104.5 96.5t64.5 134t21.5 152.5v510z" horiz-adv-x="1083" unicode="u"/><glyph d="M393 0l-385 1016h133l322 -889l317 889h127l-383 -1016h-131z" horiz-adv-x="917" unicode="v"/><glyph d="M6 1016h129l250 -877l219 846h137l220 -846l247 877h121l-305 -1016h-137l-217 827l-219 -827h-138z" horiz-adv-x="1335" unicode="w"/><glyph d="M719 1016h133l-332 -479l369 -537h-141l-306 446l-292 -446h-136l363 530l-330 486h139l267 -398z" horiz-adv-x="905" unicode="x"/><glyph d="M8 1016h139l322 -819l328 819h133l-613 -1467h-127l211 500z" horiz-adv-x="937" unicode="y"/><glyph d="M78 84l602 827h-594v105h752v-86l-609 -828h615v-102h-766v84z" horiz-adv-x="913" unicode="z"/><glyph d="M82 723q41 8 69.5 29.5t46 50t24.5 63.5t7 72v256q0 78 18.5 141.5t58.5 107.5t104.5 68.5t156.5 24.5v-104q-127 0 -173 -62.5t-46 -200.5v-237q0 -92 -40 -163t-103 -103q63 -29 103 -93.5t40 -171.5v-243q0 -63 10.5 -112.5t35 -83.5t66.5 -51t107 -17v-103 q-98 0 -163.5 26.5t-104.5 74t-54.5 113t-15.5 145.5v239q0 72 -32.5 134.5t-114.5 78.5v121z" horiz-adv-x="616" unicode="{"/><glyph d="M162 -451v1987h114v-1987h-114z" horiz-adv-x="438" unicode="|"/><glyph d="M532 602q-82 -16 -113.5 -78.5t-31.5 -134.5v-239q0 -80 -15.5 -145.5t-54 -113t-104.5 -74t-164 -26.5v103q129 0 174 68.5t45 195.5v243q0 106 39 170t105 93q-66 33 -105 104.5t-39 163.5v237q0 137 -46 200t-173 63v104q92 0 156.5 -24.5t104.5 -68.5t58.5 -107.5 t18.5 -141.5v-256q0 -37 7 -72t24.5 -63.5t45.5 -50t68 -29.5v-121z" horiz-adv-x="614" unicode="}"/><glyph d="M791 854q72 0 119.5 29.5t99.5 77.5l65 -74q-55 -59 -124.5 -100.5t-164.5 -41.5q-72 0 -129 27t-104 55q-37 23 -76 42.5t-90 19.5q-66 0 -132.5 -39t-127.5 -98l-66 79q27 27 63 57t78 54.5t90 39.5t99 15q72 0 129.5 -26.5t104.5 -55.5q37 -23 78 -42t88 -19z" horiz-adv-x="1138" unicode="~"/><glyph d="M309 -418h-123v1034h123v-1034zM150 932q0 49 28.5 78.5t71.5 29.5t71.5 -29.5t28.5 -78.5q0 -51 -28.5 -80t-71.5 -29t-71.5 30t-28.5 79z" horiz-adv-x="499" unicode="¡"/><glyph d="M696 1237q55 -2 103.5 -12.5t86.5 -24.5t65.5 -28.5t41.5 -26.5l-51 -92q-12 8 -37.5 21t-57.5 25.5t-71 21.5t-80 9v-851q88 2 151.5 24.5t98.5 38.5l43 -86q-29 -18 -105.5 -48t-187.5 -36v-199h-96v201q-94 8 -172 47t-134 105.5t-87 161t-31 217.5q0 117 32 210 t88 160.5t134 107.5t170 50v207h96v-203zM297 705q0 -106 23.5 -182.5t65.5 -125.5t97.5 -75.5t116.5 -36.5v841q-61 -10 -116.5 -37.5t-97.5 -79t-65.5 -126t-23.5 -178.5z" horiz-adv-x="1138" unicode="¢"/><glyph d="M139 838h160q-6 53 -12 112.5t-6 93.5q0 88 25.5 165t79.5 133.5t136 89t195 32.5q66 0 121 -14t99 -33.5t74.5 -42t47.5 -39.5l-68 -88q-12 12 -37.5 29.5t-60.5 35t-79 30t-95 12.5q-84 0 -143.5 -24.5t-96.5 -67.5t-54 -99.5t-17 -120.5q0 -41 5 -99t11 -105h364v-107 h-346q10 -53 15.5 -121.5t5.5 -109.5q0 -72 -17.5 -132.5t-42 -109.5t-51 -86t-45.5 -59h713v-113h-852v96q20 25 49 64t55.5 91t45 116.5t18.5 142.5q0 53 -5 112.5t-14 108.5h-178v107z" horiz-adv-x="1138" unicode="£"/><glyph d="M872 942q78 -96 78 -240q0 -135 -73 -231l167 -170l-65 -68l-170 170q-100 -82 -242 -81q-145 0 -239 79l-168 -168l-66 68l168 166q-72 96 -72 233q0 139 78 240l-174 176l68 70l174 -180q100 76 233 75q137 0 234 -71l174 176l70 -68zM842 702q0 125 -74 203t-199 78 q-123 0 -197.5 -78t-74.5 -203q0 -129 74.5 -204.5t197.5 -75.5q125 0 199 75.5t74 204.5z" horiz-adv-x="1138" unicode="¤"/><glyph d="M991 604h-362v-209h362v-104h-362v-291h-123v291h-348v104h348v209h-348v105h305l-410 731h148l370 -695l383 695h140l-424 -731h321v-105z" horiz-adv-x="1138" unicode="¥"/><glyph d="M162 866v670h114v-670h-114zM162 -451v672h114v-672h-114z" horiz-adv-x="438" unicode="¦"/><glyph d="M932 598q0 -86 -39 -159.5t-105 -131.5q47 -41 74 -98t27 -143q0 -74 -26.5 -137.5t-76 -109.5t-121 -72t-159.5 -26q-66 0 -119 10.5t-94 25t-69.5 29.5t-43.5 24l45 94q37 -20 109 -49t172 -29q55 0 104 14.5t85 44t57.5 74.5t21.5 109q0 80 -47 133t-135 88l-189 76 q-53 20 -100 48.5t-82 66.5t-56.5 88t-21.5 114q0 82 37 159t109 138q-53 47 -77 103.5t-24 134.5q0 82 30 146t82 108.5t123 68t150 23.5q63 0 115.5 -10.5t92.5 -23.5t69 -28.5t47 -27.5l-45 -93q-29 18 -98.5 48t-169.5 30q-59 0 -109.5 -13t-89.5 -42t-60.5 -72 t-21.5 -104q0 -160 191 -236l178 -71q127 -51 193.5 -126t66.5 -196zM455 887q-53 23 -84 41q-45 -35 -82 -96.5t-37 -133.5q0 -86 53 -140t156 -95l151 -62q51 -20 93 -45q18 14 38.5 37t38 51.5t29.5 64.5t12 77q0 86 -56 142t-153 95z" horiz-adv-x="1071" unicode="§"/><glyph d="M168 1311q0 47 27.5 74.5t68.5 27.5t67.5 -27.5t26.5 -74.5t-26.5 -75t-67.5 -28t-68.5 28t-27.5 75zM578 1311q0 47 26.5 74.5t67.5 27.5t68.5 -27.5t27.5 -74.5t-27.5 -75t-68.5 -28t-67.5 28t-26.5 75z" horiz-adv-x="935" unicode="¨"/><glyph d="M1552 723q0 -164 -55 -302t-154.5 -237.5t-236.5 -155t-299 -55.5q-164 0 -300 55.5t-235.5 155t-155 237.5t-55.5 302q0 162 55.5 299t154 237.5t235.5 157t303 56.5q162 0 299 -56.5t235.5 -157t153.5 -237.5t55 -299zM590 719q0 -154 64.5 -227.5t176.5 -73.5 q84 0 133.5 18.5t65.5 26.5l31 -70q-6 -6 -23.5 -16t-47 -20.5t-70.5 -18.5t-93 -8q-166 0 -253 103.5t-87 285.5q0 86 25 157.5t69 124t108.5 82t144.5 29.5q49 0 90 -9t70.5 -21.5t48 -23.5t24.5 -18l-41 -73q-16 10 -68.5 32.5t-123.5 22.5q-113 0 -178.5 -76.5 t-65.5 -226.5zM1448 721q0 141 -48 261t-134 208t-203 137t-254 49q-139 0 -257 -49t-204 -137t-135 -208t-49 -261t48 -261t134 -207t204 -136t257 -49q137 0 255 49t204 136t134 207t48 261z" horiz-adv-x="1611" unicode="©"/><glyph d="M485 1133q-4 0 -18 2t-35.5 3t-46.5 3t-45 2q-80 0 -126 -29t-46 -92q0 -66 35 -93.5t96 -27.5q37 0 69.5 11.5t59.5 30t42 43t15 52.5v95zM498 840l-6 71q-33 -39 -90.5 -63.5t-114.5 -24.5q-92 0 -151.5 47.5t-59.5 149.5q0 96 68.5 146.5t191.5 50.5q18 0 40.5 -1.5 t44 -3.5t39 -3t25.5 -3v43q0 78 -42 112t-128 34q-47 0 -99 -13.5t-79 -29.5l-26 71q27 16 85 33t130 17q131 0 191.5 -59.5t60.5 -182.5v-391h-80zM578 639h-494v82h494v-82z" horiz-adv-x="663" unicode="ª"/><glyph d="M315 117l-235 395l235 395h123l-227 -395l227 -395h-123zM684 117l-235 395l235 395h123l-227 -395l227 -395h-123z" horiz-adv-x="886" unicode="«"/><glyph d="M168 940h801v-491h-111v385h-690v106z" horiz-adv-x="1138" unicode="¬"/><glyph d="M100 633h588v-117h-588v117z" horiz-adv-x="790" unicode="­"/><glyph d="M1552 723q0 -164 -55 -302t-154.5 -237.5t-236.5 -155t-299 -55.5q-164 0 -300 55.5t-235.5 155t-155 237.5t-55.5 302q0 162 55.5 299t154 237.5t235.5 157t303 56.5q162 0 299 -56.5t235.5 -157t153.5 -237.5t55 -299zM1448 721q0 139 -48 259t-134 208t-203 138 t-254 50q-139 0 -257 -50t-204 -138t-135 -208t-49 -259t48 -259t134 -207t204 -137t257 -50q137 0 255 50t204 138t134 207t48 258zM1106 338h-109l-172 303h-170v-303h-98v764h256q70 0 120 -18.5t82 -50.5t46 -72.5t14 -86.5q0 -88 -45 -138t-110 -72zM977 872 q0 66 -38 105t-122 39h-162v-289h156q78 0 122 39.5t44 105.5z" horiz-adv-x="1611" unicode="®"/><glyph d="M190 1255v109h582v-109h-582z" horiz-adv-x="960" unicode="¯"/><glyph d="M645 1141q0 -57 -21.5 -106.5t-58.5 -84.5t-87 -55.5t-107 -20.5q-123 0 -199 74t-76 191q0 55 20.5 103t57.5 85t87 57.5t110 20.5q121 0 197.5 -73.5t76.5 -190.5zM551 1141q0 78 -51 129t-129 51q-80 0 -130.5 -52t-50.5 -130q0 -82 51.5 -131.5t131.5 -49.5 q76 0 127 49.5t51 133.5z" horiz-adv-x="741" unicode="°"/><glyph d="M80 819h395v402h115v-402h393v-110h-393v-402h-115v402h-395v110zM80 109h903v-109h-903v109z" horiz-adv-x="1064" unicode="±"/><glyph d="M356 1051q72 45 115 88t43 108q0 59 -39 94t-113 35q-37 0 -66.5 -10t-54 -24.5t-43 -32t-30.5 -31.5l-62 59q12 18 36 41t55.5 42.5t74.5 32.5t97 13q123 0 189.5 -60t66.5 -155q0 -45 -17.5 -83t-46.5 -69.5t-67.5 -61t-81.5 -56.5q-37 -25 -70 -47.5t-57.5 -48 t-40 -57t-15.5 -72.5h408v-90h-516v39q0 59 12 105t40 86t72.5 77t110.5 78z" unicode="²"/><glyph d="M231 1110h111q82 0 128 40t46 110q0 59 -43 88.5t-117 29.5q-78 0 -130 -27.5t-76 -45.5l-48 67q35 33 103.5 63.5t161.5 30.5q70 0 117.5 -17t77.5 -45t43 -64.5t13 -75.5q0 -74 -37.5 -120t-88.5 -69q61 -20 104 -66t43 -128q0 -104 -80 -168t-231 -64q-72 0 -125 9.5 t-94 21.5l18 86q33 -10 81 -19.5t107 -9.5q115 0 165 40t50 106q0 63 -40.5 102t-143.5 39h-115v86z" unicode="³"/><glyph d="M686 1534l57 -115l-462 -217l-48 92z" horiz-adv-x="978" unicode="´"/><glyph d="M129 1016h121v-631q0 -158 70.5 -228.5t181.5 -70.5q78 0 139 36t104 94t66 134t23 158v508h120v-1016h-112l-4 190q-16 -37 -46 -74.5t-74 -69.5t-101.5 -51.5t-131.5 -19.5q-37 0 -73.5 10.5t-68.5 27t-56.5 37t-38.5 38.5v-539h-119v1467z" horiz-adv-x="1083" unicode="µ"/><glyph d="M473 657q-207 0 -304 107.5t-97 284.5q0 86 26.5 157.5t78.5 123.5t131 81t186 29h471v-1719h-119v1604h-250v-1604h-123v936z" horiz-adv-x="1126" unicode="¶"/><glyph d="M86 709q0 49 28.5 80t71.5 31t72 -30t29 -81q0 -49 -30 -77.5t-73 -28.5t-70.5 28.5t-27.5 77.5z" horiz-adv-x="368" unicode="·"/><glyph d="M698 -270q0 -98 -70.5 -152.5t-181.5 -54.5q-86 0 -134 15.5t-58 19.5l22 86q35 -10 72 -20.5t82 -10.5q72 0 116 26.5t44 79.5q0 94 -154 95q-29 0 -61 -7l41 193h100l-20 -100q98 -8 150 -53t52 -117z" horiz-adv-x="960" unicode="¸"/><glyph d="M369 1333l-209 -123l-43 78l266 164h90v-786h-104v667z" unicode="¹"/><glyph d="M352 823q-141 0 -217 89t-76 235q0 72 20.5 131t59.5 102t93.5 68t119.5 25q141 0 218 -91.5t77 -234.5t-79 -233.5t-216 -90.5zM352 905q98 0 147.5 62.5t49.5 179.5t-49 180.5t-148 63.5q-92 0 -143 -63.5t-51 -180.5t48 -179.5t146 -62.5zM639 639h-569v82h569v-82z" horiz-adv-x="706" unicode="º"/><glyph d="M676 512l-227 395h122l236 -395l-236 -395h-122zM307 512l-227 395h123l235 -395l-235 -395h-123z" horiz-adv-x="886" unicode="»"/><glyph d="M430 1440h119l-782 -1440h-121zM-399 1333l-209 -123l-43 78l266 164h90v-786h-104v667zM752 489v-202h131v-88h-131v-170h-92v170h-367v59l326 557h106l-309 -528h244v202h92z" horiz-adv-x="194" unicode="¼"/><glyph d="M1180 1440h119l-782 -1440h-121zM351 1333l-209 -123l-43 78l266 164h90v-786h-104v667zM1341 414q72 45 115 88t43 108q0 59 -39 94t-113 35q-37 0 -66.5 -10t-54 -24.5t-43 -32t-30.5 -31.5l-62 59q12 18 36 41t55.5 42.5t74.5 32.5t97 13q123 0 189.5 -60t66.5 -155 q0 -45 -17.5 -83t-46.5 -69.5t-67.5 -61t-81.5 -56.5q-37 -25 -70 -47.5t-57.5 -48t-40 -57t-15.5 -72.5h408v-90h-516v39q0 59 12 105t40 86t72.5 77t110.5 78z" horiz-adv-x="1802" unicode="½"/><glyph d="M1255 1440h119l-782 -1440h-121zM1567 489v-202h131v-88h-131v-170h-92v170h-367v59l326 557h106l-309 -528h244v202h92zM243 1110h111q82 0 128 40t46 110q0 59 -43 88.5t-117 29.5q-78 0 -130 -27.5t-76 -45.5l-48 67q35 33 103.5 63.5t161.5 30.5q70 0 117.5 -17 t77.5 -45t43 -64.5t13 -75.5q0 -74 -37.5 -120t-88.5 -69q61 -20 104 -66t43 -128q0 -104 -80 -168t-231 -64q-72 0 -125 9.5t-94 21.5l18 86q33 -10 81 -19.5t107 -9.5q115 0 165 40t50 106q0 63 -40.5 102t-143.5 39h-115v86z" horiz-adv-x="1802" unicode="¾"/><glyph d="M625 653q0 -78 -12.5 -135t-39 -104t-68.5 -92.5t-102 -98.5q-23 -20 -50 -48t-50.5 -63.5t-39 -77.5t-15.5 -91q0 -123 71.5 -197t221.5 -74q119 0 211 53.5t151 127.5l76 -78q-27 -35 -68 -72t-96 -69.5t-127 -53t-162 -20.5q-102 0 -178 29.5t-126 80.5t-74.5 119 t-24.5 143q0 68 17.5 122.5t45 98.5t62.5 79.5t69 66.5q43 37 78 70.5t59.5 73.5t39 90.5t14.5 119.5h117zM659 942q0 -49 -28.5 -78.5t-71.5 -29.5t-71.5 28.5t-28.5 79.5q0 49 28.5 79t71.5 30t71.5 -30t28.5 -79z" horiz-adv-x="978" unicode="¿"/><glyph d="M856 401h-588l-131 -401h-131l481 1440h152l483 -1440h-137zM303 514h516l-256 776zM811 1655l-41 -94l-477 202l53 119z" horiz-adv-x="1128" unicode="À"/><glyph d="M856 401h-588l-131 -401h-131l481 1440h152l483 -1440h-137zM303 514h516l-256 776zM770 1882l54 -119l-478 -202l-41 94z" horiz-adv-x="1128" unicode="Á"/><glyph d="M856 401h-588l-131 -401h-131l481 1440h152l483 -1440h-137zM303 514h516l-256 776zM842 1559l-279 200l-278 -200l-70 71l293 252h111l293 -252z" horiz-adv-x="1128" unicode="Â"/><glyph d="M856 401h-588l-131 -401h-131l481 1440h152l483 -1440h-137zM303 514h516l-256 776zM411 1815q51 0 91.5 -18.5t74 -42t66.5 -42t72 -18.5q96 0 96 118h108q0 -111 -54 -167t-152 -56q-51 0 -89 18.5t-72 41t-67 41t-69 18.5q-100 0 -101 -117h-108q0 106 51 165t153 59z" horiz-adv-x="1128" unicode="Ã"/><glyph d="M856 401h-588l-131 -401h-131l481 1440h152l483 -1440h-137zM303 514h516l-256 776zM260 1708q0 49 29 78t69 29q43 0 71 -29t28 -78q0 -47 -28 -76.5t-71 -29.5q-41 0 -69.5 29.5t-28.5 76.5zM666 1708q0 49 28.5 78t69.5 29q43 0 71.5 -29t28.5 -78q0 -47 -28.5 -76.5 t-71.5 -29.5q-41 0 -69.5 29.5t-28.5 76.5z" horiz-adv-x="1128" unicode="Ä"/><glyph d="M856 401h-588l-129 -401h-133l469 1401q-61 23 -98 74t-37 122q0 49 17.5 88t48 68t71.5 44t86 15q96 0 157.5 -58t61.5 -155q0 -72 -35.5 -123t-95.5 -73l471 -1403h-135zM303 514h516l-256 774zM686 1597q0 59 -35 93t-90 34q-51 0 -87 -32.5t-36 -94.5q0 -57 35 -90.5 t88 -33.5q55 0 90 32.5t35 91.5z" horiz-adv-x="1128" unicode="Å"/><glyph d="M766 1440h856v-119h-664v-512h519v-119h-519v-571h684v-119h-811v416h-469l-217 -416h-139zM424 526h407v789z" horiz-adv-x="1683" unicode="Æ"/><glyph d="M723 1348q-231 0 -358 -161t-127 -474q0 -324 127 -472.5t358 -148.5q68 0 124 12.5t103 31t84 41t64 42.5l59 -92q-70 -59 -183.5 -104.5t-264.5 -45.5l-17 -77q102 -8 152.5 -59.5t50.5 -125.5q0 -98 -69.5 -151t-182.5 -53q-86 0 -134 14t-58 18l20 92q35 -10 72 -19 t84 -9q72 0 111.5 23.5t39.5 80.5q0 45 -33.5 70.5t-109.5 25.5q-16 0 -34.5 -1t-35.5 -5l39 185q-258 31 -380 217t-122 510q0 168 38 306t115 236.5t192.5 152.5t271.5 54q84 0 153.5 -16t123 -40t91 -49.5t60.5 -45.5l-66 -94q-51 43 -139 87t-219 44z" horiz-adv-x="1208" unicode="Ç"/><glyph d="M152 1440h794v-119h-665v-512h520v-119h-520v-571h686v-119h-815v1440zM809 1655l-41 -94l-477 202l53 119z" horiz-adv-x="1017" unicode="È"/><glyph d="M152 1440h794v-119h-665v-512h520v-119h-520v-571h686v-119h-815v1440zM778 1882l54 -119l-478 -202l-41 94z" horiz-adv-x="1017" unicode="É"/><glyph d="M152 1440h794v-119h-665v-512h520v-119h-520v-571h686v-119h-815v1440zM846 1559l-279 200l-278 -200l-70 71l293 252h111l293 -252z" horiz-adv-x="1017" unicode="Ê"/><glyph d="M152 1440h794v-119h-665v-512h520v-119h-520v-571h686v-119h-815v1440zM252 1708q0 49 29 78t69 29q43 0 71 -29t28 -78q0 -47 -28 -76.5t-71 -29.5q-41 0 -69.5 29.5t-28.5 76.5zM658 1708q0 49 28.5 78t69.5 29q43 0 71.5 -29t28.5 -78q0 -47 -28.5 -76.5t-71.5 -29.5 q-41 0 -69.5 29.5t-28.5 76.5z" horiz-adv-x="1017" unicode="Ë"/><glyph d="M281 0h-129v1440h129v-1440zM485 1655l-41 -94l-477 202l53 119z" horiz-adv-x="432" unicode="Ì"/><glyph d="M281 0h-129v1440h129v-1440zM424 1882l54 -119l-478 -202l-41 94z" horiz-adv-x="432" unicode="Í"/><glyph d="M281 0h-129v1440h129v-1440zM496 1559l-279 200l-278 -200l-70 71l293 252h111l293 -252z" horiz-adv-x="432" unicode="Î"/><glyph d="M281 0h-129v1440h129v-1440zM-84 1708q0 49 29 78t69 29q43 0 71 -29t28 -78q0 -47 -28 -76.5t-71 -29.5q-41 0 -69.5 29.5t-28.5 76.5zM322 1708q0 49 28.5 78t69.5 29q43 0 71.5 -29t28.5 -78q0 -47 -28.5 -76.5t-71.5 -29.5q-41 0 -69.5 29.5t-28.5 76.5z" horiz-adv-x="432" unicode="Ï"/><glyph d="M20 788h158v652h428q313 0 477 -188.5t164 -532.5q0 -174 -45 -308.5t-128 -225.5t-201.5 -138t-266.5 -47h-428v678h-158v110zM606 119q236 0 371 152.5t135 449.5q0 309 -136 454.5t-370 145.5h-299v-533h332v-110h-332v-559h299z" horiz-adv-x="1349" unicode="Ð"/><glyph d="M276 1217v-1217h-124v1440h143l723 -1211v1211h125v-1440h-133zM503 1815q51 0 91.5 -18.5t74 -42t66.5 -42t72 -18.5q96 0 96 118h108q0 -111 -54 -167t-152 -56q-51 0 -89 18.5t-72 41t-67 41t-69 18.5q-100 0 -101 -117h-108q0 106 51 165t153 59z" horiz-adv-x="1294" unicode="Ñ"/><glyph d="M104 721q0 168 40 306t118 236.5t192.5 152.5t262.5 54q147 0 261 -54t190.5 -152.5t116.5 -236.5t40 -306t-40 -306.5t-116.5 -237.5t-191.5 -153.5t-262 -54.5t-262 54.5t-192 153.5t-117 237.5t-40 306.5zM240 721q0 -143 28.5 -259t88 -199t148.5 -128t210 -45 t210 45t148.5 128t88 199t28.5 259t-28.5 259t-88 198t-148.5 127t-210 45t-210 -45t-148.5 -127t-88 -198t-28.5 -259zM997 1655l-41 -94l-477 202l53 119z" horiz-adv-x="1429" unicode="Ò"/><glyph d="M104 721q0 168 40 306t118 236.5t192.5 152.5t262.5 54q147 0 261 -54t190.5 -152.5t116.5 -236.5t40 -306t-40 -306.5t-116.5 -237.5t-191.5 -153.5t-262 -54.5t-262 54.5t-192 153.5t-117 237.5t-40 306.5zM240 721q0 -143 28.5 -259t88 -199t148.5 -128t210 -45 t210 45t148.5 128t88 199t28.5 259t-28.5 259t-88 198t-148.5 127t-210 45t-210 -45t-148.5 -127t-88 -198t-28.5 -259zM927 1882l54 -119l-478 -202l-41 94z" horiz-adv-x="1429" unicode="Ó"/><glyph d="M104 721q0 168 40 306t118 236.5t192.5 152.5t262.5 54q147 0 261 -54t190.5 -152.5t116.5 -236.5t40 -306t-40 -306.5t-116.5 -237.5t-191.5 -153.5t-262 -54.5t-262 54.5t-192 153.5t-117 237.5t-40 306.5zM240 721q0 -143 28.5 -259t88 -199t148.5 -128t210 -45 t210 45t148.5 128t88 199t28.5 259t-28.5 259t-88 198t-148.5 127t-210 45t-210 -45t-148.5 -127t-88 -198t-28.5 -259zM1006 1559l-279 200l-278 -200l-70 71l293 252h111l293 -252z" horiz-adv-x="1429" unicode="Ô"/><glyph d="M104 721q0 168 40 306t118 236.5t192.5 152.5t262.5 54q147 0 261 -54t190.5 -152.5t116.5 -236.5t40 -306t-40 -306.5t-116.5 -237.5t-191.5 -153.5t-262 -54.5t-262 54.5t-192 153.5t-117 237.5t-40 306.5zM240 721q0 -143 28.5 -259t88 -199t148.5 -128t210 -45 t210 45t148.5 128t88 199t28.5 259t-28.5 259t-88 198t-148.5 127t-210 45t-210 -45t-148.5 -127t-88 -198t-28.5 -259zM579 1815q51 0 91.5 -18.5t74 -42t66.5 -42t72 -18.5q96 0 96 118h108q0 -111 -54 -167t-152 -56q-51 0 -89 18.5t-72 41t-67 41t-69 18.5 q-100 0 -101 -117h-108q0 106 51 165t153 59z" horiz-adv-x="1429" unicode="Õ"/><glyph d="M104 721q0 168 40 306t118 236.5t192.5 152.5t262.5 54q147 0 261 -54t190.5 -152.5t116.5 -236.5t40 -306t-40 -306.5t-116.5 -237.5t-191.5 -153.5t-262 -54.5t-262 54.5t-192 153.5t-117 237.5t-40 306.5zM240 721q0 -143 28.5 -259t88 -199t148.5 -128t210 -45 t210 45t148.5 128t88 199t28.5 259t-28.5 259t-88 198t-148.5 127t-210 45t-210 -45t-148.5 -127t-88 -198t-28.5 -259zM424 1708q0 49 29 78t69 29q43 0 71 -29t28 -78q0 -47 -28 -76.5t-71 -29.5q-41 0 -69.5 29.5t-28.5 76.5zM830 1708q0 49 28.5 78t69.5 29 q43 0 71.5 -29t28.5 -78q0 -47 -28.5 -76.5t-71.5 -29.5q-41 0 -69.5 29.5t-28.5 76.5z" horiz-adv-x="1429" unicode="Ö"/><glyph d="M238 1106l294 -324l295 320l80 -72l-303 -321l297 -318l-78 -72l-293 316l-292 -313l-78 71l297 318l-299 321z" horiz-adv-x="1064" unicode="×"/><glyph d="M285 150q-90 98 -135.5 244.5t-45.5 326.5q0 168 40 306t117 236.5t191.5 152.5t262.5 54q106 0 192 -28.5t158 -81.5l113 176l90 -55l-123 -191q90 -98 135 -243.5t45 -325.5q0 -168 -40 -306.5t-116.5 -237.5t-191.5 -153.5t-262 -54.5q-104 0 -191.5 28t-158.5 81 l-103 -162l-90 57zM240 721q0 -143 29.5 -260t88.5 -199l641 993q-55 45 -125.5 70t-158.5 25q-121 0 -210 -45t-148.5 -127t-88 -198t-28.5 -259zM1190 721q0 289 -119 455l-637 -994q111 -92 281 -92q121 0 210 45t148.5 128t88 199t28.5 259z" horiz-adv-x="1429" unicode="Ø"/><glyph d="M629 -33q-147 0 -242.5 44t-153 124t-80 189.5t-22.5 240.5v875h129v-846q0 -145 22.5 -243.5t68.5 -157t117 -83t165 -24.5t163.5 24.5t115.5 83t70 155.5t24 243v848h129v-877q0 -131 -24 -240.5t-82 -188.5t-155.5 -123t-244.5 -44zM889 1655l-41 -94l-477 202l53 119 z" horiz-adv-x="1265" unicode="Ù"/><glyph d="M629 -33q-147 0 -242.5 44t-153 124t-80 189.5t-22.5 240.5v875h129v-846q0 -145 22.5 -243.5t68.5 -157t117 -83t165 -24.5t163.5 24.5t115.5 83t70 155.5t24 243v848h129v-877q0 -131 -24 -240.5t-82 -188.5t-155.5 -123t-244.5 -44zM887 1882l54 -119l-478 -202 l-41 94z" horiz-adv-x="1265" unicode="Ú"/><glyph d="M629 -33q-147 0 -242.5 44t-153 124t-80 189.5t-22.5 240.5v875h129v-846q0 -145 22.5 -243.5t68.5 -157t117 -83t165 -24.5t163.5 24.5t115.5 83t70 155.5t24 243v848h129v-877q0 -131 -24 -240.5t-82 -188.5t-155.5 -123t-244.5 -44zM932 1559l-279 200l-278 -200 l-70 71l293 252h111l293 -252z" horiz-adv-x="1265" unicode="Û"/><glyph d="M629 -33q-147 0 -242.5 44t-153 124t-80 189.5t-22.5 240.5v875h129v-846q0 -145 22.5 -243.5t68.5 -157t117 -83t165 -24.5t163.5 24.5t115.5 83t70 155.5t24 243v848h129v-877q0 -131 -24 -240.5t-82 -188.5t-155.5 -123t-244.5 -44zM344 1708q0 49 29 78t69 29 q43 0 71 -29t28 -78q0 -47 -28 -76.5t-71 -29.5q-41 0 -69.5 29.5t-28.5 76.5zM750 1708q0 49 28.5 78t69.5 29q43 0 71.5 -29t28.5 -78q0 -47 -28.5 -76.5t-71.5 -29.5q-41 0 -69.5 29.5t-28.5 76.5z" horiz-adv-x="1265" unicode="Ü"/><glyph d="M459 629l-453 811h148l374 -688l383 688h140l-463 -807v-633h-129v629zM805 1882l54 -119l-478 -202l-41 94z" horiz-adv-x="1056" unicode="Ý"/><glyph d="M1010 733q0 -98 -33 -179t-92.5 -138.5t-145.5 -89t-192 -31.5h-271v-295h-124v1440h124v-269h279q104 0 188 -29.5t143.5 -86t91.5 -138.5t32 -184zM879 733q0 166 -87 245t-247 79h-269v-647h261q166 0 254 83.5t88 239.5z" horiz-adv-x="1077" unicode="Þ"/><glyph d="M750 78q117 0 176 58.5t59 154.5q0 41 -11 72.5t-36 59.5t-66 52.5t-98 52.5q-125 59 -174 111.5t-49 132.5q0 76 43 131t96 107q47 47 83 97t36 122q0 98 -73.5 155.5t-190.5 57.5q-147 0 -220 -106.5t-73 -313.5v-1022h-123v1030q0 109 21.5 204t71.5 165.5t131 110.5 t198 40q90 0 160.5 -25.5t120 -69.5t75 -100.5t25.5 -117.5q0 -86 -36 -146.5t-91 -117.5q-51 -51 -91 -94t-40 -99q0 -31 15.5 -51t42 -38.5t61 -35t73.5 -37.5q61 -33 106.5 -64.5t75 -70.5t45 -85t15.5 -107q0 -66 -22.5 -123t-67.5 -100t-111.5 -69t-154.5 -26 q-43 0 -85 6.5t-81 16.5t-69 22.5t-48 24.5l43 98q49 -29 114 -46t124 -17z" horiz-adv-x="1167" unicode="ß"/><glyph d="M743 492q-16 4 -45.5 9t-68.5 9t-84 7t-88 3q-152 0 -212.5 -63.5t-60.5 -169.5q0 -109 67.5 -158t176.5 -49q61 0 118.5 24.5t101.5 65.5t69.5 93t25.5 108v121zM381 -25q-53 0 -109.5 16.5t-102.5 53.5t-76 96.5t-30 145.5q0 152 95.5 245t287.5 93q45 0 92.5 -3.5 t87.5 -8.5t70.5 -10t46.5 -7v90q0 133 -75.5 190.5t-216.5 57.5q-100 0 -171 -25.5t-112 -48.5l-41 94q39 23 127 54.5t227 31.5q180 0 279.5 -85t99.5 -259v-696h-110l-5 145q-31 -49 -72.5 -81.5t-91 -52t-101.5 -28t-99 -8.5zM749 1294l-47 -92l-462 217l57 115z" horiz-adv-x="987" unicode="à"/><glyph d="M743 492q-16 4 -45.5 9t-68.5 9t-84 7t-88 3q-152 0 -212.5 -63.5t-60.5 -169.5q0 -109 67.5 -158t176.5 -49q61 0 118.5 24.5t101.5 65.5t69.5 93t25.5 108v121zM381 -25q-53 0 -109.5 16.5t-102.5 53.5t-76 96.5t-30 145.5q0 152 95.5 245t287.5 93q45 0 92.5 -3.5 t87.5 -8.5t70.5 -10t46.5 -7v90q0 133 -75.5 190.5t-216.5 57.5q-100 0 -171 -25.5t-112 -48.5l-41 94q39 23 127 54.5t227 31.5q180 0 279.5 -85t99.5 -259v-696h-110l-5 145q-31 -49 -72.5 -81.5t-91 -52t-101.5 -28t-99 -8.5zM686 1534l57 -115l-462 -217l-48 92z" horiz-adv-x="987" unicode="á"/><glyph d="M743 492q-16 4 -45.5 9t-68.5 9t-84 7t-88 3q-152 0 -212.5 -63.5t-60.5 -169.5q0 -109 67.5 -158t176.5 -49q61 0 118.5 24.5t101.5 65.5t69.5 93t25.5 108v121zM381 -25q-53 0 -109.5 16.5t-102.5 53.5t-76 96.5t-30 145.5q0 152 95.5 245t287.5 93q45 0 92.5 -3.5 t87.5 -8.5t70.5 -10t46.5 -7v90q0 133 -75.5 190.5t-216.5 57.5q-100 0 -171 -25.5t-112 -48.5l-41 94q39 23 127 54.5t227 31.5q180 0 279.5 -85t99.5 -259v-696h-110l-5 145q-31 -49 -72.5 -81.5t-91 -52t-101.5 -28t-99 -8.5zM168 1253l278 258h99l278 -258l-72 -67 l-256 203l-256 -203z" horiz-adv-x="987" unicode="â"/><glyph d="M743 492q-16 4 -45.5 9t-68.5 9t-84 7t-88 3q-152 0 -212.5 -63.5t-60.5 -169.5q0 -109 67.5 -158t176.5 -49q61 0 118.5 24.5t101.5 65.5t69.5 93t25.5 108v121zM381 -25q-53 0 -109.5 16.5t-102.5 53.5t-76 96.5t-30 145.5q0 152 95.5 245t287.5 93q45 0 92.5 -3.5 t87.5 -8.5t70.5 -10t46.5 -7v90q0 133 -75.5 190.5t-216.5 57.5q-100 0 -171 -25.5t-112 -48.5l-41 94q39 23 127 54.5t227 31.5q180 0 279.5 -85t99.5 -259v-696h-110l-5 145q-31 -49 -72.5 -81.5t-91 -52t-101.5 -28t-99 -8.5zM338 1421q51 0 89 -18.5t69.5 -42t63.5 -42 t70 -18.5q51 0 72 32t21 87h108q0 -111 -51 -169t-150 -58q-49 0 -85.5 18.5t-70.5 41t-64.5 41t-67.5 18.5q-51 0 -73 -31t-22 -86h-108q0 106 50.5 166.5t148.5 60.5z" horiz-adv-x="987" unicode="ã"/><glyph d="M743 492q-16 4 -45.5 9t-68.5 9t-84 7t-88 3q-152 0 -212.5 -63.5t-60.5 -169.5q0 -109 67.5 -158t176.5 -49q61 0 118.5 24.5t101.5 65.5t69.5 93t25.5 108v121zM381 -25q-53 0 -109.5 16.5t-102.5 53.5t-76 96.5t-30 145.5q0 152 95.5 245t287.5 93q45 0 92.5 -3.5 t87.5 -8.5t70.5 -10t46.5 -7v90q0 133 -75.5 190.5t-216.5 57.5q-100 0 -171 -25.5t-112 -48.5l-41 94q39 23 127 54.5t227 31.5q180 0 279.5 -85t99.5 -259v-696h-110l-5 145q-31 -49 -72.5 -81.5t-91 -52t-101.5 -28t-99 -8.5zM193 1311q0 47 27.5 74.5t68.5 27.5 t67.5 -27.5t26.5 -74.5t-26.5 -75t-67.5 -28t-68.5 28t-27.5 75zM603 1311q0 47 26.5 74.5t67.5 27.5t68.5 -27.5t27.5 -74.5t-27.5 -75t-68.5 -28t-67.5 28t-26.5 75z" horiz-adv-x="987" unicode="ä"/><glyph d="M743 492q-16 4 -45.5 9t-68.5 9t-84 7t-88 3q-152 0 -212.5 -63.5t-60.5 -169.5q0 -109 67.5 -158t176.5 -49q61 0 118.5 24.5t101.5 65.5t69.5 93t25.5 108v121zM381 -25q-53 0 -109.5 16.5t-102.5 53.5t-76 96.5t-30 145.5q0 152 95.5 245t287.5 93q45 0 92.5 -3.5 t87.5 -8.5t70.5 -10t46.5 -7v90q0 133 -75.5 190.5t-216.5 57.5q-100 0 -171 -25.5t-112 -48.5l-41 94q39 23 127 54.5t227 31.5q180 0 279.5 -85t99.5 -259v-696h-110l-5 145q-31 -49 -72.5 -81.5t-91 -52t-101.5 -28t-99 -8.5zM712 1380q0 -98 -60 -154.5t-155 -56.5 q-96 0 -157.5 56.5t-61.5 152.5q0 98 63.5 154.5t155.5 56.5q96 0 155.5 -56.5t59.5 -152.5zM620 1378q0 59 -34.5 93t-90.5 34q-51 0 -87 -32.5t-36 -94.5q0 -59 35 -93t88 -34q55 0 90 34t35 93z" horiz-adv-x="987" unicode="å"/><glyph d="M1241 88q92 0 157.5 20.5t104.5 36.5l37 -96q-31 -20 -112.5 -46t-198.5 -26q-162 0 -266.5 63.5t-157.5 174.5q-72 -139 -179.5 -189.5t-244.5 -50.5q-53 0 -109.5 16.5t-102.5 53.5t-76 96.5t-30 145.5q0 152 95.5 245t287.5 93q45 0 92.5 -3.5t87.5 -8.5t70.5 -10 t46.5 -7v68q0 133 -75.5 201.5t-216.5 68.5q-100 0 -171 -25.5t-112 -48.5l-41 94q39 23 127 54.5t227 31.5q129 0 218 -52t130 -150q53 98 142.5 151t214.5 53q98 0 176 -29.5t132 -95t83 -169t29 -248.5v-25h-746q10 -182 101.5 -284.5t279.5 -102.5zM743 492 q-16 4 -45.5 9t-68.5 9t-84 7t-88 3q-152 0 -212.5 -63.5t-60.5 -169.5q0 -109 67.5 -159t176.5 -50q61 0 118.5 24.5t101.5 65.5t69.5 93t25.5 108v123zM1485 580q-10 170 -79 262t-222 92q-154 0 -229.5 -94.5t-92.5 -259.5h623z" horiz-adv-x="1691" unicode="æ"/><glyph d="M621 -281q0 94 -154 95q-29 0 -61 -7l36 179q-170 33 -261 166t-91 356q0 119 32 217t91 169t143 109.5t191 38.5q63 0 113.5 -10t88 -25.5t62.5 -33t41 -29.5l-57 -92q-29 20 -89.5 50t-152.5 30q-147 0 -242.5 -104.5t-95.5 -317.5q0 -111 25.5 -189.5t69.5 -131 t106.5 -77t136.5 -24.5q94 0 153.5 20.5t96.5 38.5l45 -90q-14 -10 -40 -24.5t-62.5 -26.5t-87 -20.5t-115.5 -8.5l-17 -77q98 -8 150.5 -54.5t52.5 -119.5q0 -96 -71.5 -149.5t-180.5 -53.5q-86 0 -134 15.5t-58 19.5l22 86q35 -10 72 -20.5t82 -10.5q72 0 116 26.5 t44 79.5z" horiz-adv-x="888" unicode="ç"/><glyph d="M592 88q92 0 157.5 20.5t104.5 36.5l37 -96q-31 -20 -113 -46t-198 -26q-248 0 -369 138.5t-121 392.5q0 121 31 220t88 169t140 107.5t188 37.5q98 0 176 -29.5t132 -96t82.5 -170t28.5 -250.5v-25h-745q10 -178 101.5 -280.5t279.5 -102.5zM836 575q-10 170 -78 264.5 t-223 94.5q-154 0 -230 -94.5t-92 -264.5h623zM821 1294l-47 -92l-462 217l57 115z" horiz-adv-x="1042" unicode="è"/><glyph d="M592 88q92 0 157.5 20.5t104.5 36.5l37 -96q-31 -20 -113 -46t-198 -26q-248 0 -369 138.5t-121 392.5q0 121 31 220t88 169t140 107.5t188 37.5q98 0 176 -29.5t132 -96t82.5 -170t28.5 -250.5v-25h-745q10 -178 101.5 -280.5t279.5 -102.5zM836 575q-10 170 -78 264.5 t-223 94.5q-154 0 -230 -94.5t-92 -264.5h623zM739 1534l57 -115l-462 -217l-48 92z" horiz-adv-x="1042" unicode="é"/><glyph d="M592 88q92 0 157.5 20.5t104.5 36.5l37 -96q-31 -20 -113 -46t-198 -26q-248 0 -369 138.5t-121 392.5q0 121 31 220t88 169t140 107.5t188 37.5q98 0 176 -29.5t132 -96t82.5 -170t28.5 -250.5v-25h-745q10 -178 101.5 -280.5t279.5 -102.5zM836 575q-10 170 -78 264.5 t-223 94.5q-154 0 -230 -94.5t-92 -264.5h623zM219 1253l278 258h99l278 -258l-72 -67l-256 203l-256 -203z" horiz-adv-x="1042" unicode="ê"/><glyph d="M592 88q92 0 157.5 20.5t104.5 36.5l37 -96q-31 -20 -113 -46t-198 -26q-248 0 -369 138.5t-121 392.5q0 121 31 220t88 169t140 107.5t188 37.5q98 0 176 -29.5t132 -96t82.5 -170t28.5 -250.5v-25h-745q10 -178 101.5 -280.5t279.5 -102.5zM836 575q-10 170 -78 264.5 t-223 94.5q-154 0 -230 -94.5t-92 -264.5h623zM246 1311q0 47 27.5 74.5t68.5 27.5t67.5 -27.5t26.5 -74.5t-26.5 -75t-67.5 -28t-68.5 28t-27.5 75zM656 1311q0 47 26.5 74.5t67.5 27.5t68.5 -27.5t27.5 -74.5t-27.5 -75t-68.5 -28t-67.5 28t-26.5 75z" horiz-adv-x="1042" unicode="ë"/><glyph d="M135 1016h123v-1016h-123v1016zM456 1294l-47 -92l-462 217l57 115z" horiz-adv-x="395" unicode="ì"/><glyph d="M135 1016h123v-1016h-123v1016zM414 1534l57 -115l-462 -217l-48 92z" horiz-adv-x="395" unicode="í"/><glyph d="M135 1016h123v-1016h-123v1016zM-121 1253l278 258h99l278 -258l-72 -67l-256 203l-256 -203z" horiz-adv-x="395" unicode="î"/><glyph d="M135 1016h123v-1016h-123v1016zM-104 1311q0 47 27.5 74.5t68.5 27.5t67.5 -27.5t26.5 -74.5t-26.5 -75t-67.5 -28t-68.5 28t-27.5 75zM306 1311q0 47 26.5 74.5t67.5 27.5t68.5 -27.5t27.5 -74.5t-27.5 -75t-68.5 -28t-67.5 28t-26.5 75z" horiz-adv-x="395" unicode="ï"/><glyph d="M688 1366q158 -129 233.5 -319.5t75.5 -421.5q0 -152 -25.5 -273t-80.5 -205t-141 -129t-207 -45q-227 0 -338 133.5t-111 364.5q0 111 32 200t89 150.5t135 94t168 32.5q115 0 203 -40t141 -126q-27 322 -260 512l-213 -178l-63 72l198 162q-55 37 -118.5 66.5 t-131.5 51.5l33 97q88 -29 167 -67t136 -79l183 152l61 -74zM543 84q160 0 238.5 102.5t78.5 294.5q0 70 -21.5 134.5t-63.5 114.5t-102.5 80t-137.5 30q-162 0 -240 -102.5t-78 -268.5q0 -193 80 -289t246 -96z" horiz-adv-x="1079" unicode="ð"/><glyph d="M242 1016l4 -182q47 98 138 153t220 55q176 0 264 -96t88 -282v-664h-120v647q0 80 -19.5 135.5t-53.5 88t-80 47t-101 14.5q-84 0 -146.5 -38t-103.5 -98.5t-61.5 -136t-20.5 -153.5v-506h-121v1016h113zM402 1421q51 0 89 -18.5t69.5 -42t63.5 -42t70 -18.5q51 0 72 32 t21 87h108q0 -111 -51 -169t-150 -58q-49 0 -85.5 18.5t-70.5 41t-64.5 41t-67.5 18.5q-51 0 -73 -31t-22 -86h-108q0 106 50.5 166.5t148.5 60.5z" horiz-adv-x="1077" unicode="ñ"/><glyph d="M557 88q176 0 260 113.5t84 308.5q0 190 -85 306t-259 116q-172 0 -257 -116t-85 -306q0 -195 84 -308.5t258 -113.5zM557 1042q117 0 204 -39.5t145.5 -110.5t88 -168t29.5 -214t-30.5 -215t-89 -169t-146.5 -110t-201 -39q-115 0 -203 39t-146 110t-88 169t-30 215 t31 214t89 168t145 110.5t202 39.5zM839 1294l-47 -92l-462 217l57 115z" horiz-adv-x="1116" unicode="ò"/><glyph d="M557 88q176 0 260 113.5t84 308.5q0 190 -85 306t-259 116q-172 0 -257 -116t-85 -306q0 -195 84 -308.5t258 -113.5zM557 1042q117 0 204 -39.5t145.5 -110.5t88 -168t29.5 -214t-30.5 -215t-89 -169t-146.5 -110t-201 -39q-115 0 -203 39t-146 110t-88 169t-30 215 t31 214t89 168t145 110.5t202 39.5zM760 1534l57 -115l-462 -217l-48 92z" horiz-adv-x="1116" unicode="ó"/><glyph d="M557 88q176 0 260 113.5t84 308.5q0 190 -85 306t-259 116q-172 0 -257 -116t-85 -306q0 -195 84 -308.5t258 -113.5zM557 1042q117 0 204 -39.5t145.5 -110.5t88 -168t29.5 -214t-30.5 -215t-89 -169t-146.5 -110t-201 -39q-115 0 -203 39t-146 110t-88 169t-30 215 t31 214t89 168t145 110.5t202 39.5zM246 1253l278 258h99l278 -258l-72 -67l-256 203l-256 -203z" horiz-adv-x="1116" unicode="ô"/><glyph d="M557 88q176 0 260 113.5t84 308.5q0 190 -85 306t-259 116q-172 0 -257 -116t-85 -306q0 -195 84 -308.5t258 -113.5zM557 1042q117 0 204 -39.5t145.5 -110.5t88 -168t29.5 -214t-30.5 -215t-89 -169t-146.5 -110t-201 -39q-115 0 -203 39t-146 110t-88 169t-30 215 t31 214t89 168t145 110.5t202 39.5zM418 1421q51 0 89 -18.5t69.5 -42t63.5 -42t70 -18.5q51 0 72 32t21 87h108q0 -111 -51 -169t-150 -58q-49 0 -85.5 18.5t-70.5 41t-64.5 41t-67.5 18.5q-51 0 -73 -31t-22 -86h-108q0 106 50.5 166.5t148.5 60.5z" horiz-adv-x="1116" unicode="õ"/><glyph d="M557 88q176 0 260 113.5t84 308.5q0 190 -85 306t-259 116q-172 0 -257 -116t-85 -306q0 -195 84 -308.5t258 -113.5zM557 1042q117 0 204 -39.5t145.5 -110.5t88 -168t29.5 -214t-30.5 -215t-89 -169t-146.5 -110t-201 -39q-115 0 -203 39t-146 110t-88 169t-30 215 t31 214t89 168t145 110.5t202 39.5zM266 1311q0 47 27.5 74.5t68.5 27.5t67.5 -27.5t26.5 -74.5t-26.5 -75t-67.5 -28t-68.5 28t-27.5 75zM676 1311q0 47 26.5 74.5t67.5 27.5t68.5 -27.5t27.5 -74.5t-27.5 -75t-68.5 -28t-67.5 28t-26.5 75z" horiz-adv-x="1116" unicode="ö"/><glyph d="M532 272q-43 0 -71.5 30t-28.5 77t28.5 76.5t71.5 29.5q41 0 70 -29.5t29 -76.5t-29 -77t-70 -30zM432 1061q0 47 28.5 76.5t71.5 29.5q41 0 70 -29.5t29 -76.5q0 -45 -29 -76t-70 -31q-43 0 -71.5 30t-28.5 77zM100 778h865v-108h-865v108z" horiz-adv-x="1064" unicode="÷"/><glyph d="M557 1042q156 0 264 -73l94 135l78 -53l-100 -144q66 -72 98.5 -173t32.5 -224q0 -117 -30.5 -215t-89 -169t-146.5 -110t-201 -39q-78 0 -144.5 18.5t-119.5 53.5l-88 -127l-80 51l96 138q-66 72 -98.5 174t-32.5 225q0 117 31 214t89 168t145 110.5t202 39.5zM215 510 q0 -190 76 -297l463 661q-80 57 -197 58q-172 0 -257 -114.5t-85 -307.5zM557 88q86 0 150.5 29.5t107.5 84t64.5 129.5t21.5 167q0 51 -4 92t-13.5 78t-23.5 70.5t-37 68.5l-463 -662q80 -57 197 -57z" horiz-adv-x="1116" unicode="ø"/><glyph d="M834 1016h120v-1016h-112l-4 188q-49 -98 -138.5 -155.5t-230.5 -57.5q-168 0 -254 95.5t-86 281.5v664h121v-647q0 -80 18.5 -134.5t52 -87t79.5 -47t102 -14.5q80 0 141.5 37t104.5 96.5t64.5 134t21.5 152.5v510zM782 1294l-47 -92l-462 217l57 115z" horiz-adv-x="1083" unicode="ù"/><glyph d="M834 1016h120v-1016h-112l-4 188q-49 -98 -138.5 -155.5t-230.5 -57.5q-168 0 -254 95.5t-86 281.5v664h121v-647q0 -80 18.5 -134.5t52 -87t79.5 -47t102 -14.5q80 0 141.5 37t104.5 96.5t64.5 134t21.5 152.5v510zM768 1534l57 -115l-462 -217l-48 92z" horiz-adv-x="1083" unicode="ú"/><glyph d="M834 1016h120v-1016h-112l-4 188q-49 -98 -138.5 -155.5t-230.5 -57.5q-168 0 -254 95.5t-86 281.5v664h121v-647q0 -80 18.5 -134.5t52 -87t79.5 -47t102 -14.5q80 0 141.5 37t104.5 96.5t64.5 134t21.5 152.5v510zM226 1253l278 258h99l278 -258l-72 -67l-256 203 l-256 -203z" horiz-adv-x="1083" unicode="û"/><glyph d="M834 1016h120v-1016h-112l-4 188q-49 -98 -138.5 -155.5t-230.5 -57.5q-168 0 -254 95.5t-86 281.5v664h121v-647q0 -80 18.5 -134.5t52 -87t79.5 -47t102 -14.5q80 0 141.5 37t104.5 96.5t64.5 134t21.5 152.5v510zM244 1311q0 47 27.5 74.5t68.5 27.5t67.5 -27.5 t26.5 -74.5t-26.5 -75t-67.5 -28t-68.5 28t-27.5 75zM654 1311q0 47 26.5 74.5t67.5 27.5t68.5 -27.5t27.5 -74.5t-27.5 -75t-68.5 -28t-67.5 28t-26.5 75z" horiz-adv-x="1083" unicode="ü"/><glyph d="M8 1016h139l322 -819l328 819h133l-613 -1467h-127l211 500zM721 1534l57 -115l-462 -217l-48 92z" horiz-adv-x="937" unicode="ý"/><glyph d="M590 932q-98 0 -164 -39t-104.5 -101.5t-55 -142.5t-16.5 -160v-268q14 -18 45 -40.5t73 -42t93 -32t108 -12.5q145 0 236.5 104.5t91.5 323.5q0 88 -18.5 163t-56.5 130t-95 86t-137 31zM606 1042q104 0 182 -39.5t130.5 -109.5t78 -165t25.5 -206q0 -150 -40 -252 t-103.5 -165.5t-142.5 -91t-158 -27.5q-100 0 -183.5 28.5t-144.5 67.5v-533h-121v1987h121v-690q45 92 136 144t220 52z" horiz-adv-x="1112" unicode="þ"/><glyph d="M8 1016h139l322 -819l328 819h133l-613 -1467h-127l211 500zM178 1311q0 47 27.5 74.5t68.5 27.5t67.5 -27.5t26.5 -74.5t-26.5 -75t-67.5 -28t-68.5 28t-27.5 75zM588 1311q0 47 26.5 74.5t67.5 27.5t68.5 -27.5t27.5 -74.5t-27.5 -75t-68.5 -28t-67.5 28t-26.5 75z" horiz-adv-x="937" unicode="ÿ"/><glyph d="M856 401h-588l-131 -401h-131l481 1440h152l483 -1440h-137zM303 514h516l-256 776zM260 1640v111h602v-111h-602z" horiz-adv-x="1128" unicode="Ā"/><glyph d="M743 492q-16 4 -45.5 9t-68.5 9t-84 7t-88 3q-152 0 -212.5 -63.5t-60.5 -169.5q0 -109 67.5 -158t176.5 -49q61 0 118.5 24.5t101.5 65.5t69.5 93t25.5 108v121zM381 -25q-53 0 -109.5 16.5t-102.5 53.5t-76 96.5t-30 145.5q0 152 95.5 245t287.5 93q45 0 92.5 -3.5 t87.5 -8.5t70.5 -10t46.5 -7v90q0 133 -75.5 190.5t-216.5 57.5q-100 0 -171 -25.5t-112 -48.5l-41 94q39 23 127 54.5t227 31.5q180 0 279.5 -85t99.5 -259v-696h-110l-5 145q-31 -49 -72.5 -81.5t-91 -52t-101.5 -28t-99 -8.5zM204 1257v109h582v-109h-582z" horiz-adv-x="987" unicode="ā"/><glyph d="M856 401h-588l-131 -401h-131l481 1440h152l483 -1440h-137zM303 514h516l-256 776zM563 1659q88 0 137.5 49t49.5 143h114q0 -59 -18 -112t-55 -95t-94.5 -67t-137.5 -25t-137 25t-94 65.5t-54.5 95t-17.5 113.5h119q0 -94 51 -143t137 -49z" horiz-adv-x="1128" unicode="Ă"/><glyph d="M743 492q-16 4 -45.5 9t-68.5 9t-84 7t-88 3q-152 0 -212.5 -63.5t-60.5 -169.5q0 -109 67.5 -158t176.5 -49q61 0 118.5 24.5t101.5 65.5t69.5 93t25.5 108v121zM381 -25q-53 0 -109.5 16.5t-102.5 53.5t-76 96.5t-30 145.5q0 152 95.5 245t287.5 93q45 0 92.5 -3.5 t87.5 -8.5t70.5 -10t46.5 -7v90q0 133 -75.5 190.5t-216.5 57.5q-100 0 -171 -25.5t-112 -48.5l-41 94q39 23 127 54.5t227 31.5q180 0 279.5 -85t99.5 -259v-696h-110l-5 145q-31 -49 -72.5 -81.5t-91 -52t-101.5 -28t-99 -8.5zM510 1280q88 0 136 45t48 139h111 q0 -59 -17.5 -110t-53 -91t-92 -62.5t-134.5 -22.5q-80 0 -136 22.5t-92 61t-52.5 91t-16.5 111.5h115q0 -94 49 -139t135 -45z" horiz-adv-x="987" unicode="ă"/><glyph d="M856 401h-588l-129 -401h-133l481 1440h152l483 -1440q-55 -41 -97 -90t-42 -107q0 -86 109 -86q27 0 36 2v-90q-14 -2 -26 -3t-33 -1q-94 0 -147.5 42t-53.5 110q0 72 37 124t96 99h-14zM303 514h516l-256 774z" horiz-adv-x="1128" unicode="Ą"/><glyph d="M381 -25q-53 0 -109.5 16.5t-102.5 53.5t-76 96.5t-30 145.5q0 152 95.5 245t287.5 93q45 0 92.5 -3.5t87.5 -8.5t70.5 -10t46.5 -7v90q0 133 -75.5 190.5t-216.5 57.5q-100 0 -171 -25.5t-112 -48.5l-41 94q39 23 127 54.5t227 31.5q180 0 279.5 -85t99.5 -259v-696 q-55 -41 -96 -90t-41 -107q0 -41 24.5 -63.5t83.5 -22.5q27 0 35 2v-84q-14 -2 -22 -3t-29 -1q-86 0 -143.5 35t-57.5 117q0 66 37 118t99 99l-5 145q-31 -49 -72.5 -81.5t-91 -52t-101.5 -28t-99 -8.5zM743 492q-16 4 -45.5 9t-68.5 9t-84 7t-88 3q-152 0 -212.5 -63.5 t-60.5 -169.5q0 -109 67.5 -158t176.5 -49q61 0 118.5 24.5t101.5 65.5t69.5 93t25.5 108v121z" horiz-adv-x="987" unicode="ą"/><glyph d="M723 1346q-231 0 -358 -161t-127 -472q0 -324 127 -471.5t358 -147.5q68 0 124 12.5t102 31t83 41t64 42.5l61 -94q-70 -59 -183.5 -104.5t-258.5 -45.5q-313 0 -463 190.5t-150 545.5q0 168 38 306t115 236.5t192.5 152.5t271.5 54q84 0 153.5 -16t123 -40t91 -49.5 t60.5 -45.5l-68 -97q-27 20 -60.5 44t-77.5 43.5t-98 32t-120 12.5zM899 1882l54 -119l-478 -202l-41 94z" horiz-adv-x="1208" unicode="Ć"/><glyph d="M215 510q0 -111 25.5 -189.5t69.5 -131t106.5 -77t136.5 -24.5q94 0 153.5 20.5t96.5 38.5l45 -90q-29 -23 -101.5 -51.5t-201.5 -28.5q-217 0 -336 137.5t-119 393.5q0 119 32 217t91 169t143 109.5t191 38.5q63 0 113.5 -10t88 -25.5t62.5 -33t41 -29.5l-57 -92 q-29 20 -89.5 50t-152.5 30q-147 0 -242.5 -104.5t-95.5 -317.5zM709 1534l57 -115l-462 -217l-48 92z" horiz-adv-x="888" unicode="ć"/><glyph d="M723 1346q-231 0 -358 -161t-127 -472q0 -324 127 -471.5t358 -147.5q68 0 124 12.5t102 31t83 41t64 42.5l61 -94q-70 -59 -183.5 -104.5t-258.5 -45.5q-313 0 -463 190.5t-150 545.5q0 168 38 306t115 236.5t192.5 152.5t271.5 54q84 0 153.5 -16t123 -40t91 -49.5 t60.5 -45.5l-68 -97q-27 20 -60.5 44t-77.5 43.5t-98 32t-120 12.5zM993 1559l-279 200l-278 -200l-70 71l293 252h111l293 -252z" horiz-adv-x="1208" unicode="Ĉ"/><glyph d="M215 510q0 -111 25.5 -189.5t69.5 -131t106.5 -77t136.5 -24.5q94 0 153.5 20.5t96.5 38.5l45 -90q-29 -23 -101.5 -51.5t-201.5 -28.5q-217 0 -336 137.5t-119 393.5q0 119 32 217t91 169t143 109.5t191 38.5q63 0 113.5 -10t88 -25.5t62.5 -33t41 -29.5l-57 -92 q-29 20 -89.5 50t-152.5 30q-147 0 -242.5 -104.5t-95.5 -317.5zM207 1253l278 258h99l278 -258l-72 -67l-256 203l-256 -203z" horiz-adv-x="888" unicode="ĉ"/><glyph d="M723 1346q-231 0 -358 -161t-127 -472q0 -324 127 -471.5t358 -147.5q68 0 124 12.5t102 31t83 41t64 42.5l61 -94q-70 -59 -183.5 -104.5t-258.5 -45.5q-313 0 -463 190.5t-150 545.5q0 168 38 306t115 236.5t192.5 152.5t271.5 54q84 0 153.5 -16t123 -40t91 -49.5 t60.5 -45.5l-68 -97q-27 20 -60.5 44t-77.5 43.5t-98 32t-120 12.5zM614 1698q0 47 28.5 75.5t69.5 28.5t67.5 -28.5t26.5 -75.5t-26.5 -74t-67.5 -27t-69.5 27t-28.5 74z" horiz-adv-x="1208" unicode="Ċ"/><glyph d="M215 510q0 -111 25.5 -189.5t69.5 -131t106.5 -77t136.5 -24.5q94 0 153.5 20.5t96.5 38.5l45 -90q-29 -23 -101.5 -51.5t-201.5 -28.5q-217 0 -336 137.5t-119 393.5q0 119 32 217t91 169t143 109.5t191 38.5q63 0 113.5 -10t88 -25.5t62.5 -33t41 -29.5l-57 -92 q-29 20 -89.5 50t-152.5 30q-147 0 -242.5 -104.5t-95.5 -317.5zM461 1311q0 45 26.5 72.5t67.5 27.5t65.5 -27.5t24.5 -72.5t-24.5 -72t-65.5 -27t-67.5 27t-26.5 72z" horiz-adv-x="888" unicode="ċ"/><glyph d="M723 1346q-231 0 -358 -161t-127 -472q0 -324 127 -471.5t358 -147.5q68 0 124 12.5t102 31t83 41t64 42.5l61 -94q-70 -59 -183.5 -104.5t-258.5 -45.5q-313 0 -463 190.5t-150 545.5q0 168 38 306t115 236.5t192.5 152.5t271.5 54q84 0 153.5 -16t123 -40t91 -49.5 t60.5 -45.5l-68 -97q-27 20 -60.5 44t-77.5 43.5t-98 32t-120 12.5zM659 1561l-293 249l70 74l278 -203l279 203l70 -74l-293 -249h-111z" horiz-adv-x="1208" unicode="Č"/><glyph d="M215 510q0 -111 25.5 -189.5t69.5 -131t106.5 -77t136.5 -24.5q94 0 153.5 20.5t96.5 38.5l45 -90q-29 -23 -101.5 -51.5t-201.5 -28.5q-217 0 -336 137.5t-119 393.5q0 119 32 217t91 169t143 109.5t191 38.5q63 0 113.5 -10t88 -25.5t62.5 -33t41 -29.5l-57 -92 q-29 20 -89.5 50t-152.5 30q-147 0 -242.5 -104.5t-95.5 -317.5zM559 1307l254 202l72 -67l-276 -258h-101l-278 258l73 67z" horiz-adv-x="888" unicode="č"/><glyph d="M580 1440q311 0 475 -188.5t164 -532.5q0 -174 -44.5 -308.5t-127 -225.5t-201.5 -138t-266 -47h-428v1440h428zM580 119q233 0 369 153.5t136 448.5q0 309 -136 454.5t-369 145.5h-299v-1202h299zM561 1561l-293 249l70 74l278 -203l279 203l70 -74l-293 -249h-111z" horiz-adv-x="1323" unicode="Ď"/><glyph d="M526 932q-80 0 -138 -33t-96 -89t-56.5 -134t-18.5 -168q0 -213 87 -312.5t231 -99.5q63 0 116.5 15.5t95 40t71.5 54.5t48 58v228q0 209 -88 324.5t-252 115.5zM872 123q-59 -59 -145 -98t-209 -39q-80 0 -156.5 25.5t-137 86t-96.5 160.5t-36 250q0 100 25.5 196.5 t78 172t134.5 120.5t196 45q121 0 205 -47t135 -137v678h121v-1536h-113zM1143 1436q0 53 29.5 81.5t70.5 28.5q49 0 74.5 -34.5t25.5 -92.5q0 -55 -21.5 -118.5t-50 -120t-56 -99.5t-40.5 -55l-69 45q12 23 29.5 59.5t35 75.5t29.5 76t16 61q-23 6 -48 32t-25 61z" horiz-adv-x="1282" unicode="ď"/><glyph d="M20 788h158v652h428q311 0 475 -188.5t164 -532.5q0 -174 -44 -308.5t-127 -225.5t-201.5 -138t-266.5 -47h-428v678h-158v110zM606 119q233 0 369.5 153.5t136.5 448.5q0 309 -136 454.5t-370 145.5h-299v-533h332v-110h-332v-559h299z" horiz-adv-x="1349" unicode="Đ"/><glyph d="M872 123q-59 -59 -145 -98t-209 -39q-80 0 -156.5 25.5t-137 86t-96.5 160.5t-36 250q0 100 25.5 196.5t78 172t134.5 120.5t196 45q121 0 205 -47t135 -137v373h-409v102h409v203h121v-203h137v-102h-137v-1231h-113zM526 932q-80 0 -138 -33t-96 -89t-56.5 -134 t-18.5 -168q0 -213 87 -312.5t231 -99.5q63 0 116.5 15.5t95 40t71.5 54.5t48 58v228q0 209 -88 324.5t-252 115.5z" horiz-adv-x="1132" unicode="đ"/><glyph d="M152 1440h794v-119h-665v-512h520v-119h-520v-571h686v-119h-815v1440zM258 1640v111h602v-111h-602z" horiz-adv-x="1017" unicode="Ē"/><glyph d="M592 88q92 0 157.5 20.5t104.5 36.5l37 -96q-31 -20 -113 -46t-198 -26q-248 0 -369 138.5t-121 392.5q0 121 31 220t88 169t140 107.5t188 37.5q98 0 176 -29.5t132 -96t82.5 -170t28.5 -250.5v-25h-745q10 -178 101.5 -280.5t279.5 -102.5zM836 575q-10 170 -78 264.5 t-223 94.5q-154 0 -230 -94.5t-92 -264.5h623zM249 1257v109h582v-109h-582z" horiz-adv-x="1042" unicode="ē"/><glyph d="M152 1440h794v-119h-665v-512h520v-119h-520v-571h686v-119h-815v1440zM563 1659q88 0 137.5 49t49.5 143h114q0 -59 -18 -112t-55 -95t-94.5 -67t-137.5 -25t-137 25t-94 65.5t-54.5 95t-17.5 113.5h119q0 -94 51 -143t137 -49z" horiz-adv-x="1017" unicode="Ĕ"/><glyph d="M592 88q92 0 157.5 20.5t104.5 36.5l37 -96q-31 -20 -113 -46t-198 -26q-248 0 -369 138.5t-121 392.5q0 121 31 220t88 169t140 107.5t188 37.5q98 0 176 -29.5t132 -96t82.5 -170t28.5 -250.5v-25h-745q10 -178 101.5 -280.5t279.5 -102.5zM836 575q-10 170 -78 264.5 t-223 94.5q-154 0 -230 -94.5t-92 -264.5h623zM551 1280q88 0 136 45t48 139h111q0 -59 -17.5 -110t-53 -91t-92 -62.5t-134.5 -22.5q-80 0 -136 22.5t-92 61t-52.5 91t-16.5 111.5h115q0 -94 49 -139t135 -45z" horiz-adv-x="1042" unicode="ĕ"/><glyph d="M152 1440h794v-119h-665v-512h520v-119h-520v-571h686v-119h-815v1440zM471 1698q0 47 28.5 75.5t69.5 28.5t67.5 -28.5t26.5 -75.5t-26.5 -74t-67.5 -27t-69.5 27t-28.5 74z" horiz-adv-x="1017" unicode="Ė"/><glyph d="M592 88q92 0 157.5 20.5t104.5 36.5l37 -96q-31 -20 -113 -46t-198 -26q-248 0 -369 138.5t-121 392.5q0 121 31 220t88 169t140 107.5t188 37.5q98 0 176 -29.5t132 -96t82.5 -170t28.5 -250.5v-25h-745q10 -178 101.5 -280.5t279.5 -102.5zM836 575q-10 170 -78 264.5 t-223 94.5q-154 0 -230 -94.5t-92 -264.5h623zM448 1311q0 45 26.5 72.5t67.5 27.5t65.5 -27.5t24.5 -72.5t-24.5 -72t-65.5 -27t-67.5 27t-26.5 72z" horiz-adv-x="1042" unicode="ė"/><glyph d="M152 1440h794v-119h-665v-512h520v-119h-520v-571h686v-119q-55 -41 -97.5 -90t-42.5 -107q0 -86 109 -86q27 0 37 2v-90q-14 -2 -26.5 -3t-33.5 -1q-94 0 -147 42t-53 110q0 72 37.5 124t97.5 99h-696v1440z" horiz-adv-x="1017" unicode="Ę"/><glyph d="M768 -365q-14 -2 -22.5 -3t-28.5 -1q-86 0 -143.5 35t-57.5 117q0 59 28.5 107.5t78.5 89.5q-10 -2 -21.5 -2.5t-21.5 -0.5q-248 0 -369 138.5t-121 392.5q0 121 31 220t88 169t140 107.5t188 37.5q98 0 176 -29.5t132 -96t82.5 -170t28.5 -250.5v-25h-745 q10 -178 101 -280.5t280 -102.5q92 0 157.5 20.5t104.5 36.5l37 -96q-16 -10 -50 -24.5t-81 -26.5q-55 -41 -95 -89t-40 -106q0 -41 24.5 -63.5t83.5 -22.5q27 0 35 2v-84zM836 575q-10 174 -79 266.5t-222 92.5q-154 0 -230 -94.5t-92 -264.5h623z" horiz-adv-x="1042" unicode="ę"/><glyph d="M152 1440h794v-119h-665v-512h520v-119h-520v-571h686v-119h-815v1440zM516 1561l-293 249l70 74l278 -203l279 203l70 -74l-293 -249h-111z" horiz-adv-x="1017" unicode="Ě"/><glyph d="M592 88q92 0 157.5 20.5t104.5 36.5l37 -96q-31 -20 -113 -46t-198 -26q-248 0 -369 138.5t-121 392.5q0 121 31 220t88 169t140 107.5t188 37.5q98 0 176 -29.5t132 -96t82.5 -170t28.5 -250.5v-25h-745q10 -178 101.5 -280.5t279.5 -102.5zM836 575q-10 170 -78 264.5 t-223 94.5q-154 0 -230 -94.5t-92 -264.5h623zM550 1307l254 202l72 -67l-276 -258h-101l-278 258l73 67z" horiz-adv-x="1042" unicode="ě"/><glyph d="M717 1352q-109 0 -198 -39t-151.5 -119t-97 -200t-34.5 -281q0 -328 128 -476.5t379 -148.5q94 0 172 16.5t125 34.5v482h-305v110h426v-665q-18 -10 -56 -26.5t-93.5 -32t-127 -27t-157.5 -11.5q-315 0 -471 188.5t-156 555.5q0 164 38 303t115 240.5t191.5 159 t268.5 57.5q139 0 244.5 -36t189.5 -104l-66 -102q-25 18 -57.5 39.5t-75.5 40t-100 30t-131 11.5zM1000 1559l-279 200l-278 -200l-70 71l293 252h111l293 -252z" horiz-adv-x="1261" unicode="Ĝ"/><glyph d="M811 928q57 -41 86 -106.5t29 -141.5q0 -94 -37 -161.5t-95.5 -112t-129 -66t-138.5 -21.5q-59 0 -120.5 11.5t-116.5 42.5q-29 -27 -52.5 -63t-23.5 -87q0 -59 48 -88t181 -31l226 -4q68 -2 129 -14t109 -40t76 -74t28 -115q0 -68 -33 -128.5t-100.5 -105.5t-169 -71.5 t-236.5 -26.5q-84 0 -159.5 13t-133 46t-92.5 84t-35 129t35 140.5t94 109.5q-35 23 -55.5 61.5t-20.5 96.5q0 63 33 121.5t78 95.5q-47 41 -73.5 106.5t-26.5 153.5q0 94 37.5 161.5t96 111.5t130.5 65.5t139 21.5q41 0 74 -4t60.5 -9t53 -9t54.5 -4h276v-96h-57 q-31 0 -82 2t-86 6zM473 -4q-43 2 -97 3t-104 13q-41 -35 -71.5 -87t-30.5 -115q0 -49 24.5 -85t66.5 -57.5t97.5 -32t116.5 -10.5q188 0 299 58.5t111 156.5q0 29 -8.5 55.5t-32 47t-64.5 34t-106 15.5zM805 684q0 72 -25.5 122t-65.5 81t-90.5 44t-101.5 13t-102 -14.5 t-92 -45t-66.5 -80.5t-25.5 -120q0 -72 25.5 -123t65.5 -83t91 -46t102 -14t101.5 14t91.5 46t66.5 82t25.5 124zM226 1253l278 258h99l278 -258l-72 -67l-256 203l-256 -203z" horiz-adv-x="1052" unicode="ĝ"/><glyph d="M717 1352q-109 0 -198 -39t-151.5 -119t-97 -200t-34.5 -281q0 -328 128 -476.5t379 -148.5q94 0 172 16.5t125 34.5v482h-305v110h426v-665q-18 -10 -56 -26.5t-93.5 -32t-127 -27t-157.5 -11.5q-315 0 -471 188.5t-156 555.5q0 164 38 303t115 240.5t191.5 159 t268.5 57.5q139 0 244.5 -36t189.5 -104l-66 -102q-25 18 -57.5 39.5t-75.5 40t-100 30t-131 11.5zM725 1659q88 0 137.5 49t49.5 143h114q0 -59 -18 -112t-55 -95t-94.5 -67t-137.5 -25t-137 25t-94 65.5t-54.5 95t-17.5 113.5h119q0 -94 51 -143t137 -49z" horiz-adv-x="1261" unicode="Ğ"/><glyph d="M811 928q57 -41 86 -106.5t29 -141.5q0 -94 -37 -161.5t-95.5 -112t-129 -66t-138.5 -21.5q-59 0 -120.5 11.5t-116.5 42.5q-29 -27 -52.5 -63t-23.5 -87q0 -59 48 -88t181 -31l226 -4q68 -2 129 -14t109 -40t76 -74t28 -115q0 -68 -33 -128.5t-100.5 -105.5t-169 -71.5 t-236.5 -26.5q-84 0 -159.5 13t-133 46t-92.5 84t-35 129t35 140.5t94 109.5q-35 23 -55.5 61.5t-20.5 96.5q0 63 33 121.5t78 95.5q-47 41 -73.5 106.5t-26.5 153.5q0 94 37.5 161.5t96 111.5t130.5 65.5t139 21.5q41 0 74 -4t60.5 -9t53 -9t54.5 -4h276v-96h-57 q-31 0 -82 2t-86 6zM473 -4q-43 2 -97 3t-104 13q-41 -35 -71.5 -87t-30.5 -115q0 -49 24.5 -85t66.5 -57.5t97.5 -32t116.5 -10.5q188 0 299 58.5t111 156.5q0 29 -8.5 55.5t-32 47t-64.5 34t-106 15.5zM805 684q0 72 -25.5 122t-65.5 81t-90.5 44t-101.5 13t-102 -14.5 t-92 -45t-66.5 -80.5t-25.5 -120q0 -72 25.5 -123t65.5 -83t91 -46t102 -14t101.5 14t91.5 46t66.5 82t25.5 124zM541 1280q88 0 136 45t48 139h111q0 -59 -17.5 -110t-53 -91t-92 -62.5t-134.5 -22.5q-80 0 -136 22.5t-92 61t-52.5 91t-16.5 111.5h115q0 -94 49 -139 t135 -45z" horiz-adv-x="1052" unicode="ğ"/><glyph d="M717 1352q-109 0 -198 -39t-151.5 -119t-97 -200t-34.5 -281q0 -328 128 -476.5t379 -148.5q94 0 172 16.5t125 34.5v482h-305v110h426v-665q-18 -10 -56 -26.5t-93.5 -32t-127 -27t-157.5 -11.5q-315 0 -471 188.5t-156 555.5q0 164 38 303t115 240.5t191.5 159 t268.5 57.5q139 0 244.5 -36t189.5 -104l-66 -102q-25 18 -57.5 39.5t-75.5 40t-100 30t-131 11.5zM610 1698q0 47 28.5 75.5t69.5 28.5t67.5 -28.5t26.5 -75.5t-26.5 -74t-67.5 -27t-69.5 27t-28.5 74z" horiz-adv-x="1261" unicode="Ġ"/><glyph d="M811 928q57 -41 86 -106.5t29 -141.5q0 -94 -37 -161.5t-95.5 -112t-129 -66t-138.5 -21.5q-59 0 -120.5 11.5t-116.5 42.5q-29 -27 -52.5 -63t-23.5 -87q0 -59 48 -88t181 -31l226 -4q68 -2 129 -14t109 -40t76 -74t28 -115q0 -68 -33 -128.5t-100.5 -105.5t-169 -71.5 t-236.5 -26.5q-84 0 -159.5 13t-133 46t-92.5 84t-35 129t35 140.5t94 109.5q-35 23 -55.5 61.5t-20.5 96.5q0 63 33 121.5t78 95.5q-47 41 -73.5 106.5t-26.5 153.5q0 94 37.5 161.5t96 111.5t130.5 65.5t139 21.5q41 0 74 -4t60.5 -9t53 -9t54.5 -4h276v-96h-57 q-31 0 -82 2t-86 6zM473 -4q-43 2 -97 3t-104 13q-41 -35 -71.5 -87t-30.5 -115q0 -49 24.5 -85t66.5 -57.5t97.5 -32t116.5 -10.5q188 0 299 58.5t111 156.5q0 29 -8.5 55.5t-32 47t-64.5 34t-106 15.5zM805 684q0 72 -25.5 122t-65.5 81t-90.5 44t-101.5 13t-102 -14.5 t-92 -45t-66.5 -80.5t-25.5 -120q0 -72 25.5 -123t65.5 -83t91 -46t102 -14t101.5 14t91.5 46t66.5 82t25.5 124zM448 1311q0 45 26.5 72.5t67.5 27.5t65.5 -27.5t24.5 -72.5t-24.5 -72t-65.5 -27t-67.5 27t-26.5 72z" horiz-adv-x="1052" unicode="ġ"/><glyph d="M717 1352q-109 0 -198 -39t-151.5 -119t-97 -200t-34.5 -281q0 -328 128 -476.5t379 -148.5q94 0 172 16.5t125 34.5v482h-305v110h426v-665q-18 -10 -56 -26.5t-93.5 -32t-127 -27t-157.5 -11.5q-315 0 -471 188.5t-156 555.5q0 164 38 303t115 240.5t191.5 159 t268.5 57.5q139 0 244.5 -36t189.5 -104l-66 -102q-25 18 -57.5 39.5t-75.5 40t-100 30t-131 11.5zM775 -209q0 -39 -12.5 -81t-32 -83t-43 -77.5t-44.5 -65.5l-65 39q25 43 48.5 97t31.5 87q-29 10 -54.5 35t-25.5 59q0 43 25.5 72t68.5 29q47 0 75 -31t28 -80z" horiz-adv-x="1261" unicode="Ģ"/><glyph d="M811 928q57 -41 86 -106.5t29 -141.5q0 -94 -37 -161.5t-95.5 -112t-129 -66t-138.5 -21.5q-59 0 -120.5 11.5t-116.5 42.5q-29 -27 -52.5 -63t-23.5 -87q0 -59 48 -88t181 -31l226 -4q68 -2 129 -14t109 -40t76 -74t28 -115q0 -68 -33 -128.5t-100.5 -105.5t-169 -71.5 t-236.5 -26.5q-84 0 -159.5 13t-133 46t-92.5 84t-35 129t35 140.5t94 109.5q-35 23 -55.5 61.5t-20.5 96.5q0 63 33 121.5t78 95.5q-47 41 -73.5 106.5t-26.5 153.5q0 94 37.5 161.5t96 111.5t130.5 65.5t139 21.5q41 0 74 -4t60.5 -9t53 -9t54.5 -4h276v-96h-57 q-31 0 -82 2t-86 6zM473 -4q-43 2 -97 3t-104 13q-41 -35 -71.5 -87t-30.5 -115q0 -49 24.5 -85t66.5 -57.5t97.5 -32t116.5 -10.5q188 0 299 58.5t111 156.5q0 29 -8.5 55.5t-32 47t-64.5 34t-106 15.5zM805 684q0 72 -25.5 122t-65.5 81t-90.5 44t-101.5 13t-102 -14.5 t-92 -45t-66.5 -80.5t-25.5 -120q0 -72 25.5 -123t65.5 -83t91 -46t102 -14t101.5 14t91.5 46t66.5 82t25.5 124zM449 1286q0 39 12.5 81t31.5 82t42 77t45 65l64 -39q-25 -43 -48.5 -98t-31.5 -88q29 -10 53 -34.5t24 -55.5q0 -43 -24.5 -71.5t-67.5 -28.5 q-47 0 -73.5 30.5t-26.5 79.5z" horiz-adv-x="1052" unicode="ģ"/><glyph d="M1012 1440h129v-1440h-129v709h-731v-709h-129v1440h129v-611h731v611zM940 1559l-279 200l-278 -200l-70 71l293 252h111l293 -252z" horiz-adv-x="1292" unicode="Ĥ"/><glyph d="M250 840q47 98 137 150t225 52q166 0 255 -96t89 -282v-664h-120v647q0 80 -19.5 135.5t-53.5 88t-80 47t-101 14.5q-84 0 -146.5 -38t-103.5 -98.5t-61.5 -136t-20.5 -153.5v-506h-121v1536h121v-696zM127 1645l250 237h106l252 -237l-65 -66l-240 186l-239 -186z" horiz-adv-x="1077" unicode="ĥ"/><glyph d="M1153 1075v-1075h-129v709h-731v-709h-129v1075h-154v111h154v254h129v-254h731v254h129v-254h178v-111h-178zM1024 1075h-731v-248h731v248z" horiz-adv-x="1341" unicode="Ħ"/><glyph d="M270 1348h383v-103h-383v-405q47 98 137.5 150t225.5 52q166 0 255 -96t89 -282v-664h-121v647q0 80 -19.5 135.5t-53 88t-80 47t-101.5 14.5q-84 0 -146.5 -38t-103.5 -98.5t-61.5 -136t-20.5 -153.5v-506h-120v1245h-142v103h142v188h120v-188z" horiz-adv-x="1097" unicode="ħ"/><glyph d="M281 0h-129v1440h129v-1440zM63 1815q51 0 91.5 -18.5t74 -42t66.5 -42t72 -18.5q96 0 96 118h108q0 -111 -54 -167t-152 -56q-51 0 -89 18.5t-72 41t-67 41t-69 18.5q-100 0 -101 -117h-108q0 106 51 165t153 59z" horiz-adv-x="432" unicode="Ĩ"/><glyph d="M135 1016h123v-1016h-123v1016zM43 1421q51 0 89 -18.5t69.5 -42t63.5 -42t70 -18.5q51 0 72 32t21 87h108q0 -111 -51 -169t-150 -58q-49 0 -85.5 18.5t-70.5 41t-64.5 41t-67.5 18.5q-51 0 -73 -31t-22 -86h-108q0 106 50.5 166.5t148.5 60.5z" horiz-adv-x="395" unicode="ĩ"/><glyph d="M281 0h-129v1440h129v-1440zM-80 1640v111h602v-111h-602z" horiz-adv-x="432" unicode="Ī"/><glyph d="M135 1016h123v-1016h-123v1016zM-91 1257v109h582v-109h-582z" horiz-adv-x="395" unicode="ī"/><glyph d="M281 0h-129v1440h129v-1440zM223 1659q88 0 137.5 49t49.5 143h114q0 -59 -18 -112t-55 -95t-94.5 -67t-137.5 -25t-137 25t-94 65.5t-54.5 95t-17.5 113.5h119q0 -94 51 -143t137 -49z" horiz-adv-x="432" unicode="Ĭ"/><glyph d="M135 1016h123v-1016h-123v1016zM194 1280q88 0 136 45t48 139h111q0 -59 -17.5 -110t-53 -91t-92 -62.5t-134.5 -22.5q-80 0 -136 22.5t-92 61t-52.5 91t-16.5 111.5h115q0 -94 49 -139t135 -45z" horiz-adv-x="395" unicode="ĭ"/><glyph d="M287 -371q-14 -2 -26.5 -3t-33.5 -1q-94 0 -147 42t-53 110q0 72 37.5 124t97.5 99h-10v1440h129v-1440q-55 -41 -97.5 -90t-42.5 -107q0 -86 109 -86q27 0 37 2v-90z" horiz-adv-x="432" unicode="Į"/><glyph d="M137 1016h121v-1016q-55 -41 -96 -90t-41 -107q0 -41 24.5 -63.5t83.5 -22.5q27 0 35 2v-84q-14 -2 -22.5 -3t-28.5 -1q-86 0 -143.5 35t-57.5 117q0 66 37 118t96 99h-8v1016zM104 1356q0 45 26 72.5t67 27.5t67.5 -27.5t26.5 -72.5q0 -47 -26.5 -74t-67.5 -27t-67 28 t-26 73z" horiz-adv-x="395" unicode="į"/><glyph d="M281 0h-129v1440h129v-1440zM125 1698q0 47 28.5 75.5t69.5 28.5t67.5 -28.5t26.5 -75.5t-26.5 -74t-67.5 -27t-69.5 27t-28.5 74z" horiz-adv-x="432" unicode="İ"/><glyph d="M135 1016h123v-1016h-123v1016z" horiz-adv-x="395" unicode="ı"/><glyph d="M281 0h-129v1440h129v-1440zM1127 1440h129v-1065q0 -219 -101.5 -313.5t-281.5 -94.5q-76 0 -137.5 12.5t-107.5 30t-73.5 32.5t-36.5 21l50 103q8 -4 33.5 -17.5t64.5 -28t87 -25.5t101 -11q70 0 122 15.5t85 51t49.5 95t16.5 147.5v1047z" horiz-adv-x="1394" unicode="Ĳ"/><glyph d="M137 1016h121v-1016h-121v1016zM104 1356q0 45 26 72.5t67 27.5t67.5 -27.5t26.5 -72.5q0 -47 -26.5 -74t-67.5 -27t-67 28t-26 73zM719 -29q0 -215 -80 -322.5t-260 -107.5q-29 0 -67 5t-60 14l14 102q20 -4 48 -8t55 -4q74 0 118.5 21.5t69.5 66.5t33 113.5t8 162.5 v1002h121v-1045zM565 1356q0 45 25.5 72.5t66.5 27.5t67.5 -27.5t26.5 -72.5q0 -47 -26.5 -74t-67.5 -27t-66.5 28t-25.5 73z" horiz-adv-x="856" unicode="ĳ"/><glyph d="M627 1440h129v-1065q0 -219 -101.5 -313.5t-281.5 -94.5q-76 0 -137.5 12.5t-107.5 30t-73.5 32.5t-36.5 21l50 103q8 -4 33.5 -17.5t64.5 -28t87 -25.5t101 -11q70 0 122 15.5t85 51t49.5 95t16.5 147.5v1047zM969 1559l-279 200l-278 -200l-70 71l293 252h111l293 -252 z" horiz-adv-x="894" unicode="Ĵ"/><glyph d="M287 -29q0 -215 -80 -322.5t-260 -107.5q-29 0 -67 5t-60 14l14 102q20 -4 48 -8t55 -4q74 0 118.5 21.5t69.5 66.5t33 113.5t8 162.5v1002h121v-1045zM-121 1253l278 258h99l278 -258l-72 -67l-256 203l-256 -203z" horiz-adv-x="423" unicode="ĵ"/><glyph d="M281 0h-129v1440h129v-664l600 664h157l-604 -670l647 -770h-170l-630 750v-750zM674 -209q0 -39 -12.5 -81t-32 -83t-43 -77.5t-44.5 -65.5l-65 39q25 43 48.5 97t31.5 87q-29 10 -54.5 35t-25.5 59q0 43 25.5 72t68.5 29q47 0 75 -31t28 -80z" horiz-adv-x="1081" unicode="Ķ"/><glyph d="M250 565l428 451h153l-440 -455l500 -561h-158l-483 549v-549h-121v1536h121v-971zM579 -211q0 -39 -12 -81t-31.5 -82t-43 -76.5t-44.5 -65.5l-63 39q25 43 48.5 98t31.5 88q-29 10 -53.5 35t-24.5 55q0 43 24.5 72t67.5 29q47 0 73.5 -31t26.5 -80z" horiz-adv-x="890" unicode="ķ"/><glyph d="M868 0h-155l-463 522v-522h-121v1016h121v-479l438 479h152l-451 -477z" horiz-adv-x="870" unicode="ĸ"/><glyph d="M285 119h665v-119h-794v1440h129v-1321zM493 1882l54 -119l-478 -202l-41 94z" horiz-adv-x="991" unicode="Ĺ"/><glyph d="M250 0h-121v1536h121v-1536zM-37 1704l471 154l37 -123l-477 -129z" horiz-adv-x="378" unicode="ĺ"/><glyph d="M285 119h665v-119h-794v1440h129v-1321zM617 -209q0 -39 -12.5 -81t-32 -83t-43 -77.5t-44.5 -65.5l-65 39q25 43 48.5 97t31.5 87q-29 10 -54.5 35t-25.5 59q0 43 25.5 72t68.5 29q47 0 75 -31t28 -80z" horiz-adv-x="991" unicode="Ļ"/><glyph d="M250 0h-121v1536h121v-1536zM280 -211q0 -39 -12 -81t-31.5 -82t-43 -76.5t-44.5 -65.5l-63 39q25 43 48.5 98t31.5 88q-29 10 -53.5 35t-24.5 55q0 43 24.5 72t67.5 29q47 0 73.5 -31t26.5 -80z" horiz-adv-x="378" unicode="ļ"/><glyph d="M285 119h665v-119h-794v1440h129v-1321zM623 1362q0 53 29.5 81.5t70.5 28.5q49 0 74.5 -34.5t25.5 -92.5q0 -55 -21.5 -118.5t-50 -120t-56 -99.5t-40.5 -55l-69 45q12 23 29.5 59.5t35 75.5t29.5 76t16 61q-23 6 -48 32t-25 61z" horiz-adv-x="991" unicode="Ľ"/><glyph d="M250 0h-121v1536h121v-1536zM406 1436q0 53 29.5 81.5t70.5 28.5q49 0 74.5 -34.5t25.5 -92.5q0 -55 -21.5 -118.5t-50 -120t-56 -99.5t-40.5 -55l-69 45q12 23 29.5 59.5t35 75.5t29.5 76t16 61q-23 6 -48 32t-25 61z" horiz-adv-x="544" unicode="ľ"/><glyph d="M285 119h665v-119h-794v1440h129v-1321zM621 854q0 49 28.5 80t71.5 31t72 -30t29 -81q0 -49 -30 -77.5t-73 -28.5t-70.5 28.5t-27.5 77.5z" horiz-adv-x="1028" unicode="Ŀ"/><glyph d="M234 0h-121v1536h121v-1536zM397 764q0 49 28.5 80t71.5 31t72 -30t29 -81q0 -49 -30 -77.5t-73 -28.5t-70.5 28.5t-27.5 77.5z" horiz-adv-x="632" unicode="ŀ"/><glyph d="M322 805l409 225v-119l-409 -225v-567h665v-119h-794v618l-173 -94v119l173 92v705h129v-635z" horiz-adv-x="1028" unicode="Ł"/><glyph d="M293 911l164 131v-129l-164 -131v-782h-121v686l-162 -133v131l162 131v721h121v-625z" horiz-adv-x="466" unicode="ł"/><glyph d="M276 1217v-1217h-124v1440h143l723 -1211v1211h125v-1440h-133zM893 1882l54 -119l-478 -202l-41 94z" horiz-adv-x="1294" unicode="Ń"/><glyph d="M242 1016l4 -182q47 98 138 153t220 55q176 0 264 -96t88 -282v-664h-120v647q0 80 -19.5 135.5t-53.5 88t-80 47t-101 14.5q-84 0 -146.5 -38t-103.5 -98.5t-61.5 -136t-20.5 -153.5v-506h-121v1016h113zM749 1534l57 -115l-462 -217l-48 92z" horiz-adv-x="1077" unicode="ń"/><glyph d="M276 1217v-1217h-124v1440h143l723 -1211v1211h125v-1440h-133zM746 -209q0 -39 -12.5 -81t-32 -83t-43 -77.5t-44.5 -65.5l-65 39q25 43 48.5 97t31.5 87q-29 10 -54.5 35t-25.5 59q0 43 25.5 72t68.5 29q47 0 75 -31t28 -80z" horiz-adv-x="1294" unicode="Ņ"/><glyph d="M242 1016l4 -182q47 98 138 153t220 55q176 0 264 -96t88 -282v-664h-120v647q0 80 -19.5 135.5t-53.5 88t-80 47t-101 14.5q-84 0 -146.5 -38t-103.5 -98.5t-61.5 -136t-20.5 -153.5v-506h-121v1016h113zM649 -211q0 -39 -12 -81t-31.5 -82t-43 -76.5t-44.5 -65.5 l-63 39q25 43 48.5 98t31.5 88q-29 10 -53.5 35t-24.5 55q0 43 24.5 72t67.5 29q47 0 73.5 -31t26.5 -80z" horiz-adv-x="1077" unicode="ņ"/><glyph d="M276 1217v-1217h-124v1440h143l723 -1211v1211h125v-1440h-133zM604 1561l-293 249l70 74l278 -203l279 203l70 -74l-293 -249h-111z" horiz-adv-x="1294" unicode="Ň"/><glyph d="M242 1016l4 -182q47 98 138 153t220 55q176 0 264 -96t88 -282v-664h-120v647q0 80 -19.5 135.5t-53.5 88t-80 47t-101 14.5q-84 0 -146.5 -38t-103.5 -98.5t-61.5 -136t-20.5 -153.5v-506h-121v1016h113zM534 1307l254 202l72 -67l-276 -258h-101l-278 258l73 67z" horiz-adv-x="1077" unicode="ň"/><glyph d="M320 1016l4 -182q47 98 138 153t220 55q176 0 264 -96t88 -282v-664h-120v647q0 80 -19.5 135.5t-53.5 88t-80 47t-101 14.5q-84 0 -146.5 -38t-103.5 -98.5t-61.5 -136t-20.5 -153.5v-506h-121v1016h113zM41 1425q0 53 30 82t71 29q49 0 74.5 -35t25.5 -92 q0 -55 -22.5 -120.5t-51 -123t-56.5 -101.5t-40 -56l-70 45q12 23 31 58.5t35 75.5t29.5 76.5t17.5 63.5q-29 8 -51.5 32.5t-22.5 65.5z" horiz-adv-x="1155" unicode="ŉ"/><glyph d="M1006 764q0 311 -88.5 449.5t-249.5 138.5q-78 0 -147.5 -28t-123 -83t-85 -139t-31.5 -195v-907h-129v1440h122l9 -172q31 41 69.5 78.5t87.5 65.5t107.5 44.5t128.5 16.5q223 0 342 -169t119 -540q0 -225 -30 -376.5t-85 -244t-133 -131.5t-172 -39q-35 0 -60.5 3.5 t-68.5 15.5l22 108q51 -14 105 -14q72 0 126 39t91 121t55.5 210t18.5 308z" horiz-adv-x="1277" unicode="Ŋ"/><glyph d="M956 -29q0 -215 -79.5 -322.5t-260.5 -107.5q-29 0 -66.5 5t-60.5 14l15 102q20 -4 48 -8t54 -4q74 0 119 21.5t69.5 66.5t33 113.5t8.5 162.5v633q0 80 -19.5 135.5t-53.5 88t-80 47t-101 14.5q-84 0 -146.5 -38t-103.5 -98.5t-61.5 -136t-20.5 -153.5v-506h-121v1016 h113l4 -182q47 98 138 153t220 55q176 0 264 -96t88 -282v-693z" horiz-adv-x="1077" unicode="ŋ"/><glyph d="M104 721q0 168 40 306t118 236.5t192.5 152.5t262.5 54q147 0 261 -54t190.5 -152.5t116.5 -236.5t40 -306t-40 -306.5t-116.5 -237.5t-191.5 -153.5t-262 -54.5t-262 54.5t-192 153.5t-117 237.5t-40 306.5zM240 721q0 -143 28.5 -259t88 -199t148.5 -128t210 -45 t210 45t148.5 128t88 199t28.5 259t-28.5 259t-88 198t-148.5 127t-210 45t-210 -45t-148.5 -127t-88 -198t-28.5 -259zM426 1640v111h602v-111h-602z" horiz-adv-x="1429" unicode="Ō"/><glyph d="M557 88q176 0 260 113.5t84 308.5q0 190 -85 306t-259 116q-172 0 -257 -116t-85 -306q0 -195 84 -308.5t258 -113.5zM557 1042q117 0 204 -39.5t145.5 -110.5t88 -168t29.5 -214t-30.5 -215t-89 -169t-146.5 -110t-201 -39q-115 0 -203 39t-146 110t-88 169t-30 215 t31 214t89 168t145 110.5t202 39.5zM272 1257v109h582v-109h-582z" horiz-adv-x="1116" unicode="ō"/><glyph d="M104 721q0 168 40 306t118 236.5t192.5 152.5t262.5 54q147 0 261 -54t190.5 -152.5t116.5 -236.5t40 -306t-40 -306.5t-116.5 -237.5t-191.5 -153.5t-262 -54.5t-262 54.5t-192 153.5t-117 237.5t-40 306.5zM240 721q0 -143 28.5 -259t88 -199t148.5 -128t210 -45 t210 45t148.5 128t88 199t28.5 259t-28.5 259t-88 198t-148.5 127t-210 45t-210 -45t-148.5 -127t-88 -198t-28.5 -259zM729 1659q88 0 137.5 49t49.5 143h114q0 -59 -18 -112t-55 -95t-94.5 -67t-137.5 -25t-137 25t-94 65.5t-54.5 95t-17.5 113.5h119q0 -94 51 -143 t137 -49z" horiz-adv-x="1429" unicode="Ŏ"/><glyph d="M557 88q176 0 260 113.5t84 308.5q0 190 -85 306t-259 116q-172 0 -257 -116t-85 -306q0 -195 84 -308.5t258 -113.5zM557 1042q117 0 204 -39.5t145.5 -110.5t88 -168t29.5 -214t-30.5 -215t-89 -169t-146.5 -110t-201 -39q-115 0 -203 39t-146 110t-88 169t-30 215 t31 214t89 168t145 110.5t202 39.5zM565 1280q88 0 136 45t48 139h111q0 -59 -17.5 -110t-53 -91t-92 -62.5t-134.5 -22.5q-80 0 -136 22.5t-92 61t-52.5 91t-16.5 111.5h115q0 -94 49 -139t135 -45z" horiz-adv-x="1116" unicode="ŏ"/><glyph d="M104 721q0 168 40 306t118 236.5t192.5 152.5t262.5 54q147 0 261 -54t190.5 -152.5t116.5 -236.5t40 -306t-40 -306.5t-116.5 -237.5t-191.5 -153.5t-262 -54.5t-262 54.5t-192 153.5t-117 237.5t-40 306.5zM240 721q0 -143 28.5 -259t88 -199t148.5 -128t210 -45 t210 45t148.5 128t88 199t28.5 259t-28.5 259t-88 198t-148.5 127t-210 45t-210 -45t-148.5 -127t-88 -198t-28.5 -259zM815 1628l285 301l86 -88l-299 -285zM408 1628l285 301l86 -88l-299 -285z" horiz-adv-x="1429" unicode="Ő"/><glyph d="M557 88q176 0 260 113.5t84 308.5q0 190 -85 306t-259 116q-172 0 -257 -116t-85 -306q0 -195 84 -308.5t258 -113.5zM557 1042q117 0 204 -39.5t145.5 -110.5t88 -168t29.5 -214t-30.5 -215t-89 -169t-146.5 -110t-201 -39q-115 0 -203 39t-146 110t-88 169t-30 215 t31 214t89 168t145 110.5t202 39.5zM657 1229l289 327l90 -81l-303 -314zM250 1229l289 327l90 -81l-303 -314z" horiz-adv-x="1116" unicode="ő"/><glyph d="M1706 1440v-121h-664v-510h519v-119h-519v-569h684v-121h-976q-330 0 -489 180t-159 535q0 166 40 300t121 228t203 145.5t286 51.5h954zM915 121v1200h-161q-264 0 -391 -152.5t-127 -453.5t125.5 -447.5t388.5 -146.5h165z" horiz-adv-x="1746" unicode="Œ"/><glyph d="M1403 88q92 0 157.5 20.5t104.5 36.5l37 -96q-31 -20 -113 -46t-198 -26q-172 0 -277.5 69t-152.5 183q-53 -117 -154.5 -184.5t-249.5 -67.5q-115 0 -203 39t-146 110t-88 169t-30 215t31 214t89 168t145 110.5t202 39.5q158 0 256 -69.5t150 -188.5v-8 q47 125 143 195.5t242 70.5q98 0 176 -29.5t132 -96t82.5 -170t28.5 -250.5v-25h-745q10 -178 101.5 -280.5t279.5 -102.5zM557 88q176 0 261 113.5t85 308.5q0 190 -86 306t-260 116q-172 0 -257 -116t-85 -306q0 -195 84 -308.5t258 -113.5zM1647 575q-12 174 -82 266.5 t-219 92.5q-154 0 -230 -94.5t-92 -264.5h623z" horiz-adv-x="1853" unicode="œ"/><glyph d="M1071 0h-149l-353 592h-293v-592h-124v1440h378q129 0 216.5 -37t140.5 -97.5t76.5 -135t23.5 -150.5q0 -84 -21.5 -149.5t-60.5 -114.5t-90 -85t-108 -57zM858 1014q0 143 -81 227t-263 84h-238v-620h246q174 0 255 84t81 225zM733 1882l54 -119l-478 -202l-41 94z" horiz-adv-x="1107" unicode="Ŕ"/><glyph d="M606 1026q23 0 49.5 -2t34.5 -6l-10 -111q-16 4 -39 5t-43 1q-84 0 -147.5 -33.5t-106.5 -95t-65.5 -147.5t-22.5 -191v-446h-121v1016h113l4 -215q41 98 132 161.5t222 63.5zM612 1534l57 -115l-462 -217l-48 92z" horiz-adv-x="692" unicode="ŕ"/><glyph d="M1071 0h-149l-353 592h-293v-592h-124v1440h378q129 0 216.5 -37t140.5 -97.5t76.5 -135t23.5 -150.5q0 -84 -21.5 -149.5t-60.5 -114.5t-90 -85t-108 -57zM858 1014q0 143 -81 227t-263 84h-238v-620h246q174 0 255 84t81 225zM678 -209q0 -39 -12.5 -81t-32 -83 t-43 -77.5t-44.5 -65.5l-65 39q25 43 48.5 97t31.5 87q-29 10 -54.5 35t-25.5 59q0 43 25.5 72t68.5 29q47 0 75 -31t28 -80z" horiz-adv-x="1107" unicode="Ŗ"/><glyph d="M606 1026q23 0 49.5 -2t34.5 -6l-10 -111q-16 4 -39 5t-43 1q-84 0 -147.5 -33.5t-106.5 -95t-65.5 -147.5t-22.5 -191v-446h-121v1016h113l4 -215q41 98 132 161.5t222 63.5zM303 -211q0 -39 -12 -81t-31.5 -82t-43 -76.5t-44.5 -65.5l-63 39q25 43 48.5 98t31.5 88 q-29 10 -53.5 35t-24.5 55q0 43 24.5 72t67.5 29q47 0 73.5 -31t26.5 -80z" horiz-adv-x="692" unicode="ŗ"/><glyph d="M1071 0h-149l-353 592h-293v-592h-124v1440h378q129 0 216.5 -37t140.5 -97.5t76.5 -135t23.5 -150.5q0 -84 -21.5 -149.5t-60.5 -114.5t-90 -85t-108 -57zM858 1014q0 143 -81 227t-263 84h-238v-620h246q174 0 255 84t81 225zM459 1561l-293 249l70 74l278 -203 l279 203l70 -74l-293 -249h-111z" horiz-adv-x="1107" unicode="Ř"/><glyph d="M606 1026q23 0 49.5 -2t34.5 -6l-10 -111q-16 4 -39 5t-43 1q-84 0 -147.5 -33.5t-106.5 -95t-65.5 -147.5t-22.5 -191v-446h-121v1016h113l4 -215q41 98 132 161.5t222 63.5zM395 1307l254 202l72 -67l-276 -258h-101l-278 258l73 67z" horiz-adv-x="692" unicode="ř"/><glyph d="M469 690q-172 53 -264 146.5t-92 234.5q0 84 27.5 158t85 129t143.5 87t202 32q55 0 112.5 -8.5t111 -22.5t98.5 -33.5t76 -40.5l-49 -108q-47 31 -141.5 61.5t-215.5 30.5q-156 0 -237.5 -72t-81.5 -197q0 -49 13 -87.5t44 -71.5t82 -59.5t127 -53.5l147 -51 q176 -61 255 -153.5t79 -237.5q0 -84 -29.5 -158t-88 -128t-147.5 -86t-206 -32q-88 0 -163.5 14.5t-136 35t-102.5 42t-61 35.5l54 109q29 -18 68.5 -38t91 -37t115 -28.5t136.5 -11.5q152 0 244 67.5t92 204.5q0 102 -59.5 172t-200.5 115zM747 1882l54 -119l-478 -202 l-41 94z" horiz-adv-x="1069" unicode="Ś"/><glyph d="M104 168q45 -27 130 -55.5t202 -28.5q74 0 124 14.5t81 39t44 57t13 67.5q0 74 -44 120t-171 69l-110 20q-66 12 -119 31.5t-93 52.5t-61.5 79t-21.5 114q0 141 104.5 217.5t272.5 76.5q102 0 185 -22.5t130 -46.5l-43 -101q-47 25 -113.5 43.5t-152.5 18.5 q-135 0 -200.5 -47t-65.5 -125q0 -39 10 -67.5t36.5 -49t69.5 -36t109 -27.5l112 -21q123 -25 204 -90t81 -190q0 -139 -99.5 -221.5t-279.5 -82.5q-127 0 -229.5 31t-149.5 62zM659 1534l57 -115l-462 -217l-48 92z" horiz-adv-x="876" unicode="ś"/><glyph d="M469 690q-172 53 -264 146.5t-92 234.5q0 84 27.5 158t85 129t143.5 87t202 32q55 0 112.5 -8.5t111 -22.5t98.5 -33.5t76 -40.5l-49 -108q-47 31 -141.5 61.5t-215.5 30.5q-156 0 -237.5 -72t-81.5 -197q0 -49 13 -87.5t44 -71.5t82 -59.5t127 -53.5l147 -51 q176 -61 255 -153.5t79 -237.5q0 -84 -29.5 -158t-88 -128t-147.5 -86t-206 -32q-88 0 -163.5 14.5t-136 35t-102.5 42t-61 35.5l54 109q29 -18 68.5 -38t91 -37t115 -28.5t136.5 -11.5q152 0 244 67.5t92 204.5q0 102 -59.5 172t-200.5 115zM838 1559l-279 200l-278 -200 l-70 71l293 252h111l293 -252z" horiz-adv-x="1069" unicode="Ŝ"/><glyph d="M104 168q45 -27 130 -55.5t202 -28.5q74 0 124 14.5t81 39t44 57t13 67.5q0 74 -44 120t-171 69l-110 20q-66 12 -119 31.5t-93 52.5t-61.5 79t-21.5 114q0 141 104.5 217.5t272.5 76.5q102 0 185 -22.5t130 -46.5l-43 -101q-47 25 -113.5 43.5t-152.5 18.5 q-135 0 -200.5 -47t-65.5 -125q0 -39 10 -67.5t36.5 -49t69.5 -36t109 -27.5l112 -21q123 -25 204 -90t81 -190q0 -139 -99.5 -221.5t-279.5 -82.5q-127 0 -229.5 31t-149.5 62zM131 1253l278 258h99l278 -258l-72 -67l-256 203l-256 -203z" horiz-adv-x="876" unicode="ŝ"/><glyph d="M469 690q-172 53 -264 146.5t-92 234.5q0 84 27.5 158t85 129t143.5 87t202 32q55 0 112.5 -8.5t111 -22.5t98.5 -33.5t76 -40.5l-49 -108q-47 31 -141.5 61.5t-215.5 30.5q-156 0 -237.5 -72t-81.5 -197q0 -49 13 -87.5t44 -71.5t82 -59.5t127 -53.5l147 -51 q176 -61 255 -153.5t79 -237.5q0 -80 -26.5 -149.5t-78.5 -124t-132 -88.5t-185 -40l-14 -71q102 -8 152.5 -59.5t50.5 -125.5q0 -98 -70 -151t-182 -53q-86 0 -134 14t-59 18l21 92q35 -10 71.5 -19t83.5 -9q72 0 112 23.5t40 80.5q0 45 -34 70.5t-109 25.5q-16 0 -35 -1 t-35 -5l37 170q-78 4 -144.5 19.5t-118.5 35t-89 39t-56 31.5l54 109q29 -18 68.5 -38t91 -37t115 -28.5t136.5 -11.5q152 0 244 67.5t92 204.5q0 102 -59.5 172t-200.5 115z" horiz-adv-x="1069" unicode="Ş"/><glyph d="M653 -279q0 -94 -72.5 -146t-179.5 -52q-86 0 -134 15.5t-58 19.5l22 86q35 -10 72 -20.5t82 -10.5q72 0 116 24.5t44 77.5q0 47 -38 73t-116 26q-29 0 -61 -7l37 175q-104 8 -185.5 34.5t-122.5 53.5l45 98q45 -27 130 -55.5t202 -28.5q74 0 124 14.5t81 39t44 57 t13 67.5q0 74 -44 120t-171 69l-110 20q-66 12 -119 31.5t-93 52.5t-61.5 79t-21.5 114q0 141 104.5 217.5t272.5 76.5q102 0 185 -22.5t130 -46.5l-43 -101q-47 25 -113.5 43.5t-152.5 18.5q-135 0 -200.5 -47t-65.5 -125q0 -39 10 -67.5t36.5 -49t69.5 -36t109 -27.5 l112 -21q123 -25 204 -90t81 -190q0 -135 -92 -215t-258 -86l-16 -80q98 -8 150 -56.5t52 -122.5z" horiz-adv-x="876" unicode="ş"/><glyph d="M469 690q-172 53 -264 146.5t-92 234.5q0 84 27.5 158t85 129t143.5 87t202 32q55 0 112.5 -8.5t111 -22.5t98.5 -33.5t76 -40.5l-49 -108q-47 31 -141.5 61.5t-215.5 30.5q-156 0 -237.5 -72t-81.5 -197q0 -49 13 -87.5t44 -71.5t82 -59.5t127 -53.5l147 -51 q176 -61 255 -153.5t79 -237.5q0 -84 -29.5 -158t-88 -128t-147.5 -86t-206 -32q-88 0 -163.5 14.5t-136 35t-102.5 42t-61 35.5l54 109q29 -18 68.5 -38t91 -37t115 -28.5t136.5 -11.5q152 0 244 67.5t92 204.5q0 102 -59.5 172t-200.5 115zM518 1561l-293 249l70 74 l278 -203l279 203l70 -74l-293 -249h-111z" horiz-adv-x="1069" unicode="Š"/><glyph d="M104 168q45 -27 130 -55.5t202 -28.5q74 0 124 14.5t81 39t44 57t13 67.5q0 74 -44 120t-171 69l-110 20q-66 12 -119 31.5t-93 52.5t-61.5 79t-21.5 114q0 141 104.5 217.5t272.5 76.5q102 0 185 -22.5t130 -46.5l-43 -101q-47 25 -113.5 43.5t-152.5 18.5 q-135 0 -200.5 -47t-65.5 -125q0 -39 10 -67.5t36.5 -49t69.5 -36t109 -27.5l112 -21q123 -25 204 -90t81 -190q0 -139 -99.5 -221.5t-279.5 -82.5q-127 0 -229.5 31t-149.5 62zM448 1307l254 202l72 -67l-276 -258h-101l-278 258l73 67z" horiz-adv-x="876" unicode="š"/><glyph d="M477 1319h-442v121h1012v-121h-441v-1319h-12l-21 -100q102 -8 152.5 -59.5t50.5 -125.5q0 -98 -69.5 -151t-182.5 -53q-86 0 -134 14t-58 18l20 92q35 -10 72 -19t84 -9q72 0 111.5 23.5t39.5 80.5q0 45 -33.5 70.5t-109.5 25.5q-16 0 -34.5 -1t-35.5 -5l43 199h-12 v1319z" horiz-adv-x="1081" unicode="Ţ"/><glyph d="M682 -276q0 -94 -72.5 -147.5t-179.5 -53.5q-86 0 -134 15.5t-58 19.5l22 86q35 -10 72 -20.5t82 -10.5q72 0 115.5 25.5t43.5 78.5q0 45 -37.5 71t-115.5 26q-29 0 -62 -7l43 203q-86 31 -121.5 99.5t-35.5 173.5v626h-211v107h211v299l121 33v-332h309v-107h-309v-592 q0 -70 14 -112.5t43 -67t71 -33t95 -8.5q29 0 53.5 2t42.5 6l12 -98q-20 -6 -61 -12t-90 -6q-12 0 -24.5 1t-22.5 1l-19 -90q100 -8 151.5 -56t51.5 -120z" horiz-adv-x="731" unicode="ţ"/><glyph d="M477 1319h-442v121h1012v-121h-441v-1319h-129v1319zM491 1561l-293 249l70 74l278 -203l279 203l70 -74l-293 -249h-111z" horiz-adv-x="1081" unicode="Ť"/><glyph d="M588 96q29 0 53.5 2t42.5 6l12 -98q-20 -6 -61 -12t-90 -6q-164 0 -232.5 77.5t-68.5 217.5v626h-211v107h211v299l121 33v-332h309v-107h-309v-592q0 -70 14 -112.5t43 -67t71 -33t95 -8.5zM749 1425q0 -35 -11 -77.5t-28.5 -88t-38 -86t-38.5 -69.5l-66 35 q8 18 19.5 46.5t21.5 60.5t17.5 59.5t7.5 42.5q-29 8 -51.5 33.5t-22.5 60.5q0 47 27.5 74.5t66.5 27.5q47 0 71.5 -33t24.5 -86z" horiz-adv-x="731" unicode="ť"/><glyph d="M477 700h-342v113h342v506h-442v121h1012v-121h-441v-506h342v-113h-342v-700h-129v700z" horiz-adv-x="1081" unicode="Ŧ"/><glyph d="M365 526v-209q0 -70 14 -112.5t43 -67t71 -33t95 -8.5q29 0 53.5 2t42.5 6l12 -98q-20 -6 -61 -12t-90 -6q-164 0 -232.5 77.5t-68.5 217.5v243h-211v105h211v278h-211v107h211v299l121 33v-332h309v-107h-309v-278h309v-105h-309z" horiz-adv-x="731" unicode="ŧ"/><glyph d="M629 -33q-147 0 -242.5 44t-153 124t-80 189.5t-22.5 240.5v875h129v-846q0 -145 22.5 -243.5t68.5 -157t117 -83t165 -24.5t163.5 24.5t115.5 83t70 155.5t24 243v848h129v-877q0 -131 -24 -240.5t-82 -188.5t-155.5 -123t-244.5 -44zM489 1815q51 0 91.5 -18.5t74 -42 t66.5 -42t72 -18.5q96 0 96 118h108q0 -111 -54 -167t-152 -56q-51 0 -89 18.5t-72 41t-67 41t-69 18.5q-100 0 -101 -117h-108q0 106 51 165t153 59z" horiz-adv-x="1265" unicode="Ũ"/><glyph d="M834 1016h120v-1016h-112l-4 188q-49 -98 -138.5 -155.5t-230.5 -57.5q-168 0 -254 95.5t-86 281.5v664h121v-647q0 -80 18.5 -134.5t52 -87t79.5 -47t102 -14.5q80 0 141.5 37t104.5 96.5t64.5 134t21.5 152.5v510zM396 1421q51 0 89 -18.5t69.5 -42t63.5 -42t70 -18.5 q51 0 72 32t21 87h108q0 -111 -51 -169t-150 -58q-49 0 -85.5 18.5t-70.5 41t-64.5 41t-67.5 18.5q-51 0 -73 -31t-22 -86h-108q0 106 50.5 166.5t148.5 60.5z" horiz-adv-x="1083" unicode="ũ"/><glyph d="M629 -33q-147 0 -242.5 44t-153 124t-80 189.5t-22.5 240.5v875h129v-846q0 -145 22.5 -243.5t68.5 -157t117 -83t165 -24.5t163.5 24.5t115.5 83t70 155.5t24 243v848h129v-877q0 -131 -24 -240.5t-82 -188.5t-155.5 -123t-244.5 -44zM330 1640v111h602v-111h-602z" horiz-adv-x="1265" unicode="Ū"/><glyph d="M834 1016h120v-1016h-112l-4 188q-49 -98 -138.5 -155.5t-230.5 -57.5q-168 0 -254 95.5t-86 281.5v664h121v-647q0 -80 18.5 -134.5t52 -87t79.5 -47t102 -14.5q80 0 141.5 37t104.5 96.5t64.5 134t21.5 152.5v510zM258 1257v109h582v-109h-582z" horiz-adv-x="1083" unicode="ū"/><glyph d="M629 -33q-147 0 -242.5 44t-153 124t-80 189.5t-22.5 240.5v875h129v-846q0 -145 22.5 -243.5t68.5 -157t117 -83t165 -24.5t163.5 24.5t115.5 83t70 155.5t24 243v848h129v-877q0 -131 -24 -240.5t-82 -188.5t-155.5 -123t-244.5 -44zM641 1659q88 0 137.5 49t49.5 143 h114q0 -59 -18 -112t-55 -95t-94.5 -67t-137.5 -25t-137 25t-94 65.5t-54.5 95t-17.5 113.5h119q0 -94 51 -143t137 -49z" horiz-adv-x="1265" unicode="Ŭ"/><glyph d="M834 1016h120v-1016h-112l-4 188q-49 -98 -138.5 -155.5t-230.5 -57.5q-168 0 -254 95.5t-86 281.5v664h121v-647q0 -80 18.5 -134.5t52 -87t79.5 -47t102 -14.5q80 0 141.5 37t104.5 96.5t64.5 134t21.5 152.5v510zM549 1280q88 0 136 45t48 139h111q0 -59 -17.5 -110 t-53 -91t-92 -62.5t-134.5 -22.5q-80 0 -136 22.5t-92 61t-52.5 91t-16.5 111.5h115q0 -94 49 -139t135 -45z" horiz-adv-x="1083" unicode="ŭ"/><glyph d="M629 -33q-147 0 -242.5 44t-153 124t-80 189.5t-22.5 240.5v875h129v-846q0 -145 22.5 -243.5t68.5 -157t117 -83t165 -24.5t163.5 24.5t115.5 83t70 155.5t24 243v848h129v-877q0 -131 -24 -240.5t-82 -188.5t-155.5 -123t-244.5 -44zM866 1683q0 -96 -61.5 -153 t-153.5 -57q-94 0 -156.5 57t-62.5 151q0 96 64.5 153.5t154.5 57.5q94 0 154.5 -57.5t60.5 -151.5zM774 1681q0 59 -34.5 93t-90.5 34q-51 0 -87 -33.5t-36 -93.5q0 -59 35 -93t88 -34q55 0 90 33t35 94z" horiz-adv-x="1265" unicode="Ů"/><glyph d="M834 1016h120v-1016h-112l-4 188q-49 -98 -138.5 -155.5t-230.5 -57.5q-168 0 -254 95.5t-86 281.5v664h121v-647q0 -80 18.5 -134.5t52 -87t79.5 -47t102 -14.5q80 0 141.5 37t104.5 96.5t64.5 134t21.5 152.5v510zM768 1380q0 -98 -60 -154.5t-155 -56.5 q-96 0 -157.5 56.5t-61.5 152.5q0 98 63.5 154.5t155.5 56.5q96 0 155.5 -56.5t59.5 -152.5zM676 1378q0 59 -34.5 93t-90.5 34q-51 0 -87 -32.5t-36 -94.5q0 -59 35 -93t88 -34q55 0 90 34t35 93z" horiz-adv-x="1083" unicode="ů"/><glyph d="M629 -33q-147 0 -242.5 44t-153 124t-80 189.5t-22.5 240.5v875h129v-846q0 -145 22.5 -243.5t68.5 -157t117 -83t165 -24.5t163.5 24.5t115.5 83t70 155.5t24 243v848h129v-877q0 -131 -24 -240.5t-82 -188.5t-155.5 -123t-244.5 -44zM722 1628l285 301l86 -88 l-299 -285zM315 1628l285 301l86 -88l-299 -285z" horiz-adv-x="1265" unicode="Ű"/><glyph d="M834 1016h120v-1016h-112l-4 188q-49 -98 -138.5 -155.5t-230.5 -57.5q-168 0 -254 95.5t-86 281.5v664h121v-647q0 -80 18.5 -134.5t52 -87t79.5 -47t102 -14.5q80 0 141.5 37t104.5 96.5t64.5 134t21.5 152.5v510zM614 1229l289 327l90 -81l-303 -314zM207 1229 l289 327l90 -81l-303 -314z" horiz-adv-x="1083" unicode="ű"/><glyph d="M770 -371q-14 -2 -26.5 -3t-32.5 -1q-94 0 -147.5 42t-53.5 110q0 59 25.5 105t68.5 85q-139 4 -230 49t-145.5 124t-76 187.5t-21.5 237.5v875h129v-846q0 -145 22.5 -243.5t68.5 -157t117 -83t165 -24.5t163.5 24.5t115.5 83t70 155.5t24 243v848h129v-877 q0 -121 -19.5 -222t-67 -178t-125 -126t-194.5 -64q-43 -37 -73.5 -80t-30.5 -90q0 -86 108 -86q27 0 37 2v-90z" horiz-adv-x="1265" unicode="Ų"/><glyph d="M834 1016h120v-1016q-55 -41 -96 -90t-41 -107q0 -41 24.5 -63.5t84.5 -22.5q27 0 35 2v-84q-14 -2 -22.5 -3t-29.5 -1q-86 0 -143 35t-57 117q0 66 36.5 118t96.5 99l-4 188q-49 -98 -138.5 -155.5t-230.5 -57.5q-168 0 -254 95.5t-86 281.5v664h121v-647 q0 -80 18.5 -134.5t52 -87t79.5 -47t102 -14.5q80 0 141.5 37t104.5 96.5t64.5 134t21.5 152.5v510z" horiz-adv-x="1083" unicode="ų"/><glyph d="M483 0h-149l-314 1440h136l262 -1233l291 1198h143l283 -1196l272 1231h133l-330 -1440h-151l-281 1182zM1059 1559l-279 200l-278 -200l-70 71l293 252h111l293 -252z" horiz-adv-x="1560" unicode="Ŵ"/><glyph d="M6 1016h129l250 -877l219 846h137l220 -846l247 877h121l-305 -1016h-137l-217 827l-219 -827h-138zM344 1253l278 258h99l278 -258l-72 -67l-256 203l-256 -203z" horiz-adv-x="1335" unicode="ŵ"/><glyph d="M459 629l-453 811h148l374 -688l383 688h140l-463 -807v-633h-129v629zM811 1559l-279 200l-278 -200l-70 71l293 252h111l293 -252z" horiz-adv-x="1056" unicode="Ŷ"/><glyph d="M8 1016h139l322 -819l328 819h133l-613 -1467h-127l211 500zM152 1253l278 258h99l278 -258l-72 -67l-256 203l-256 -203z" horiz-adv-x="937" unicode="ŷ"/><glyph d="M459 629l-453 811h148l374 -688l383 688h140l-463 -807v-633h-129v629zM235 1708q0 49 29 78t69 29q43 0 71 -29t28 -78q0 -47 -28 -76.5t-71 -29.5q-41 0 -69.5 29.5t-28.5 76.5zM641 1708q0 49 28.5 78t69.5 29q43 0 71.5 -29t28.5 -78q0 -47 -28.5 -76.5t-71.5 -29.5 q-41 0 -69.5 29.5t-28.5 76.5z" horiz-adv-x="1056" unicode="Ÿ"/><glyph d="M66 106l808 1215h-788v119h944v-107l-811 -1214h836v-119h-989v106zM790 1882l54 -119l-478 -202l-41 94z" horiz-adv-x="1112" unicode="Ź"/><glyph d="M78 84l602 827h-594v105h752v-86l-609 -828h615v-102h-766v84zM686 1534l57 -115l-462 -217l-48 92z" horiz-adv-x="913" unicode="ź"/><glyph d="M66 106l808 1215h-788v119h944v-107l-811 -1214h836v-119h-989v106zM467 1698q0 47 28.5 75.5t69.5 28.5t67.5 -28.5t26.5 -75.5t-26.5 -74t-67.5 -27t-69.5 27t-28.5 74z" horiz-adv-x="1112" unicode="Ż"/><glyph d="M78 84l602 827h-594v105h752v-86l-609 -828h615v-102h-766v84zM379 1311q0 45 26.5 72.5t67.5 27.5t65.5 -27.5t24.5 -72.5t-24.5 -72t-65.5 -27t-67.5 27t-26.5 72z" horiz-adv-x="913" unicode="ż"/><glyph d="M66 106l808 1215h-788v119h944v-107l-811 -1214h836v-119h-989v106zM522 1561l-293 249l70 74l278 -203l279 203l70 -74l-293 -249h-111z" horiz-adv-x="1112" unicode="Ž"/><glyph d="M78 84l602 827h-594v105h752v-86l-609 -828h615v-102h-766v84zM489 1307l254 202l72 -67l-276 -258h-101l-278 258l73 67z" horiz-adv-x="913" unicode="ž"/><glyph d="M129 1126q0 94 17.5 172t59.5 134.5t108.5 87t164.5 30.5q53 0 97.5 -7t66.5 -13l-16 -105q-16 4 -52 10.5t-67 6.5q-76 0 -125 -18.5t-79 -59.5t-41 -105.5t-11 -158.5v-1100h-123v1126z" horiz-adv-x="409" unicode="ſ"/><glyph d="M473 774h-207l8 103h209l23 264q16 193 115.5 301t289.5 108q59 0 104.5 -9t67.5 -15l-28 -105q-16 4 -55 11.5t-80 7.5q-80 0 -134.5 -23.5t-88 -68.5t-51 -112t-23.5 -151l-17 -208h318l-6 -103h-322l-72 -831q-18 -205 -112.5 -310.5t-284.5 -105.5q-16 0 -38.5 2 t-45.5 5t-43 8t-35 9l23 101q31 -6 69.5 -12.5t67.5 -6.5q74 0 124 20.5t81.5 63.5t48 112t24.5 165z" horiz-adv-x="1138" unicode="ƒ"/><glyph d="M41 721q0 168 40 306t117.5 236.5t192.5 152.5t262 54q90 0 166 -20t139 -57q72 2 99.5 33.5t27.5 84.5q0 49 -13 89t-30 67h129q14 -29 25.5 -76t11.5 -84q0 -160 -143 -198q98 -100 147.5 -250t49.5 -338q0 -168 -40 -306.5t-117 -237.5t-191.5 -153.5t-262.5 -54.5 q-147 0 -262 54.5t-191.5 153.5t-116.5 237.5t-40 306.5zM176 721q0 -143 28.5 -259t88 -199t148.5 -128t210 -45t210 45t148.5 128t88 199t28.5 259t-28.5 259t-88 198t-148.5 127t-210 45t-210 -45t-148.5 -127t-88 -198t-28.5 -259z" horiz-adv-x="1366" unicode="Ơ"/><glyph d="M1042 1085q0 -76 -36.5 -121.5t-104.5 -66.5q59 -72 91 -171t32 -216t-30.5 -215t-89 -169t-146.5 -110t-201 -39q-115 0 -203 39t-146 110t-88 169t-30 215t31 214t89 168t145 110.5t202 39.5q143 0 248 -63q66 4 93.5 30.5t27.5 75.5t-12.5 88t-28.5 66h121 q14 -29 25 -73t11 -81zM557 88q176 0 260 113.5t84 308.5q0 190 -85 306t-259 116q-172 0 -257 -116t-85 -306q0 -195 84 -308.5t258 -113.5z" horiz-adv-x="1116" unicode="ơ"/><glyph d="M627 -33q-147 0 -242.5 44t-153 124t-80 189.5t-22.5 240.5v875h129v-846q0 -145 22.5 -243.5t68.5 -157t117 -83t165 -24.5t163.5 24.5t115.5 83t70 155.5t24 243v848h92q45 0 70.5 27.5t25.5 70.5q0 41 -12.5 77t-22.5 58h121q10 -23 22.5 -61.5t12.5 -81.5 q0 -84 -47 -131t-133 -60v-776q0 -131 -24 -240.5t-82 -188.5t-155.5 -123t-244.5 -44z" horiz-adv-x="1275" unicode="Ư"/><glyph d="M954 0h-112l-4 188q-49 -98 -138.5 -155.5t-230.5 -57.5q-168 0 -254 95.5t-86 281.5v664h121v-647q0 -80 18.5 -134.5t52 -87t79.5 -47t102 -14.5q80 0 141.5 37t104.5 96.5t64.5 134t21.5 152.5v510h73q55 2 87 25.5t32 72.5q0 33 -13.5 68t-25.5 57h121 q10 -23 21.5 -56.5t11.5 -72.5q0 -74 -48.5 -124t-138.5 -60v-926z" horiz-adv-x="1116" unicode="ư"/><glyph d="M469 690q-172 53 -264 146.5t-92 234.5q0 84 27.5 158t85 129t143.5 87t202 32q55 0 112.5 -8.5t111 -22.5t98.5 -33.5t76 -40.5l-49 -108q-47 31 -141.5 61.5t-215.5 30.5q-156 0 -237.5 -72t-81.5 -197q0 -49 13 -87.5t44 -71.5t82 -59.5t127 -53.5l147 -51 q176 -61 255 -153.5t79 -237.5q0 -84 -29.5 -158t-88 -128t-147.5 -86t-206 -32q-88 0 -163.5 14.5t-136 35t-102.5 42t-61 35.5l54 109q29 -18 68.5 -38t91 -37t115 -28.5t136.5 -11.5q152 0 244 67.5t92 204.5q0 102 -59.5 172t-200.5 115zM641 -209q0 -39 -12.5 -81 t-32 -83t-43 -77.5t-44.5 -65.5l-65 39q25 43 48.5 97t31.5 87q-29 10 -54.5 35t-25.5 59q0 43 25.5 72t68.5 29q47 0 75 -31t28 -80z" horiz-adv-x="1069" unicode="Ș"/><glyph d="M104 168q45 -27 130 -55.5t202 -28.5q74 0 124 14.5t81 39t44 57t13 67.5q0 74 -44 120t-171 69l-110 20q-66 12 -119 31.5t-93 52.5t-61.5 79t-21.5 114q0 141 104.5 217.5t272.5 76.5q102 0 185 -22.5t130 -46.5l-43 -101q-47 25 -113.5 43.5t-152.5 18.5 q-135 0 -200.5 -47t-65.5 -125q0 -39 10 -67.5t36.5 -49t69.5 -36t109 -27.5l112 -21q123 -25 204 -90t81 -190q0 -139 -99.5 -221.5t-279.5 -82.5q-127 0 -229.5 31t-149.5 62zM536 -211q0 -39 -12 -81t-31.5 -82t-43 -76.5t-44.5 -65.5l-63 39q25 43 48.5 98t31.5 88 q-29 10 -53.5 35t-24.5 55q0 43 24.5 72t67.5 29q47 0 73.5 -31t26.5 -80z" horiz-adv-x="876" unicode="ș"/><glyph d="M477 1319h-442v121h1012v-121h-441v-1319h-129v1319zM637 -209q0 -39 -12.5 -81t-32 -83t-43 -77.5t-44.5 -65.5l-65 39q25 43 48.5 97t31.5 87q-29 10 -54.5 35t-25.5 59q0 43 25.5 72t68.5 29q47 0 75 -31t28 -80z" horiz-adv-x="1081" unicode="Ț"/><glyph d="M588 96q29 0 53.5 2t42.5 6l12 -98q-20 -6 -61 -12t-90 -6q-164 0 -232.5 77.5t-68.5 217.5v626h-211v107h211v299l121 33v-332h309v-107h-309v-592q0 -70 14 -112.5t43 -67t71 -33t95 -8.5zM536 -211q0 -39 -12 -81t-31.5 -82t-43 -76.5t-44.5 -65.5l-63 39 q25 43 48.5 98t31.5 88q-29 10 -53.5 35t-24.5 55q0 43 24.5 72t67.5 29q47 0 73.5 -31t26.5 -80z" horiz-adv-x="731" unicode="ț"/><glyph d="M287 -29q0 -215 -80 -322.5t-260 -107.5q-29 0 -67 5t-60 14l14 102q20 -4 48 -8t55 -4q74 0 118.5 21.5t69.5 66.5t33 113.5t8 162.5v1002h121v-1045z" horiz-adv-x="423" unicode="ȷ"/><glyph d="M143 1425q0 53 30 82t71 29q49 0 74.5 -35t25.5 -92q0 -55 -22.5 -120.5t-51 -123t-56.5 -101.5t-40 -56l-70 45q12 23 31 58.5t35 75.5t29.5 76.5t17.5 63.5q-29 8 -51.5 32.5t-22.5 65.5z" horiz-adv-x="485" unicode="ʼ"/><glyph d="M158 1253l278 258h99l278 -258l-72 -67l-256 203l-256 -203z" horiz-adv-x="960" unicode="ˆ"/><glyph d="M487 1307l254 202l72 -67l-276 -258h-101l-278 258l73 67z" horiz-adv-x="960" unicode="ˇ"/><glyph d="M190 1257v109h582v-109h-582z" horiz-adv-x="960" unicode="ˉ"/><glyph d="M475 1280q88 0 136 45t48 139h111q0 -59 -17.5 -110t-53 -91t-92 -62.5t-134.5 -22.5q-80 0 -136 22.5t-92 61t-52.5 91t-16.5 111.5h115q0 -94 49 -139t135 -45z" horiz-adv-x="960" unicode="˘"/><glyph d="M387 1311q0 45 26.5 72.5t67.5 27.5t65.5 -27.5t24.5 -72.5t-24.5 -72t-65.5 -27t-67.5 27t-26.5 72z" horiz-adv-x="960" unicode="˙"/><glyph d="M698 1380q0 -98 -60 -154.5t-155 -56.5q-96 0 -157.5 56.5t-61.5 152.5q0 98 63.5 154.5t155.5 56.5q96 0 155.5 -56.5t59.5 -152.5zM606 1378q0 59 -34.5 93t-90.5 34q-51 0 -87 -32.5t-36 -94.5q0 -59 35 -93t88 -34q55 0 90 34t35 93z" horiz-adv-x="960" unicode="˚"/><glyph d="M584 -365q-14 -2 -22.5 -3t-29.5 -1q-86 0 -143 35t-57 117q0 66 37 118t96 99h113q-55 -41 -96.5 -90t-41.5 -107q0 -41 24.5 -63.5t84.5 -22.5q27 0 35 2v-84z" horiz-adv-x="960" unicode="˛"/><glyph d="M324 1421q51 0 89 -18.5t69.5 -42t63.5 -42t70 -18.5q51 0 72 32t21 87h108q0 -111 -51 -169t-150 -58q-49 0 -85.5 18.5t-70.5 41t-64.5 41t-67.5 18.5q-51 0 -73 -31t-22 -86h-108q0 106 50.5 166.5t148.5 60.5z" horiz-adv-x="960" unicode="˜"/><glyph d="M487 1229l289 327l90 -81l-303 -314zM80 1229l289 327l90 -81l-303 -314z" horiz-adv-x="960" unicode="˝"/><glyph d="M453 1571l102 -64l-205 -303l-80 51z" horiz-adv-x="821" unicode="΄"/><glyph d="M575 1575l115 -49l-158 -330l-88 41zM205 1329q0 43 26.5 70.5t65.5 27.5q41 0 66.5 -27.5t25.5 -70.5q0 -47 -25.5 -73.5t-66.5 -26.5q-39 0 -65.5 26.5t-26.5 73.5zM696 1329q0 43 27 70.5t65 27.5q41 0 67 -27.5t26 -70.5q0 -47 -26 -73.5t-67 -26.5q-39 0 -65.5 26.5 t-26.5 73.5z" horiz-adv-x="1085" unicode="΅"/><glyph d="M856 401h-588l-131 -401h-131l481 1440h152l483 -1440h-137zM303 514h516l-256 776zM172 1440l125 -35l-125 -365l-98 29z" horiz-adv-x="1128" unicode="Ά"/><glyph d="M316 1440h794v-119h-665v-512h520v-119h-520v-571h686v-119h-815v1440zM69 1440l125 -35l-125 -365l-98 29z" horiz-adv-x="1181" unicode="Έ"/><glyph d="M1176 1440h129v-1440h-129v709h-731v-709h-129v1440h129v-611h731v611zM69 1440l125 -35l-125 -365l-98 29z" horiz-adv-x="1456" unicode="Ή"/><glyph d="M445 0h-129v1440h129v-1440zM69 1440l125 -35l-125 -365l-98 29z" horiz-adv-x="595" unicode="Ί"/><glyph d="M172 721q0 168 40 306t118 236.5t192.5 152.5t262.5 54q147 0 261 -54t190.5 -152.5t116.5 -236.5t40 -306t-40 -306.5t-116.5 -237.5t-191.5 -153.5t-262 -54.5t-262 54.5t-192 153.5t-117 237.5t-40 306.5zM308 721q0 -143 28.5 -259t88 -199t148.5 -128t210 -45 t210 45t148.5 128t88 199t28.5 259t-28.5 259t-88 198t-148.5 127t-210 45t-210 -45t-148.5 -127t-88 -198t-28.5 -259zM69 1440l125 -35l-125 -365l-98 29z" horiz-adv-x="1497" unicode="Ό"/><glyph d="M69 1440l125 -35l-125 -365l-98 29zM709 629l-453 811h148l374 -688l383 688h140l-463 -807v-633h-129v629z" horiz-adv-x="1306" unicode="Ύ"/><glyph d="M69 1440l125 -35l-125 -365l-98 29zM836 1350q-111 0 -199 -38t-151.5 -115t-97 -191.5t-33.5 -270.5q0 -141 28.5 -246.5t74.5 -181.5t102.5 -126t111.5 -81v-100h-514v115h319q-35 31 -78.5 83t-83.5 128.5t-68 178t-28 230.5q0 152 38 286t115 233.5t192.5 157.5 t273.5 58q154 0 266.5 -58t187 -158.5t111.5 -234.5t37 -286q0 -123 -26.5 -224t-66.5 -178t-86 -131.5t-85 -84.5h328v-115h-515v100q57 33 113.5 84.5t102 126t73 178t27.5 244.5q0 299 -127 458t-342 159z" horiz-adv-x="1519" unicode="Ώ"/><glyph d="M399 96q23 0 47.5 6.5t34.5 10.5l23 -99q-14 -8 -51 -17t-76 -9q-133 0 -190.5 71.5t-57.5 227.5v729h121v-694q0 -68 7 -112t24.5 -68.5t46 -35t71.5 -10.5zM249 1575l115 -49l-158 -330l-88 41zM-121 1329q0 43 26.5 70.5t65.5 27.5q41 0 66.5 -27.5t25.5 -70.5 q0 -47 -25.5 -73.5t-66.5 -26.5q-39 0 -65.5 26.5t-26.5 73.5zM370 1329q0 43 27 70.5t65 27.5q41 0 67 -27.5t26 -70.5q0 -47 -26 -73.5t-67 -26.5q-39 0 -65.5 26.5t-26.5 73.5z" horiz-adv-x="503" unicode="ΐ"/><glyph d="M856 401h-588l-131 -401h-131l481 1440h152l483 -1440h-137zM303 514h516l-256 776z" horiz-adv-x="1128" unicode="Α"/><glyph d="M555 1440q113 0 193.5 -30t132 -79t76 -114.5t24.5 -139.5q0 -70 -20.5 -124t-52 -94t-69.5 -65.5t-71 -37.5q51 -12 102.5 -40t92.5 -71t67.5 -104.5t26.5 -141.5q0 -178 -115 -288.5t-360 -110.5h-430v1440h403zM532 799q172 0 247 77.5t75 200.5q0 70 -26.5 118 t-69.5 76.5t-99.5 41t-117.5 12.5h-265v-526h256zM598 115q176 0 252 75.5t76 210.5q0 141 -97.5 213t-277.5 72h-275v-571h322z" horiz-adv-x="1153" unicode="Β"/><glyph d="M152 1440h780v-121h-651v-1319h-129v1440z" horiz-adv-x="962" unicode="Γ"/><glyph d="M6 0l483 1440h146l487 -1440h-1116zM172 117h778l-389 1177z" horiz-adv-x="1128" unicode="Δ"/><glyph d="M152 1440h794v-119h-665v-512h520v-119h-520v-571h686v-119h-815v1440z" horiz-adv-x="1017" unicode="Ε"/><glyph d="M66 106l808 1215h-788v119h944v-107l-811 -1214h836v-119h-989v106z" horiz-adv-x="1112" unicode="Ζ"/><glyph d="M1012 1440h129v-1440h-129v709h-731v-709h-129v1440h129v-611h731v611z" horiz-adv-x="1292" unicode="Η"/><glyph d="M401 659v121h625v-121h-625zM104 721q0 168 40 306t118 236.5t192.5 152.5t262.5 54q147 0 261 -54t190.5 -152.5t116.5 -236.5t40 -306t-40 -306.5t-116.5 -237.5t-191.5 -153.5t-262 -54.5t-262 54.5t-192 153.5t-117 237.5t-40 306.5zM240 721q0 -143 28.5 -259 t88 -199t148.5 -128t210 -45t210 45t148.5 128t88 199t28.5 259t-28.5 259t-88 198t-148.5 127t-210 45t-210 -45t-148.5 -127t-88 -198t-28.5 -259z" horiz-adv-x="1429" unicode="Θ"/><glyph d="M281 0h-129v1440h129v-1440z" horiz-adv-x="432" unicode="Ι"/><glyph d="M281 0h-129v1440h129v-664l600 664h157l-604 -670l647 -770h-170l-630 750v-750z" horiz-adv-x="1081" unicode="Κ"/><glyph d="M547 1255l-406 -1255h-135l481 1440h123l494 -1440h-141z" horiz-adv-x="1110" unicode="Λ"/><glyph d="M1370 1440v-1440h-131v1229l-430 -793h-113l-417 768v-1204h-132v1440h148l463 -856l461 856h151z" horiz-adv-x="1525" unicode="Μ"/><glyph d="M276 1217v-1217h-124v1440h143l723 -1211v1211h125v-1440h-133z" horiz-adv-x="1294" unicode="Ν"/><glyph d="M76 1438h825v-125h-825v125zM61 125h854v-125h-854v125zM137 811h703v-125h-703v125z" horiz-adv-x="976" unicode="Ξ"/><glyph d="M104 721q0 168 40 306t118 236.5t192.5 152.5t262.5 54q147 0 261 -54t190.5 -152.5t116.5 -236.5t40 -306t-40 -306.5t-116.5 -237.5t-191.5 -153.5t-262 -54.5t-262 54.5t-192 153.5t-117 237.5t-40 306.5zM240 721q0 -143 28.5 -259t88 -199t148.5 -128t210 -45 t210 45t148.5 128t88 199t28.5 259t-28.5 259t-88 198t-148.5 127t-210 45t-210 -45t-148.5 -127t-88 -198t-28.5 -259z" horiz-adv-x="1429" unicode="Ο"/><glyph d="M152 1440h954v-1440h-129v1319h-696v-1319h-129v1440z" horiz-adv-x="1257" unicode="Π"/><glyph d="M879 999q0 170 -88.5 248t-243.5 78h-271v-645h252q170 0 260.5 79.5t90.5 239.5zM1010 999q0 -86 -27 -164.5t-85 -139t-148.5 -96.5t-214.5 -36h-259v-563h-124v1440h401q119 0 205 -35t142 -94.5t83 -139.5t27 -172z" horiz-adv-x="1085" unicode="Ρ"/><glyph d="M217 119h834v-119h-990v102l484 635l-459 596v107h920v-119h-760l450 -580z" horiz-adv-x="1071" unicode="Σ"/><glyph d="M477 1319h-442v121h1012v-121h-441v-1319h-129v1319z" horiz-adv-x="1081" unicode="Τ"/><glyph d="M459 629l-453 811h148l374 -688l383 688h140l-463 -807v-633h-129v629z" horiz-adv-x="1056" unicode="Υ"/><glyph d="M840 1487v-170q145 -4 259.5 -46t194.5 -115t122 -173t42 -223t-42 -223.5t-122 -174t-194.5 -115.5t-259.5 -46v-201h-125v201q-147 2 -263 44t-196 115.5t-122 175t-42 224.5t42 223t122 173t195.5 115t263.5 46v170h125zM715 1202q-248 -6 -371 -121.5t-123 -320.5 t123 -321.5t371 -123.5v887zM840 315q248 6 368.5 123t120.5 322t-121 319.5t-368 122.5v-887z" horiz-adv-x="1550" unicode="Φ"/><glyph d="M33 0l475 768l-404 672h154l332 -568l350 568h139l-417 -674l458 -766h-155l-390 653l-397 -653h-145z" horiz-adv-x="1153" unicode="Χ"/><glyph d="M1475 924q0 -115 -34 -213.5t-105.5 -172t-187.5 -117.5t-278 -50v-371h-129v371q-164 4 -279.5 48t-188 118.5t-106.5 174t-34 214.5v514h129v-496q0 -203 115 -323.5t364 -131.5v951h129v-951q248 10 362 131t114 322v498h129v-516z" horiz-adv-x="1607" unicode="Ψ"/><glyph d="M762 1350q-111 0 -199 -38t-151.5 -115t-97 -191.5t-33.5 -270.5q0 -141 28.5 -246.5t74.5 -181.5t102.5 -126t111.5 -81v-100h-514v115h319q-35 31 -78.5 83t-83.5 128.5t-68 178t-28 230.5q0 152 38 286t115 233.5t192.5 157.5t273.5 58q154 0 266.5 -58t187 -158.5 t111.5 -234.5t37 -286q0 -123 -26.5 -224t-66.5 -178t-86 -131.5t-85 -84.5h328v-115h-515v100q57 33 113.5 84.5t102 126t73 178t27.5 244.5q0 299 -127 458t-342 159z" horiz-adv-x="1519" unicode="Ω"/><glyph d="M281 0h-129v1440h129v-1440zM-82 1735q0 47 27.5 74.5t68.5 27.5t67.5 -27.5t26.5 -74.5t-26.5 -75t-67.5 -28t-68.5 28t-27.5 75zM328 1735q0 47 26.5 74.5t67.5 27.5t68.5 -27.5t27.5 -74.5t-27.5 -75t-68.5 -28t-67.5 28t-26.5 75z" horiz-adv-x="432" unicode="Ϊ"/><glyph d="M459 629l-453 811h148l374 -688l383 688h140l-463 -807v-633h-129v629zM229 1735q0 47 27.5 74.5t68.5 27.5t67.5 -27.5t26.5 -74.5t-26.5 -75t-67.5 -28t-68.5 28t-27.5 75zM639 1735q0 47 26.5 74.5t67.5 27.5t68.5 -27.5t27.5 -74.5t-27.5 -75t-68.5 -28t-67.5 28 t-26.5 75z" horiz-adv-x="1056" unicode="Ϋ"/><glyph d="M1085 96q18 0 39 4t29 9l21 -93q-10 -8 -43 -16t-66 -8q-86 0 -135 48t-53 134q-18 -29 -50 -62.5t-77 -61t-101.5 -46t-124.5 -18.5q-82 0 -159.5 25.5t-138 86t-97.5 160.5t-37 250q0 111 29 208t83 169.5t133 114.5t179 42q250 0 350 -186v160h121v-793 q0 -127 98 -127zM526 932q-80 0 -138 -33t-96 -89t-56.5 -134t-18.5 -168q0 -111 23.5 -189.5t64.5 -128t98.5 -72t124.5 -22.5q76 0 134.5 27t100.5 64.5t67.5 78.5t35.5 72v170q0 211 -95 317.5t-245 106.5zM641 1571l102 -64l-205 -303l-80 51z" horiz-adv-x="1173" unicode="ά"/><glyph d="M688 475h-227q-111 0 -180.5 -43t-69.5 -143q0 -106 81 -154.5t218 -48.5q111 0 182.5 27.5t108.5 54.5l55 -86q-14 -12 -46 -30.5t-77 -35t-103.5 -28t-125.5 -11.5q-90 0 -166 18.5t-131 55.5t-87 93.5t-32 134.5q0 104 54.5 165.5t131.5 83.5q-29 6 -56.5 22.5 t-49 43.5t-35.5 65.5t-14 90.5q0 59 23.5 112t71.5 93t122 63.5t176 23.5q59 0 112.5 -12t97.5 -30.5t75.5 -40t50.5 -39.5l-64 -86q-37 35 -110.5 67.5t-161.5 32.5q-135 0 -202.5 -49t-67.5 -135q0 -78 47 -121t170 -43h229v-111zM586 1571l102 -64l-205 -303l-80 51z" horiz-adv-x="897" unicode="έ"/><glyph d="M250 0h-121v1016h113l4 -182q47 98 138 153t214 55q174 0 261 -96t87 -282v-1115h-121v1098q0 80 -18.5 135.5t-52 88t-79.5 47t-100 14.5q-78 0 -138 -36t-101 -94.5t-63.5 -134t-22.5 -153.5v-514zM646 1571l102 -64l-205 -303l-80 51z" horiz-adv-x="1067" unicode="ή"/><glyph d="M399 96q23 0 47.5 6.5t34.5 10.5l23 -99q-14 -8 -51 -17t-76 -9q-133 0 -190.5 71.5t-57.5 227.5v729h121v-694q0 -68 7 -112t24.5 -68.5t46 -35t71.5 -10.5zM254 1571l102 -64l-205 -303l-80 51z" horiz-adv-x="503" unicode="ί"/><glyph d="M532 -23q-201 0 -305 104.5t-104 291.5v643h121v-627q0 -147 78.5 -224t212.5 -77q133 0 211.5 70.5t78.5 230.5v627h121v-643q0 -186 -110.5 -291t-303.5 -105zM569 1575l115 -49l-158 -330l-88 41zM199 1329q0 43 26.5 70.5t65.5 27.5q41 0 66.5 -27.5t25.5 -70.5 q0 -47 -25.5 -73.5t-66.5 -26.5q-39 0 -65.5 26.5t-26.5 73.5zM690 1329q0 43 27 70.5t65 27.5q41 0 67 -27.5t26 -70.5q0 -47 -26 -73.5t-67 -26.5q-39 0 -65.5 26.5t-26.5 73.5z" horiz-adv-x="1069" unicode="ΰ"/><glyph d="M1085 96q18 0 39 4t29 9l21 -93q-10 -8 -43 -16t-66 -8q-86 0 -135 48t-53 134q-18 -29 -50 -62.5t-77 -61t-101.5 -46t-124.5 -18.5q-82 0 -159.5 25.5t-138 86t-97.5 160.5t-37 250q0 111 29 208t83 169.5t133 114.5t179 42q250 0 350 -186v160h121v-793 q0 -127 98 -127zM526 932q-80 0 -138 -33t-96 -89t-56.5 -134t-18.5 -168q0 -111 23.5 -189.5t64.5 -128t98.5 -72t124.5 -22.5q76 0 134.5 27t100.5 64.5t67.5 78.5t35.5 72v170q0 211 -95 317.5t-245 106.5z" horiz-adv-x="1173" unicode="α"/><glyph d="M584 -14q-129 0 -211 40t-123 83v-560h-121v1493q0 238 101.5 373t322.5 135q88 0 158.5 -28.5t120 -76.5t76 -112.5t26.5 -136.5q0 -123 -59.5 -207t-143.5 -112q57 -14 110.5 -46t92.5 -84.5t62.5 -127t23.5 -173.5q0 -104 -34 -189t-92 -145.5t-138 -93t-172 -32.5z M582 94q66 0 123 21.5t99 65.5t66.5 112.5t24.5 163.5q0 98 -29.5 165.5t-79 109.5t-114 61.5t-133.5 19.5h-97v109h119q106 0 180 73.5t74 200.5q0 111 -70.5 179.5t-199.5 68.5q-166 0 -230.5 -105.5t-64.5 -304.5v-774q14 -25 43 -53.5t69.5 -54t96 -42t123.5 -16.5z" horiz-adv-x="1091" unicode="β"/><glyph d="M539 59v-510h-123v498l-408 969h135l336 -828l334 828h129z" horiz-adv-x="952" unicode="γ"/><glyph d="M217 1536h688v-104h-516l305 -318q74 -76 130.5 -143.5t95 -139t59 -153.5t20.5 -184q0 -117 -32.5 -212.5t-91 -163t-140.5 -104.5t-180 -37q-100 0 -184 32t-145.5 96.5t-95.5 160.5t-34 226q0 119 37 211t98.5 155.5t143.5 96t172 32.5q39 0 83 -10t66 -27l-479 502 v84zM559 88q74 0 132.5 28.5t100.5 82t63.5 127t21.5 166.5q0 98 -25 170.5t-69 120.5t-103 72t-129 24q-158 0 -244 -104.5t-86 -282.5q0 -106 25.5 -183.5t69.5 -126.5t106.5 -71.5t136.5 -22.5z" horiz-adv-x="1091" unicode="δ"/><glyph d="M688 475h-227q-111 0 -180.5 -43t-69.5 -143q0 -106 81 -154.5t218 -48.5q111 0 182.5 27.5t108.5 54.5l55 -86q-14 -12 -46 -30.5t-77 -35t-103.5 -28t-125.5 -11.5q-90 0 -166 18.5t-131 55.5t-87 93.5t-32 134.5q0 104 54.5 165.5t131.5 83.5q-29 6 -56.5 22.5 t-49 43.5t-35.5 65.5t-14 90.5q0 59 23.5 112t71.5 93t122 63.5t176 23.5q59 0 112.5 -12t97.5 -30.5t75.5 -40t50.5 -39.5l-64 -86q-37 35 -110.5 67.5t-161.5 32.5q-135 0 -202.5 -49t-67.5 -135q0 -78 47 -121t170 -43h229v-111z" horiz-adv-x="897" unicode="ε"/><glyph d="M457 45q-96 8 -165 41t-114 85t-65.5 121.5t-20.5 151.5q0 123 44 239t120 233.5t176 243.5t215 270h-522v106h682v-78q-45 -57 -105.5 -131t-126 -157t-130 -172t-114.5 -180t-82 -178t-32 -167q0 -145 58.5 -223t211.5 -94l121 -13q98 -10 151.5 -66.5t53.5 -154.5 q0 -33 -7 -64.5t-16.5 -57t-18.5 -43t-13 -23.5l-94 43q6 12 18 48t12 73q0 70 -35.5 101.5t-107.5 37.5z" horiz-adv-x="817" unicode="ζ"/><glyph d="M250 0h-121v1016h113l4 -182q47 98 138 153t214 55q174 0 261 -96t87 -282v-1115h-121v1098q0 80 -18.5 135.5t-52 88t-79.5 47t-100 14.5q-78 0 -138 -36t-101 -94.5t-63.5 -134t-22.5 -153.5v-514z" horiz-adv-x="1067" unicode="η"/><glyph d="M92 758q0 383 112.5 587.5t342.5 204.5q229 0 337.5 -205.5t108.5 -586.5q0 -387 -108.5 -582.5t-341.5 -195.5t-342 198.5t-109 579.5zM549 90q162 0 240.5 151.5t82.5 479.5h-659q4 -328 87 -479.5t249 -151.5zM543 1440q-158 0 -239 -145.5t-91 -465.5h657 q-8 319 -89.5 465t-237.5 146z" horiz-adv-x="1085" unicode="θ"/><glyph d="M399 96q23 0 47.5 6.5t34.5 10.5l23 -99q-14 -8 -51 -17t-76 -9q-133 0 -190.5 71.5t-57.5 227.5v729h121v-694q0 -68 7 -112t24.5 -68.5t46 -35t71.5 -10.5z" horiz-adv-x="503" unicode="ι"/><glyph d="M250 541l463 475h147l-469 -479l506 -537h-156l-491 520v-520h-121v1016h121v-475z" horiz-adv-x="897" unicode="κ"/><glyph d="M477 866l-342 -866h-127l412 1016l-74 207q-29 86 -67.5 121.5t-104.5 35.5q-25 0 -55.5 -7t-57.5 -17l-28 94q25 14 71 26.5t84 12.5q96 0 160 -49t107 -170l458 -1270h-127z" horiz-adv-x="921" unicode="λ"/><glyph d="M129 1016h121v-631q0 -158 70.5 -228.5t181.5 -70.5q78 0 139 36t104 94t66 134t23 158v508h120v-1016h-112l-4 190q-16 -37 -46 -74.5t-74 -69.5t-101.5 -51.5t-131.5 -19.5q-37 0 -73.5 10.5t-68.5 27t-56.5 37t-38.5 38.5v-539h-119v1467z" horiz-adv-x="1083" unicode="μ"/><glyph d="M393 0l-385 1016h133l322 -889l317 889h127l-383 -1016h-131z" horiz-adv-x="917" unicode="ν"/><glyph d="M637 143q104 -10 157.5 -66.5t53.5 -150.5q0 -35 -7 -67.5t-16.5 -58t-18.5 -43t-13 -23.5l-95 43q6 12 18.5 48t12.5 75q0 66 -35 98.5t-106 38.5l-129 12q-98 8 -168 45t-114 92.5t-64.5 127t-20.5 153.5q0 80 22.5 145.5t58.5 114.5t82 83t93 50q-31 10 -64.5 35 t-63.5 62.5t-49 91t-19 120.5q0 76 28.5 144.5t82.5 121t132 84t174 31.5q106 0 180 -28.5t128 -67.5l-56 -94q-41 27 -100 53.5t-152 26.5q-57 0 -110 -16.5t-94 -50.5t-66 -85t-25 -119t22.5 -115.5t61.5 -78.5t90.5 -45.5t106.5 -14.5h180v-110h-198q-63 0 -121 -19.5 t-102 -61.5t-70.5 -105.5t-26.5 -149.5q0 -66 14.5 -119t47 -93t86 -65.5t131.5 -33.5z" horiz-adv-x="880" unicode="ξ"/><glyph d="M553 88q174 0 256 113.5t82 308.5q0 190 -83 306t-255 116q-170 0 -253 -116t-83 -306q0 -195 82 -308.5t254 -113.5zM553 1042q115 0 201 -39.5t144 -110.5t87 -168t29 -214t-30 -215t-88 -169t-144 -110t-199 -39q-115 0 -201 39t-143 110t-87 169t-30 215t30 214 t88 168t144 110.5t199 39.5z" horiz-adv-x="1105" unicode="ο"/><glyph d="M1090 96q31 0 49 2t28 6l11 -100q-20 -4 -55.5 -10t-69.5 -6q-115 0 -169.5 64.5t-54.5 215.5v647h-440v-915h-121v915h-221v111h1127v-111h-222v-624q0 -61 8.5 -99t26 -59.5t43 -29t60.5 -7.5z" horiz-adv-x="1218" unicode="π"/><glyph d="M575 932q-160 0 -242.5 -106.5t-82.5 -309.5v-256q16 -27 46 -56.5t71 -54t93 -40t113 -15.5q72 0 131.5 24.5t102.5 77t66.5 133.5t23.5 193q0 90 -18.5 165t-57.5 129t-99.5 85t-146.5 31zM582 1042q104 0 185 -36.5t138.5 -104t87 -164t29.5 -215.5q0 -150 -40 -252 t-103.5 -165.5t-142.5 -91t-158 -27.5q-111 0 -194 34.5t-134 88.5v-560h-121v965q0 137 35 237.5t95 165t143.5 95t179.5 30.5z" horiz-adv-x="1114" unicode="ρ"/><glyph d="M129 518q0 119 32 216t91 166t143 105.5t191 36.5q63 0 113.5 -10t88 -25.5t62 -33t41.5 -29.5l-55 -92q-12 8 -35 21.5t-53.5 25.5t-70.5 21.5t-85 9.5q-147 0 -242.5 -100.5t-95.5 -309.5q0 -74 14.5 -137.5t46 -111.5t85 -77.5t132.5 -37.5l134 -13q100 -10 152 -67.5 t52 -147.5q0 -35 -7 -67.5t-16 -59t-18.5 -44t-13.5 -23.5l-94 43q6 12 18.5 49t12.5 78q0 66 -36 96.5t-108 36.5l-110 10q-92 8 -162 46t-116 100.5t-68.5 145.5t-22.5 179z" horiz-adv-x="960" unicode="ς"/><glyph d="M1073 1016v-103h-225q57 -66 102 -175t45 -261q0 -104 -31.5 -195.5t-90 -159t-141.5 -106.5t-187 -39q-111 0 -196 39t-141 109t-86 163t-30 204q0 248 133 386t367 138h481zM555 88q141 0 229 107.5t88 298.5q0 76 -15 142t-37.5 119.5t-51.5 93.5t-55 60h-127 q-180 0 -274.5 -103.5t-94.5 -295.5q0 -195 82 -308.5t256 -113.5z" horiz-adv-x="1134" unicode="σ"/><glyph d="M651 96q51 0 86 11.5t51 19.5l29 -96q-16 -10 -64 -26.5t-126 -16.5q-139 0 -214 74.5t-75 226.5v620h-338v107h870v-107h-411v-577q0 -72 12 -117t36.5 -71.5t60.5 -37t83 -10.5z" horiz-adv-x="894" unicode="τ"/><glyph d="M532 -23q-201 0 -305 104.5t-104 291.5v643h121v-627q0 -147 78.5 -224t212.5 -77q133 0 211.5 70.5t78.5 230.5v627h121v-643q0 -186 -110.5 -291t-303.5 -105z" horiz-adv-x="1069" unicode="υ"/><glyph d="M614 -20q-262 16 -393 160.5t-131 387.5q0 98 26.5 181.5t64.5 148t80 109.5t71 67l78 -80q-25 -20 -59 -57t-64.5 -89t-52 -121t-21.5 -152q0 -209 108.5 -320t292.5 -125v936q10 2 27.5 4t36 3t34 1h25.5q111 0 207 -31.5t169 -95t115 -161t42 -226.5q0 -121 -40 -217 t-113 -165.5t-171 -109.5t-215 -48v-431h-117v431zM731 90q190 14 303 124t113 308q0 188 -103.5 296t-281.5 108q-6 0 -12.5 -1t-10.5 -1h-8v-834z" horiz-adv-x="1361" unicode="φ"/><glyph d="M748 1016h126l-344 -694l383 -773h-133l-321 658l-322 -658h-131l387 773l-342 694h129l285 -584z" horiz-adv-x="919" unicode="χ"/><glyph d="M1272 467q0 -104 -25.5 -191.5t-85 -151t-158 -101t-245.5 -43.5v-431h-119v431q-147 6 -246.5 43.5t-159 101t-85 150.5t-25.5 192v549h121v-531q0 -98 20.5 -170.5t67.5 -121t121.5 -74t185.5 -31.5v928h119v-928q109 6 184.5 31.5t121.5 74t66.5 121t20.5 170.5v531 h121v-549z" horiz-adv-x="1394" unicode="ψ"/><glyph d="M213 465q0 -186 64.5 -282.5t199.5 -96.5q117 0 172.5 67.5t55.5 223.5v309h120v-309q0 -156 55.5 -223.5t170.5 -67.5q125 0 195.5 95t70.5 276q0 125 -26.5 210t-63.5 139t-78 85t-72 47l62 96q47 -25 99 -70.5t97 -115.5t74 -163t29 -216q0 -121 -30 -212t-81 -153.5 t-119.5 -94.5t-148.5 -32q-113 0 -187.5 49.5t-109.5 135.5q-37 -88 -110.5 -136.5t-180.5 -48.5q-176 0 -277.5 119t-101.5 355q0 125 29 222t74 168.5t97 119t99 73.5l62 -96q-31 -16 -72 -50t-78 -89.5t-63.5 -137t-26.5 -196.5z" horiz-adv-x="1529" unicode="ω"/><glyph d="M399 96q23 0 47.5 6.5t34.5 10.5l23 -99q-14 -8 -51 -17t-76 -9q-133 0 -190.5 71.5t-57.5 227.5v729h121v-694q0 -68 7 -112t24.5 -68.5t46 -35t71.5 -10.5zM-104 1329q0 47 27.5 74.5t68.5 27.5t67.5 -27.5t26.5 -74.5t-26.5 -75t-67.5 -28t-68.5 28t-27.5 75z M306 1329q0 47 26.5 74.5t67.5 27.5t68.5 -27.5t27.5 -74.5t-27.5 -75t-68.5 -28t-67.5 28t-26.5 75z" horiz-adv-x="503" unicode="ϊ"/><glyph d="M532 -23q-201 0 -305 104.5t-104 291.5v643h121v-627q0 -147 78.5 -224t212.5 -77q133 0 211.5 70.5t78.5 230.5v627h121v-643q0 -186 -110.5 -291t-303.5 -105zM238 1329q0 47 27.5 74.5t68.5 27.5t67.5 -27.5t26.5 -74.5t-26.5 -75t-67.5 -28t-68.5 28t-27.5 75z M648 1329q0 47 26.5 74.5t67.5 27.5t68.5 -27.5t27.5 -74.5t-27.5 -75t-68.5 -28t-67.5 28t-26.5 75z" horiz-adv-x="1069" unicode="ϋ"/><glyph d="M553 88q174 0 256 113.5t82 308.5q0 190 -83 306t-255 116q-170 0 -253 -116t-83 -306q0 -195 82 -308.5t254 -113.5zM553 1042q115 0 201 -39.5t144 -110.5t87 -168t29 -214t-30 -215t-88 -169t-144 -110t-199 -39q-115 0 -201 39t-143 110t-87 169t-30 215t30 214 t88 168t144 110.5t199 39.5zM641 1571l102 -64l-205 -303l-80 51z" horiz-adv-x="1105" unicode="ό"/><glyph d="M532 -23q-201 0 -305 104.5t-104 291.5v643h121v-627q0 -147 78.5 -224t212.5 -77q133 0 211.5 70.5t78.5 230.5v627h121v-643q0 -186 -110.5 -291t-303.5 -105zM615 1571l102 -64l-205 -303l-80 51z" horiz-adv-x="1069" unicode="ύ"/><glyph d="M213 465q0 -186 64.5 -282.5t199.5 -96.5q117 0 172.5 67.5t55.5 223.5v309h120v-309q0 -156 55.5 -223.5t170.5 -67.5q125 0 195.5 95t70.5 276q0 125 -26.5 210t-63.5 139t-78 85t-72 47l62 96q47 -25 99 -70.5t97 -115.5t74 -163t29 -216q0 -121 -30 -212t-81 -153.5 t-119.5 -94.5t-148.5 -32q-113 0 -187.5 49.5t-109.5 135.5q-37 -88 -110.5 -136.5t-180.5 -48.5q-176 0 -277.5 119t-101.5 355q0 125 29 222t74 168.5t97 119t99 73.5l62 -96q-31 -16 -72 -50t-78 -89.5t-63.5 -137t-26.5 -196.5zM877 1571l102 -64l-205 -303l-80 51z" horiz-adv-x="1529" unicode="ώ"/><glyph d="M152 1440h794v-119h-665v-512h520v-119h-520v-571h686v-119h-815v1440zM809 1655l-41 -94l-477 202l53 119z" horiz-adv-x="1017" unicode="Ѐ"/><glyph d="M152 1440h794v-119h-665v-512h520v-119h-520v-571h686v-119h-815v1440zM252 1708q0 49 29 78t69 29q43 0 71 -29t28 -78q0 -47 -28 -76.5t-71 -29.5q-41 0 -69.5 29.5t-28.5 76.5zM658 1708q0 49 28.5 78t69.5 29q43 0 71.5 -29t28.5 -78q0 -47 -28.5 -76.5t-71.5 -29.5 q-41 0 -69.5 29.5t-28.5 76.5z" horiz-adv-x="1017" unicode="Ё"/><glyph d="M528 813q45 18 128 37.5t200 19.5q217 0 339 -117.5t122 -334.5q0 -104 -36 -185t-96.5 -136.5t-141 -83t-173.5 -27.5q-35 0 -71.5 3t-67.5 13l23 109q29 -8 59.5 -10.5t54.5 -2.5q68 0 126.5 18.5t101.5 57.5t66.5 99.5t23.5 142.5q0 76 -19.5 137t-61.5 105t-108.5 69 t-162.5 25q-104 0 -181.5 -20.5t-124.5 -39.5v-692h-129v1319h-368v121h948v-121h-451v-506z" horiz-adv-x="1392" unicode="Ђ"/><glyph d="M152 1440h780v-121h-651v-1319h-129v1440zM776 1882l54 -119l-478 -202l-41 94z" horiz-adv-x="962" unicode="Ѓ"/><glyph d="M723 1346q-217 0 -341 -136.5t-142 -410.5h657v-117h-659q6 -309 132 -448.5t353 -139.5q68 0 124 12.5t103 31t84 41t64 42.5l59 -94q-70 -59 -183.5 -104.5t-258.5 -45.5q-313 0 -463 190.5t-150 545.5q0 168 38 306t115 236.5t192.5 152.5t271.5 54q84 0 153.5 -16 t123 -40t91 -49.5t60.5 -45.5l-68 -97q-51 43 -138 87.5t-218 44.5z" horiz-adv-x="1208" unicode="Є"/><glyph d="M469 690q-172 53 -264 146.5t-92 234.5q0 84 27.5 158t85 129t143.5 87t202 32q55 0 112.5 -8.5t111 -22.5t98.5 -33.5t76 -40.5l-49 -108q-47 31 -141.5 61.5t-215.5 30.5q-156 0 -237.5 -72t-81.5 -197q0 -49 13 -87.5t44 -71.5t82 -59.5t127 -53.5l147 -51 q176 -61 255 -153.5t79 -237.5q0 -84 -29.5 -158t-88 -128t-147.5 -86t-206 -32q-88 0 -163.5 14.5t-136 35t-102.5 42t-61 35.5l54 109q29 -18 68.5 -38t91 -37t115 -28.5t136.5 -11.5q152 0 244 67.5t92 204.5q0 102 -59.5 172t-200.5 115z" horiz-adv-x="1069" unicode="Ѕ"/><glyph d="M281 0h-129v1440h129v-1440z" horiz-adv-x="432" unicode="І"/><glyph d="M281 0h-129v1440h129v-1440zM-84 1708q0 49 29 78t69 29q43 0 71 -29t28 -78q0 -47 -28 -76.5t-71 -29.5q-41 0 -69.5 29.5t-28.5 76.5zM322 1708q0 49 28.5 78t69.5 29q43 0 71.5 -29t28.5 -78q0 -47 -28.5 -76.5t-71.5 -29.5q-41 0 -69.5 29.5t-28.5 76.5z" horiz-adv-x="432" unicode="Ї"/><glyph d="M627 1440h129v-1065q0 -219 -101.5 -313.5t-281.5 -94.5q-76 0 -137.5 12.5t-107.5 30t-73.5 32.5t-36.5 21l50 103q8 -4 33.5 -17.5t64.5 -28t87 -25.5t101 -11q70 0 122 15.5t85 51t49.5 95t16.5 147.5v1047z" horiz-adv-x="894" unicode="Ј"/><glyph d="M1722 436q0 170 -88 246t-243 76h-267v-641h260q164 0 251 79.5t87 239.5zM539 1032q-4 -90 -12.5 -222t-28.5 -263q-12 -74 -34 -169t-65 -180t-112.5 -142.5t-177.5 -57.5h-19.5t-21.5 2v117q90 0 145 42t87 106.5t48.5 144t28.5 157.5q18 117 27.5 245t13.5 245 l14 383h692v-566h271q119 0 205 -33.5t142 -93t82.5 -139.5t26.5 -172q0 -86 -26.5 -164.5t-81.5 -139t-143.5 -96.5t-210.5 -36h-394v1321h-446z" horiz-adv-x="1927" unicode="Љ"/><glyph d="M1696 428q0 170 -88 241.5t-244 71.5h-266v-624h260q164 0 251 75.5t87 235.5zM969 741h-688v-741h-129v1440h129v-582h688v582h129v-582h270q119 0 205 -32.5t142.5 -91t83 -136.5t26.5 -170q0 -86 -26.5 -163t-82 -136t-143.5 -94t-211 -35h-393v741z" horiz-adv-x="1900" unicode="Њ"/><glyph d="M528 815q37 14 130.5 31.5t222.5 17.5q111 0 190.5 -31.5t130.5 -88t76 -136.5t25 -178v-430h-129v410q0 76 -13.5 137t-50.5 105t-100.5 67.5t-163.5 23.5q-113 0 -194 -16t-124 -33v-694h-129v1319h-368v121h948v-121h-451v-504z" horiz-adv-x="1425" unicode="Ћ"/><glyph d="M281 0h-129v1440h129v-664l600 664h157l-604 -670l647 -770h-170l-630 750v-750zM854 1882l54 -119l-478 -202l-41 94z" horiz-adv-x="1081" unicode="Ќ"/><glyph d="M281 233l723 1207h139v-1440h-129v1237l-742 -1237h-120v1440h129v-1207zM885 1655l-41 -94l-477 202l53 119z" horiz-adv-x="1294" unicode="Ѝ"/><glyph d="M573 598l383 842h138l-670 -1440h-137l219 459l-494 981h146zM565 1655q88 0 136 45t48 139h111q0 -59 -17.5 -110t-53 -91t-92 -62.5t-134.5 -22.5q-80 0 -136 22.5t-92 61t-52.5 91t-16.5 111.5h115q0 -94 49 -139t135 -45z" horiz-adv-x="1105" unicode="Ў"/><glyph d="M152 0v1440h129v-1323h723v1323h129v-1440h-431v-326h-120v326h-430z" horiz-adv-x="1284" unicode="Џ"/><glyph d="M856 401h-588l-131 -401h-131l481 1440h152l483 -1440h-137zM303 514h516l-256 776z" horiz-adv-x="1128" unicode="А"/><glyph d="M901 430q0 164 -88 237.5t-244 73.5h-290v-624h284q164 0 251 79.5t87 233.5zM279 858h294q119 0 205 -33.5t142.5 -92t83 -136.5t26.5 -166q0 -82 -26.5 -159.5t-82 -137t-143.5 -96.5t-211 -37h-415v1440h790v-119h-663v-463z" horiz-adv-x="1112" unicode="Б"/><glyph d="M555 1440q113 0 193.5 -30t132 -79t76 -114.5t24.5 -139.5q0 -70 -20.5 -124t-52 -94t-69.5 -65.5t-71 -37.5q51 -12 102.5 -40t92.5 -71t67.5 -104.5t26.5 -141.5q0 -178 -115 -288.5t-360 -110.5h-430v1440h403zM532 799q172 0 247 77.5t75 200.5q0 70 -26.5 118 t-69.5 76.5t-99.5 41t-117.5 12.5h-265v-526h256zM598 115q176 0 252 75.5t76 210.5q0 141 -97.5 213t-277.5 72h-275v-571h322z" horiz-adv-x="1153" unicode="В"/><glyph d="M152 1440h780v-121h-651v-1319h-129v1440z" horiz-adv-x="962" unicode="Г"/><glyph d="M131 117q68 86 111 188.5t69.5 220t37.5 249.5t18 276l14 389h717v-1323h133v-443h-121v326h-969v-326h-121v443h111zM487 1030q-4 -123 -15 -248t-34.5 -243.5t-63.5 -226t-102 -195.5h697v1204h-471z" horiz-adv-x="1267" unicode="Д"/><glyph d="M152 1440h794v-119h-665v-512h520v-119h-520v-571h686v-119h-815v1440z" horiz-adv-x="1017" unicode="Е"/><glyph d="M180 0h-151l592 764l-558 676h154l547 -666v666h125v-660l547 660h145l-549 -666l600 -774h-159l-584 758v-758h-125v752z" horiz-adv-x="1660" unicode="Ж"/><glyph d="M336 682v117h160q168 0 246.5 82t78.5 204q0 135 -81 204t-234 69q-129 0 -213 -27.5t-141 -60.5l-48 100q31 20 77 40t99.5 35t111 23.5t112.5 8.5q117 0 202 -29t139 -79t80.5 -120.5t26.5 -154.5q0 -68 -21.5 -125.5t-54 -100.5t-72.5 -72.5t-77 -43.5q49 -12 97 -40 t87 -74t63.5 -110.5t24.5 -148.5q0 -88 -29.5 -163t-88 -130t-147.5 -86t-206 -31q-86 0 -161.5 15.5t-135 36t-102.5 42t-61 35.5l51 105q29 -18 68.5 -38t92 -37t115 -28.5t135.5 -11.5q152 0 244 69.5t92 217.5q0 164 -95 235.5t-275 71.5h-160z" horiz-adv-x="1095" unicode="З"/><glyph d="M281 233l723 1207h139v-1440h-129v1237l-742 -1237h-120v1440h129v-1207z" horiz-adv-x="1294" unicode="И"/><glyph d="M281 233l723 1207h139v-1440h-129v1237l-742 -1237h-120v1440h129v-1207zM651 1655q88 0 136 45t48 139h111q0 -59 -17.5 -110t-53 -91t-92 -62.5t-134.5 -22.5q-80 0 -136 22.5t-92 61t-52.5 91t-16.5 111.5h115q0 -94 49 -139t135 -45z" horiz-adv-x="1294" unicode="Й"/><glyph d="M281 0h-129v1440h129v-664l600 664h157l-604 -670l647 -770h-170l-630 750v-750z" horiz-adv-x="1081" unicode="К"/><glyph d="M492 1032q-4 -90 -12.5 -222t-28.5 -263q-12 -74 -34 -169t-65 -180t-112.5 -142.5t-178.5 -57.5h-19t-22 2v117q90 0 145.5 42t87.5 106.5t48 144t29 157.5q18 117 27.5 245t13.5 245l14 383h725v-1440h-129v1321h-479z" horiz-adv-x="1261" unicode="Л"/><glyph d="M1370 1440v-1440h-131v1229l-430 -793h-113l-417 768v-1204h-132v1440h148l463 -856l461 856h151z" horiz-adv-x="1525" unicode="М"/><glyph d="M1012 1440h129v-1440h-129v709h-731v-709h-129v1440h129v-611h731v611z" horiz-adv-x="1292" unicode="Н"/><glyph d="M104 721q0 168 40 306t118 236.5t192.5 152.5t262.5 54q147 0 261 -54t190.5 -152.5t116.5 -236.5t40 -306t-40 -306.5t-116.5 -237.5t-191.5 -153.5t-262 -54.5t-262 54.5t-192 153.5t-117 237.5t-40 306.5zM240 721q0 -143 28.5 -259t88 -199t148.5 -128t210 -45 t210 45t148.5 128t88 199t28.5 259t-28.5 259t-88 198t-148.5 127t-210 45t-210 -45t-148.5 -127t-88 -198t-28.5 -259z" horiz-adv-x="1429" unicode="О"/><glyph d="M1137 1440v-1440h-129v1319h-727v-1319h-129v1440h985z" horiz-adv-x="1288" unicode="П"/><glyph d="M879 999q0 170 -88.5 248t-243.5 78h-271v-645h252q170 0 260.5 79.5t90.5 239.5zM1010 999q0 -86 -27 -164.5t-85 -139t-148.5 -96.5t-214.5 -36h-259v-563h-124v1440h401q119 0 205 -35t142 -94.5t83 -139.5t27 -172z" horiz-adv-x="1085" unicode="Р"/><glyph d="M723 1346q-231 0 -358 -161t-127 -472q0 -324 127 -471.5t358 -147.5q68 0 124 12.5t102 31t83 41t64 42.5l61 -94q-70 -59 -183.5 -104.5t-258.5 -45.5q-313 0 -463 190.5t-150 545.5q0 168 38 306t115 236.5t192.5 152.5t271.5 54q84 0 153.5 -16t123 -40t91 -49.5 t60.5 -45.5l-68 -97q-27 20 -60.5 44t-77.5 43.5t-98 32t-120 12.5z" horiz-adv-x="1208" unicode="С"/><glyph d="M477 1319h-442v121h1012v-121h-441v-1319h-129v1319z" horiz-adv-x="1081" unicode="Т"/><glyph d="M573 598l383 842h138l-670 -1440h-137l219 459l-494 981h146z" horiz-adv-x="1105" unicode="У"/><glyph d="M840 1487v-170q145 -4 259.5 -46t194.5 -115t122 -173t42 -223t-42 -223.5t-122 -174t-194.5 -115.5t-259.5 -46v-201h-125v201q-147 2 -263 44t-196 115.5t-122 175t-42 224.5t42 223t122 173t195.5 115t263.5 46v170h125zM715 1202q-248 -6 -371 -121.5t-123 -320.5 t123 -321.5t371 -123.5v887zM840 315q248 6 368.5 123t120.5 322t-121 319.5t-368 122.5v-887z" horiz-adv-x="1550" unicode="Ф"/><glyph d="M33 0l475 768l-404 672h154l332 -568l350 568h139l-417 -674l458 -766h-155l-390 653l-397 -653h-145z" horiz-adv-x="1153" unicode="Х"/><glyph d="M1249 117v-443h-121v326h-976v1440h129v-1323h706v1323h129v-1323h133z" horiz-adv-x="1286" unicode="Ц"/><glyph d="M907 1440h129v-1440h-129v653q-37 -14 -132 -31.5t-230 -17.5q-115 0 -198 31t-135 88t-76.5 136t-24.5 177v404h129v-383q0 -76 14 -137.5t52 -104.5t103.5 -66.5t170.5 -23.5q121 0 202.5 16.5t124.5 32.5v666z" horiz-adv-x="1187" unicode="Ч"/><glyph d="M152 0v1440h129v-1323h536v1323h129v-1323h537v1323h129v-1440h-1460z" horiz-adv-x="1763" unicode="Ш"/><glyph d="M152 0v1440h129v-1323h530v1323h129v-1323h530v1323h129v-1323h134v-443h-121v326h-1460z" horiz-adv-x="1769" unicode="Щ"/><glyph d="M807 874q119 0 205 -33.5t142 -93t83 -139.5t27 -172q0 -86 -27 -164.5t-82 -139t-143 -96.5t-211 -36h-402v1319h-368v121h497v-566h279zM1135 436q0 170 -88.5 246t-243.5 76h-275v-641h269q164 0 251 79.5t87 239.5z" horiz-adv-x="1339" unicode="Ъ"/><glyph d="M879 436q0 170 -88.5 246t-243.5 76h-266v-641h260q164 0 251 79.5t87 239.5zM1008 436q0 -86 -27 -164.5t-82 -139t-143 -96.5t-211 -36h-393v1440h129v-566h270q119 0 205 -33.5t142 -93t83 -139.5t27 -172zM1329 0h-129v1440h129v-1440z" horiz-adv-x="1480" unicode="Ы"/><glyph d="M901 436q0 170 -88 246t-244 76h-288v-641h282q164 0 251 79.5t87 239.5zM1030 436q0 -86 -26.5 -164.5t-82 -139t-143.5 -96.5t-211 -36h-415v1440h129v-566h292q119 0 205 -33.5t142.5 -93t83 -139.5t26.5 -172z" horiz-adv-x="1105" unicode="Ь"/><glyph d="M510 94q225 0 349 147.5t134 440.5h-659v117h657q-8 143 -46 246.5t-100.5 171t-147.5 99.5t-185 32q-131 0 -218 -43t-138 -86l-64 92q20 20 59 46.5t93.5 50.5t124 40t153.5 16q143 0 256 -50t191 -144t118.5 -231.5t40.5 -311.5q0 -170 -37.5 -308t-114.5 -236.5 t-193.5 -152t-272.5 -53.5q-145 0 -260 42t-184 102l59 100q27 -20 65.5 -42.5t87 -41t106.5 -31t126 -12.5z" horiz-adv-x="1230" unicode="Э"/><glyph d="M1155 -31q-137 0 -242.5 51.5t-178 143.5t-112.5 221t-47 287h-294v-672h-129v1440h129v-652h297q8 154 49 279t113.5 215t177 139t239.5 49q141 0 250 -54t181.5 -152.5t110.5 -236.5t38 -306t-38 -306.5t-112 -237.5t-182.5 -153.5t-249.5 -54.5zM709 721 q0 -143 26.5 -259t81.5 -199t139 -128t199 -45q113 0 197 45t139 128t83 199t28 259t-28 259t-83 198t-139 127t-197 45q-115 0 -199 -45t-139 -127t-81.5 -198t-26.5 -259z" horiz-adv-x="1841" unicode="Ю"/><glyph d="M131 1006q0 76 24.5 153.5t79 140t142.5 101.5t215 39h391v-1440h-127v592h-328l-325 -592h-142l338 618q-123 41 -195.5 145t-72.5 243zM258 1012q0 -141 83 -224t257 -83h258v620h-250q-182 0 -265 -85t-83 -228z" horiz-adv-x="1134" unicode="Я"/><glyph d="M743 492q-16 4 -45.5 9t-68.5 9t-84 7t-88 3q-152 0 -212.5 -63.5t-60.5 -169.5q0 -109 67.5 -158t176.5 -49q61 0 118.5 24.5t101.5 65.5t69.5 93t25.5 108v121zM381 -25q-53 0 -109.5 16.5t-102.5 53.5t-76 96.5t-30 145.5q0 152 95.5 245t287.5 93q45 0 92.5 -3.5 t87.5 -8.5t70.5 -10t46.5 -7v90q0 133 -75.5 190.5t-216.5 57.5q-100 0 -171 -25.5t-112 -48.5l-41 94q39 23 127 54.5t227 31.5q180 0 279.5 -85t99.5 -259v-696h-110l-5 145q-31 -49 -72.5 -81.5t-91 -52t-101.5 -28t-99 -8.5z" horiz-adv-x="987" unicode="а"/><glyph d="M225 780q55 123 155.5 180.5t231.5 57.5q94 0 175 -35t140.5 -100.5t92.5 -159.5t33 -213q0 -250 -121 -391.5t-346 -141.5q-127 0 -216 45.5t-146.5 131.5t-83 208.5t-25.5 278.5q0 197 24.5 349.5t91 262t186.5 174t310 84.5l39 5q78 8 124 15t73 17l20 -106 q-45 -18 -192 -33l-39 -4q-141 -14 -237.5 -52t-158 -111t-92.5 -185.5t-39 -276.5zM586 88q176 0 260 107.5t84 312.5q0 88 -20.5 161.5t-62.5 127t-104.5 83t-146.5 29.5q-82 0 -146.5 -30.5t-108.5 -83t-67.5 -125t-23.5 -154.5q0 -205 84 -316.5t252 -111.5z" horiz-adv-x="1130" unicode="б"/><glyph d="M920 289q0 -53 -17.5 -104.5t-61.5 -92.5t-119 -66.5t-187 -25.5h-406v1016h387q106 0 174 -22.5t107 -59.5t53 -84t14 -98q0 -72 -40 -131.5t-111 -88.5q117 -29 162 -93t45 -150zM799 289q0 184 -273 184h-278v-373h282q145 0 207 48.5t62 140.5zM748 752 q0 86 -56.5 124.5t-193.5 38.5h-250v-344h246q254 1 254 181z" horiz-adv-x="985" unicode="в"/><glyph d="M801 1016v-111h-551v-905h-121v1016h672z" horiz-adv-x="817" unicode="г"/><glyph d="M420 909l-6 -114q-8 -139 -18.5 -241.5t-29 -182.5t-46 -143.5t-66.5 -121.5h557v803h-391zM932 106h121v-372h-113v266h-811v-266h-113v372h105q43 55 73.5 117t51 141.5t34 185t19.5 251.5l10 215h623v-910z" horiz-adv-x="1087" unicode="д"/><glyph d="M592 88q92 0 157.5 20.5t104.5 36.5l37 -96q-31 -20 -113 -46t-198 -26q-248 0 -369 138.5t-121 392.5q0 121 31 220t88 169t140 107.5t188 37.5q98 0 176 -29.5t132 -96t82.5 -170t28.5 -250.5v-25h-745q10 -178 101.5 -280.5t279.5 -102.5zM836 575q-10 170 -78 264.5 t-223 94.5q-154 0 -230 -94.5t-92 -264.5h623z" horiz-adv-x="1042" unicode="е"/><glyph d="M481 530l-446 486h151l428 -481v481h119v-477l430 477h144l-441 -477l471 -539h-149l-455 526v-526h-119v522l-456 -522h-142z" horiz-adv-x="1351" unicode="ж"/><glyph d="M418 936q-102 0 -169 -22.5t-110 -45.5l-41 93q39 23 124 52t204 29q102 0 173 -23.5t114 -61t62.5 -88t19.5 -103.5q0 -80 -47.5 -144.5t-120.5 -89.5q115 -29 163 -99.5t48 -164.5q0 -61 -28 -114.5t-79 -92t-125 -61.5t-164 -23q-129 0 -226 31t-144 62l43 96 q51 -29 130 -55.5t195 -26.5q152 0 214.5 54.5t62.5 137.5q0 193 -275 193h-174v104h158q123 0 186.5 48.5t63.5 136.5q0 86 -66.5 132t-191.5 46z" horiz-adv-x="919" unicode="з"/><glyph d="M252 0h-123v1016h121v-842l581 842h127v-1016h-120v848z" horiz-adv-x="1087" unicode="и"/><glyph d="M252 0h-123v1016h121v-842l581 842h127v-1016h-120v848zM545 1280q88 0 136 45t48 139h111q0 -59 -17.5 -110t-53 -91t-92 -62.5t-134.5 -22.5q-80 0 -136 22.5t-92 61t-52.5 91t-16.5 111.5h115q0 -94 49 -139t135 -45z" horiz-adv-x="1087" unicode="й"/><glyph d="M393 537l520 -537h-157l-506 524v-524h-121v1016h121v-475l481 475h152z" horiz-adv-x="913" unicode="к"/><glyph d="M422 909l-8 -153q-10 -166 -23.5 -288t-40.5 -210q-41 -137 -117.5 -198.5t-189.5 -61.5q-23 0 -33 2v104q82 0 137.5 36t90.5 147q23 76 37 193.5t24 293.5l12 242h633v-1016h-121v909h-401z" horiz-adv-x="1073" unicode="л"/><glyph d="M1102 1016v-1016h-119v827l-326 -522h-92l-319 510v-815h-117v1016h123l364 -584l361 584h125z" horiz-adv-x="1230" unicode="м"/><glyph d="M948 0h-121v467h-577v-467h-121v1016h121v-438h577v438h121v-1016z" horiz-adv-x="1077" unicode="н"/><glyph d="M557 88q176 0 260 113.5t84 308.5q0 190 -85 306t-259 116q-172 0 -257 -116t-85 -306q0 -195 84 -308.5t258 -113.5zM557 1042q117 0 204 -39.5t145.5 -110.5t88 -168t29.5 -214t-30.5 -215t-89 -169t-146.5 -110t-201 -39q-115 0 -203 39t-146 110t-88 169t-30 215 t31 214t89 168t145 110.5t202 39.5z" horiz-adv-x="1116" unicode="о"/><glyph d="M938 0h-121v905h-567v-905h-121v1016h809v-1016z" horiz-adv-x="1067" unicode="п"/><glyph d="M590 932q-98 0 -164 -39t-104.5 -101.5t-55 -142.5t-16.5 -160v-268q14 -18 45 -40.5t73 -42t93 -32t108 -12.5q145 0 236.5 104.5t91.5 323.5q0 88 -18.5 163t-56.5 130t-95 86t-137 31zM606 1042q104 0 182 -39.5t130.5 -109.5t78 -165t25.5 -206q0 -150 -40 -252 t-103.5 -165.5t-142.5 -91t-158 -27.5q-100 0 -183.5 28.5t-144.5 67.5v-533h-121v1467h113l4 -178q43 96 135 150t225 54z" horiz-adv-x="1112" unicode="р"/><glyph d="M215 510q0 -111 25.5 -189.5t69.5 -131t106.5 -77t136.5 -24.5q94 0 153.5 20.5t96.5 38.5l45 -90q-29 -23 -101.5 -51.5t-201.5 -28.5q-217 0 -336 137.5t-119 393.5q0 119 32 217t91 169t143 109.5t191 38.5q63 0 113.5 -10t88 -25.5t62.5 -33t41 -29.5l-57 -92 q-29 20 -89.5 50t-152.5 30q-147 0 -242.5 -104.5t-95.5 -317.5z" horiz-adv-x="888" unicode="с"/><glyph d="M874 1016v-109h-368v-907h-121v907h-369v109h858z" horiz-adv-x="890" unicode="т"/><glyph d="M8 1016h139l322 -819l328 819h133l-613 -1467h-127l211 500z" horiz-adv-x="937" unicode="у"/><glyph d="M764 1024q131 -2 236.5 -40t177 -105.5t110.5 -160.5t39 -208t-38 -208t-110.5 -160.5t-177 -105.5t-237.5 -40v-447h-119v445q-135 2 -239.5 40t-176 105.5t-109.5 161.5t-38 209t38 208t110.5 160.5t177 105.5t237.5 40v512h119v-512zM207 510q0 -186 108.5 -297 t329.5 -115v822q-221 -4 -329.5 -114t-108.5 -296zM1202 510q0 186 -109.5 294.5t-328.5 115.5v-822q219 4 328.5 115t109.5 297z" horiz-adv-x="1409" unicode="ф"/><glyph d="M719 1016h133l-332 -479l369 -537h-141l-306 446l-292 -446h-136l363 530l-330 486h139l267 -398z" horiz-adv-x="905" unicode="х"/><glyph d="M928 -266v266h-799v1016h121v-912h549v912h121v-912h120v-370h-112z" horiz-adv-x="1075" unicode="ц"/><glyph d="M94 1016h121v-291q0 -55 12.5 -100t44 -77t85 -49.5t137.5 -17.5q104 0 174.5 13.5t101.5 23.5v498h121v-1016h-121v408q-29 -8 -106.5 -22.5t-200.5 -14.5q-98 0 -169 24.5t-115 68.5t-64.5 106.5t-20.5 138.5v307z" horiz-adv-x="1019" unicode="ч"/><glyph d="M129 1016h121v-912h424v912h121v-912h424v912h120v-1016h-1210v1016z" horiz-adv-x="1468" unicode="ш"/><glyph d="M129 0v1016h121v-912h420v912h121v-912h419v912h121v-912h121v-370h-113v266h-1210z" horiz-adv-x="1486" unicode="щ"/><glyph d="M965 319q0 215 -281 216h-264v-435h260q150 0 217.5 56.5t67.5 162.5zM420 1016v-381h266q111 0 186.5 -25.5t122.5 -68.5t67.5 -100.5t20.5 -121.5q0 -61 -20.5 -118.5t-67.5 -101.5t-123.5 -71.5t-189.5 -27.5h-381v909h-285v107h404z" horiz-adv-x="1136" unicode="ъ"/><glyph d="M784 319q0 215 -280 216h-254v-435h250q150 0 217 56.5t67 162.5zM903 319q0 -61 -20.5 -118.5t-67.5 -101.5t-124 -71.5t-189 -27.5h-373v1016h121v-381h256q111 0 186.5 -25.5t122.5 -68.5t67.5 -101t20.5 -121zM1069 1016h123v-1016h-123v1016z" horiz-adv-x="1320" unicode="ы"/><glyph d="M807 319q0 215 -281 216h-276v-435h272q150 0 217.5 56.5t67.5 162.5zM926 319q0 -61 -20.5 -118.5t-67.5 -101.5t-124 -71.5t-190 -27.5h-395v1016h121v-381h278q111 0 187 -25.5t123 -68.5t67.5 -101t20.5 -121z" horiz-adv-x="978" unicode="ь"/><glyph d="M393 -23q-66 0 -120 9.5t-96 24t-71.5 29.5t-44.5 26l45 96q35 -18 106 -46t175 -28q141 0 233.5 94t102.5 287h-459v104h459q-16 186 -107.5 272.5t-224.5 86.5q-96 0 -156.5 -27.5t-89.5 -48.5l-53 90q14 12 41 29.5t63.5 32t87 24.5t115.5 10q100 0 182.5 -35.5 t141.5 -103t92 -166t33 -225.5q0 -119 -30 -217t-88 -169t-143 -110t-194 -39z" horiz-adv-x="937" unicode="э"/><glyph d="M934 -23q-104 0 -185 35t-137.5 99.5t-87 152.5t-37.5 197h-237v-461h-121v1016h121v-451h239q6 106 38 193.5t88.5 151t136 98t182.5 34.5q111 0 194.5 -39.5t140 -110.5t85 -168t28.5 -214t-29.5 -215t-86 -169t-140 -110t-192.5 -39zM934 88q166 0 244.5 113.5 t78.5 308.5q0 190 -80.5 306t-242.5 116q-166 0 -245 -113.5t-79 -308.5q0 -190 80 -306t244 -116z" horiz-adv-x="1474" unicode="ю"/><glyph d="M121 711q0 61 20.5 116.5t68.5 97.5t125 66.5t189 24.5h353v-1016h-119v414h-303l-271 -414h-133l287 438q-117 31 -167 103t-50 170zM240 711q0 -109 73.5 -154t192.5 -45h252v403h-232q-150 0 -218 -49t-68 -155z" horiz-adv-x="1005" unicode="я"/><glyph d="M592 88q92 0 157.5 20.5t104.5 36.5l37 -96q-31 -20 -113 -46t-198 -26q-248 0 -369 138.5t-121 392.5q0 121 31 220t88 169t140 107.5t188 37.5q98 0 176 -29.5t132 -96t82.5 -170t28.5 -250.5v-25h-745q10 -178 101.5 -280.5t279.5 -102.5zM836 575q-10 170 -78 264.5 t-223 94.5q-154 0 -230 -94.5t-92 -264.5h623zM821 1294l-47 -92l-462 217l57 115z" horiz-adv-x="1042" unicode="ѐ"/><glyph d="M592 88q92 0 157.5 20.5t104.5 36.5l37 -96q-31 -20 -113 -46t-198 -26q-248 0 -369 138.5t-121 392.5q0 121 31 220t88 169t140 107.5t188 37.5q98 0 176 -29.5t132 -96t82.5 -170t28.5 -250.5v-25h-745q10 -178 101.5 -280.5t279.5 -102.5zM836 575q-10 170 -78 264.5 t-223 94.5q-154 0 -230 -94.5t-92 -264.5h623zM246 1311q0 47 27.5 74.5t68.5 27.5t67.5 -27.5t26.5 -74.5t-26.5 -75t-67.5 -28t-68.5 28t-27.5 75zM656 1311q0 47 26.5 74.5t67.5 27.5t68.5 -27.5t27.5 -74.5t-27.5 -75t-68.5 -28t-67.5 28t-26.5 75z" horiz-adv-x="1042" unicode="ё"/><glyph d="M977 -29q0 -215 -80 -322.5t-260 -107.5q-29 0 -67 5t-60 14l14 102q20 -4 48 -8t55 -4q74 0 119 21.5t69.5 66.5t32.5 113.5t8 162.5v633q0 80 -19.5 135.5t-53 88t-80 47t-101.5 14.5q-80 0 -141.5 -36t-103.5 -94.5t-64.5 -133t-22.5 -152.5v-516h-120v1245h-142v103 h142v188h120v-188h383v-103h-383v-405q47 98 137.5 150t225.5 52q166 0 255 -96t89 -282v-693z" horiz-adv-x="1097" unicode="ђ"/><glyph d="M801 1016v-111h-551v-905h-121v1016h672zM661 1534l57 -115l-462 -217l-48 92z" horiz-adv-x="817" unicode="ѓ"/><glyph d="M215 469q10 -197 103.5 -288t234.5 -91q94 0 153.5 19.5t96.5 37.5l45 -90q-29 -23 -101.5 -51.5t-201.5 -28.5q-217 0 -336 137.5t-119 393.5q0 119 32 217t91 169t143 109.5t191 38.5q63 0 113.5 -10t88 -25.5t62.5 -33t41 -29.5l-55 -90q-14 8 -37 21.5t-53.5 25.5 t-69.5 20.5t-84 8.5q-137 0 -229.5 -88t-106.5 -269h438v-104h-440z" horiz-adv-x="888" unicode="є"/><glyph d="M104 168q45 -27 130 -55.5t202 -28.5q74 0 124 14.5t81 39t44 57t13 67.5q0 74 -44 120t-171 69l-110 20q-66 12 -119 31.5t-93 52.5t-61.5 79t-21.5 114q0 141 104.5 217.5t272.5 76.5q102 0 185 -22.5t130 -46.5l-43 -101q-47 25 -113.5 43.5t-152.5 18.5 q-135 0 -200.5 -47t-65.5 -125q0 -39 10 -67.5t36.5 -49t69.5 -36t109 -27.5l112 -21q123 -25 204 -90t81 -190q0 -139 -99.5 -221.5t-279.5 -82.5q-127 0 -229.5 31t-149.5 62z" horiz-adv-x="876" unicode="ѕ"/><glyph d="M137 1016h121v-1016h-121v1016zM104 1356q0 45 26 72.5t67 27.5t67.5 -27.5t26.5 -72.5q0 -47 -26.5 -74t-67.5 -27t-67 28t-26 73z" horiz-adv-x="395" unicode="і"/><glyph d="M184 1016h123v-1016h-123v1016zM-55 1354q0 47 27.5 74.5t68.5 27.5t67.5 -27.5t26.5 -74.5t-26.5 -75t-67.5 -28t-68.5 28t-27.5 75zM355 1354q0 47 26.5 74.5t67.5 27.5t68.5 -27.5t27.5 -74.5t-27.5 -75t-68.5 -28t-67.5 28t-26.5 75z" horiz-adv-x="491" unicode="ї"/><glyph d="M287 -29q0 -215 -80 -322.5t-260 -107.5q-29 0 -67 5t-60 14l14 102q20 -4 48 -8t55 -4q74 0 118.5 21.5t69.5 66.5t33 113.5t8 162.5v1002h121v-1045zM133 1356q0 45 25.5 72.5t66.5 27.5t67.5 -27.5t26.5 -72.5q0 -47 -26.5 -74t-67.5 -27t-66.5 28t-25.5 73z" horiz-adv-x="423" unicode="ј"/><glyph d="M1446 317q0 213 -281 213h-254v-430h250q150 0 217.5 55.5t67.5 161.5zM911 1016v-385h256q111 0 187 -24.5t123 -67.5t67.5 -100.5t20.5 -121.5q0 -61 -20.5 -117.5t-67.5 -101.5t-124 -71.5t-190 -26.5h-370v909h-371l-8 -153q-10 -166 -23.5 -288t-40.5 -210 q-41 -137 -117.5 -198.5t-189.5 -61.5q-23 0 -33 2v104q82 0 137.5 36t90.5 147q23 76 37 193.5t24 293.5l12 242h600z" horiz-adv-x="1617" unicode="љ"/><glyph d="M1171 618q111 0 187 -24.5t123 -65.5t67.5 -97t20.5 -118q0 -59 -20.5 -115.5t-67.5 -100.5t-124 -70.5t-190 -26.5h-370v518h-547v-518h-121v1016h121v-398h547v398h118v-398h256zM1450 313q0 205 -281 205h-254v-418h250q150 0 217.5 54.5t67.5 158.5z" horiz-adv-x="1622" unicode="њ"/><glyph d="M270 1348h383v-103h-383v-405q47 98 137.5 150t225.5 52q166 0 255 -96t89 -282v-664h-121v647q0 80 -19.5 135.5t-53 88t-80 47t-101.5 14.5q-84 0 -146.5 -38t-103.5 -98.5t-61.5 -136t-20.5 -153.5v-506h-120v1245h-142v103h142v188h120v-188z" horiz-adv-x="1097" unicode="ћ"/><glyph d="M393 537l520 -537h-157l-506 524v-524h-121v1016h121v-475l481 475h152zM692 1534l57 -115l-462 -217l-48 92z" horiz-adv-x="913" unicode="ќ"/><glyph d="M252 0h-123v1016h121v-842l581 842h127v-1016h-120v848zM786 1294l-47 -92l-462 217l57 115z" horiz-adv-x="1087" unicode="ѝ"/><glyph d="M8 1016h139l322 -819l328 819h133l-613 -1467h-127l211 500zM471 1280q88 0 136 45t48 139h111q0 -59 -17.5 -110t-53 -91t-92 -62.5t-134.5 -22.5q-80 0 -136 22.5t-92 61t-52.5 91t-16.5 111.5h115q0 -94 49 -139t135 -45z" horiz-adv-x="937" unicode="ў"/><glyph d="M129 0v1016h121v-912h559v912h121v-1016h-344v-266h-113v266h-344z" horiz-adv-x="1058" unicode="џ"/><glyph d="M1149 430q0 164 -88 237.5t-244 73.5h-291v-624h285q164 0 251 79.5t87 233.5zM993 1294v-118h-467v-318h295q119 0 205 -33.5t142.5 -92t83 -136.5t26.5 -166q0 -82 -26.5 -159.5t-82 -137t-143.5 -96.5t-211 -37h-416v1176h-368v118h368v193h127v-193h467z" horiz-adv-x="1353" unicode="Ѣ"/><glyph d="M963 319q0 215 -281 216h-276v-435h272q150 0 217.5 56.5t67.5 162.5zM285 1536h121v-520h382v-103h-382v-278h278q111 0 186.5 -25.5t122.5 -68.5t67.5 -100.5t20.5 -121.5q0 -61 -20.5 -118.5t-67.5 -101.5t-123.5 -71.5t-189.5 -27.5h-395v913h-285v103h285v520z" horiz-adv-x="1134" unicode="ѣ"/><glyph d="M104 721q0 168 40 306t118 236.5t192.5 152.5t262.5 54q147 0 261 -54t190.5 -152.5t116.5 -236.5t40 -306t-40 -306.5t-116.5 -237.5t-191.5 -153.5t-262 -54.5t-262 54.5t-192 153.5t-117 237.5t-40 306.5zM702 668q-53 29 -108 54.5t-115 25.5q-66 0 -121 -27 t-116 -96q8 -123 41.5 -221.5t93 -168t143.5 -107.5t195 -38q119 0 208 43t147 123t88 193.5t32 252.5q-53 -57 -121 -82.5t-135 -25.5q-63 0 -121 22.5t-111 51.5zM715 1350q-117 0 -205 -42t-147.5 -119t-90 -187.5t-32.5 -245.5q53 55 119.5 81.5t136.5 26.5 q63 0 120.5 -22.5t110.5 -50.5q53 -29 108.5 -54.5t114.5 -25.5q66 0 120 26.5t116 93.5q-10 119 -45 215.5t-93.5 164t-141 103.5t-191.5 36z" horiz-adv-x="1429" unicode="Ѳ"/><glyph d="M557 1042q117 0 204 -39.5t145.5 -110.5t88 -168t29.5 -214t-30.5 -215t-89 -169t-146.5 -110t-201 -39q-115 0 -203 39t-146 110t-88 169t-30 215t31 214t89 168t145 110.5t202 39.5zM545 461q-35 20 -73 36.5t-79 16.5q-47 0 -87 -15.5t-87 -66.5q16 -160 99 -252 t239 -92q172 0 256 106.5t88 292.5q-41 -41 -89 -60t-99 -19q-47 0 -87 15t-81 38zM557 932q-166 0 -251 -105.5t-91 -285.5q41 41 88 59t98 18q47 0 87 -15t81 -38q35 -20 74 -36.5t82 -16.5t84 14.5t88 67.5q-18 156 -102 247t-238 91z" horiz-adv-x="1116" unicode="ѳ"/><glyph d="M885 1192q16 53 39.5 99t57.5 80t82 53.5t116 19.5q8 0 30.5 -1t30.5 -3l-10 -113q-12 2 -26.5 2h-24.5q-43 0 -72 -14.5t-49.5 -39t-34.5 -59t-27 -75.5l-360 -1141h-125l-492 1440h140l415 -1260z" horiz-adv-x="1200" unicode="Ѵ"/><glyph d="M707 834q12 39 28.5 72.5t42 58t63.5 39t95 14.5q16 0 33.5 -1t29.5 -5l-10 -103q-20 4 -49 4q-61 0 -83.5 -33.5t-43.5 -88.5l-283 -791h-135l-387 1016h133l324 -893z" horiz-adv-x="999" unicode="ѵ"/><glyph d="M649 1655q88 0 136.5 45t48.5 139h110q0 -59 -17.5 -110.5t-53 -91.5t-92 -62.5t-134.5 -22.5q-80 0 -136 22.5t-92 61.5t-52.5 91.5t-16.5 111.5h115q0 -94 49 -139t135 -45zM281 233l723 1207h139v-1323h131v-60q0 -104 -33 -183t-82 -150l-51 -74l-94 67l49 72 q43 61 66.5 113.5t23.5 97.5h-139v1237l-742 -1237h-120v1440h129v-1207z" horiz-adv-x="1310" unicode="Ҋ"/><glyph d="M838 0v848l-586 -848h-123v1016h121v-842l581 842h127v-912h123v-51q0 -94 -29.5 -160.5t-74.5 -132.5l-37 -51l-84 60l35 51q39 55 58.5 97t19.5 83h-131zM545 1280q88 0 136 45t48 139h111q0 -59 -17.5 -110t-53.5 -91t-92 -62.5t-134 -22.5q-80 0 -136.5 22.5t-92 61 t-52 91t-16.5 111.5h114q0 -94 49.5 -139t135.5 -45z" horiz-adv-x="1105" unicode="ҋ"/><glyph d="M635 1264v-109h-332v-297h295q119 0 205 -33.5t142 -92t83 -136.5t27 -166q0 -82 -27 -159.5t-82 -137t-143 -96.5t-211 -37h-418v1155h-158v109h158v176h129v-176h332zM926 430q0 164 -88 237.5t-244 73.5h-291v-624h285q164 0 251 79.5t87 233.5z" horiz-adv-x="1130" unicode="Ҍ"/><glyph d="M539 606q111 0 186.5 -22.5t122.5 -62.5t67.5 -95t20.5 -119q0 -61 -20.5 -116.5t-67.5 -98.5t-124 -67.5t-189 -24.5h-385v786h-142v99h142v151h118v-151h316v-99h-316v-180h271zM817 307q0 109 -69.5 154t-210.5 45h-269v-406h264q150 0 217.5 50.5t67.5 156.5z" horiz-adv-x="989" unicode="ҍ"/><glyph d="M1010 999q0 -113 -47.5 -212t-151.5 -158l121 -185l-96 -61l-129 201q-74 -20 -172 -21h-259v-563h-124v1440h401q119 0 205 -35t142 -94.5t83 -139.5t27 -172zM881 999q0 170 -88 248t-244 78h-273v-645h254q29 0 56.5 3t52.5 7l-104 164l92 61l121 -186q133 80 133 270 z" horiz-adv-x="1085" unicode="Ҏ"/><glyph d="M735 12q-39 -14 -79 -20t-78 -6q-96 0 -179.5 27.5t-148.5 68.5v-533h-121v1467h113l4 -178q43 96 135 150t225 54q104 0 182 -39.5t130.5 -109.5t78 -165t25.5 -206q0 -178 -54.5 -288.5t-138.5 -170.5l107 -172l-92 -55zM590 932q-88 0 -151.5 -33t-105.5 -91 t-62.5 -140t-20.5 -181v-266q18 -23 50 -45t73 -40.5t91 -30t103 -11.5q27 0 53.5 3t55.5 14l-121 202l86 56l127 -207q61 49 95 137t34 223q0 88 -18.5 163t-56.5 130t-95 86t-137 31z" horiz-adv-x="1112" unicode="ҏ"/><glyph d="M813 1692h119v-373h-651v-1319h-129v1440h661v252z" horiz-adv-x="962" unicode="Ґ"/><glyph d="M250 905v-905h-121v1016h561v246h111v-357h-551z" horiz-adv-x="817" unicode="ґ"/><glyph d="M174 700h-158v113h158v627h780v-121h-651v-506h332v-113h-332v-700h-129v700z" horiz-adv-x="985" unicode="Ғ"/><glyph d="M821 1016v-111h-551v-327h281v-105h-281v-473h-120v473h-142v105h142v438h671z" horiz-adv-x="837" unicode="ғ"/><glyph d="M279 0h-127v1440h741v-121h-614v-518q49 20 119.5 33.5t162.5 13.5q111 0 201 -35t154.5 -108.5t99.5 -186t35 -268.5q0 -166 -44 -285t-115 -193.5t-162 -109.5t-183 -35q-41 0 -93.5 5.5t-76.5 15.5l22 110q33 -10 81 -13t75 -3q66 0 131.5 25.5t116.5 84t83 155.5 t32 239q0 254 -92.5 368.5t-288.5 114.5q-78 0 -143.5 -14.5t-114.5 -36.5v-678z" horiz-adv-x="1126" unicode="Ҕ"/><glyph d="M250 547q45 16 109.5 28.5t146.5 12.5q203 0 322.5 -123t119.5 -389q0 -147 -38 -247.5t-101.5 -164t-143 -91.5t-163.5 -28q-49 0 -90 5.5t-64 13.5l14 104q18 -4 59.5 -10t88.5 -6q57 0 113.5 19.5t100.5 66.5t70.5 129t26.5 205q0 219 -81 313t-255 94q-70 0 -129 -12 t-106 -35v-432h-121v1016h672v-111h-551v-358z" horiz-adv-x="1001" unicode="ҕ"/><glyph d="M889 758v-758h-125v752l-584 -752h-151l592 764l-558 676h154l547 -666v666h125v-660l547 660h145l-549 -666l510 -657h141v-443h-120v326h-88z" horiz-adv-x="1703" unicode="Җ"/><glyph d="M735 526v-526h-119v522l-456 -522h-144l467 530l-444 486h149l428 -481v481h119v-477l430 477h144l-441 -477l379 -435h125v-370h-112v266h-70z" horiz-adv-x="1380" unicode="җ"/><glyph d="M336 682v117h160q168 0 246.5 82t78.5 204q0 135 -81 204t-234 69q-129 0 -213 -27.5t-141 -60.5l-48 100q31 20 77 40t99.5 35t111 23.5t112.5 8.5q117 0 202 -29t139 -79t80.5 -120.5t26.5 -154.5q0 -68 -21.5 -125.5t-54 -100.5t-72.5 -72.5t-77 -43.5q49 -12 97 -40 t87 -74t63.5 -110.5t24.5 -148.5q0 -86 -28.5 -160t-85 -128t-141.5 -87t-197 -35l-15 -69q102 -8 152.5 -59.5t50.5 -125.5q0 -98 -69.5 -151t-182.5 -53q-86 0 -134 14t-58 18l20 92q35 -10 72 -19t84 -9q72 0 111.5 23.5t39.5 80.5q0 45 -33.5 70.5t-109.5 25.5 q-16 0 -34.5 -1t-34.5 -5l36 172q-72 6 -132 22.5t-108 35t-83 37t-51 30.5l51 105q29 -18 68.5 -38t92 -37t115 -28.5t135.5 -11.5q152 0 244 69.5t92 217.5q0 164 -95 235.5t-275 71.5h-160z" horiz-adv-x="1095" unicode="Ҙ"/><glyph d="M418 936q-102 0 -169 -22.5t-110 -45.5l-41 93q39 23 124 52t204 29q102 0 173 -23.5t114 -61t62.5 -88t19.5 -103.5q0 -80 -47.5 -144.5t-120.5 -89.5q115 -29 163 -99.5t48 -164.5q0 -119 -97.5 -199.5t-265.5 -88.5l-14 -80q102 -8 152.5 -58.5t50.5 -122.5 q0 -98 -71 -147t-181 -49q-86 0 -132.5 14t-56.5 19l23 86q31 -10 69.5 -19.5t79.5 -9.5q76 0 117 25.5t41 78.5q0 43 -37 70t-115 27q-29 0 -61 -7l37 173q-104 10 -184 35.5t-121 54.5l43 96q51 -29 130 -55.5t195 -26.5q152 0 214.5 54.5t62.5 137.5q0 193 -275 193h-174 v104h158q123 0 186.5 48.5t63.5 136.5q0 86 -66.5 132t-191.5 46z" horiz-adv-x="919" unicode="ҙ"/><glyph d="M281 0h-129v1440h129v-664l600 664h157l-604 -670l549 -653h139v-443h-121v326h-90l-630 750v-750z" horiz-adv-x="1142" unicode="Қ"/><glyph d="M250 524v-524h-121v1016h121v-475l481 475h152l-490 -479l420 -433h125v-370h-113v266h-69z" horiz-adv-x="946" unicode="қ"/><glyph d="M1180 0h-150l-502 721v-295h-104v289h-143v-715h-129v1440h129v-621h143v236h104v-242l467 627h142l-498 -668z" horiz-adv-x="1179" unicode="Ҝ"/><glyph d="M827 1016h136l-390 -486l422 -530h-141l-375 477v-225h-96v221h-135v-473h-119v1016h119v-445h135v215h96v-215z" horiz-adv-x="995" unicode="ҝ"/><glyph d="M307 0h-129v1157h-158v107h158v176h129v-176h185v-107h-185v-391l637 674h158l-639 -676l674 -764h-168l-662 748v-748z" horiz-adv-x="1136" unicode="Ҟ"/><glyph d="M150 0v825h-142v99h142v112h118v-112h158v-99h-158v-288l498 479h152l-504 -479l520 -537h-158l-508 524v-524h-118z" horiz-adv-x="933" unicode="ҟ"/><glyph d="M1110 1440h156l-586 -666l635 -774h-166l-621 754v-754h-129v1319h-368v121h497v-660z" horiz-adv-x="1314" unicode="Ҡ"/><glyph d="M883 1016h151l-471 -477l502 -539h-158l-487 524v-524h-119v907h-285v109h404v-473z" horiz-adv-x="1064" unicode="ҡ"/><glyph d="M1270 117v-443h-121v326h-137v709h-731v-709h-129v1440h129v-611h731v611h129v-1323h129z" horiz-adv-x="1306" unicode="Ң"/><glyph d="M827 0v467h-577v-467h-121v1016h121v-438h577v438h121v-912h121v-370h-113v266h-129z" horiz-adv-x="1103" unicode="ң"/><glyph d="M1124 0h-129v709h-714v-709h-129v1440h129v-611h714v611h484v-119h-355v-1321z" horiz-adv-x="1509" unicode="Ҥ"/><glyph d="M1206 1016v-109h-270v-907h-121v467h-565v-467h-121v1016h121v-438h565v438h391z" horiz-adv-x="1222" unicode="ҥ"/><glyph d="M1096 0h-129v1321h-686v-1321h-129v1440h944v-641q49 20 119.5 34.5t156.5 14.5q109 0 198 -35t152.5 -108.5t98 -186t34.5 -268.5q0 -166 -41.5 -285t-111.5 -193.5t-160 -109.5t-184 -35q-41 0 -93.5 5.5t-76.5 15.5l22 110q33 -10 81 -13t75 -3q66 0 130.5 25.5 t114.5 84t80.5 155.5t30.5 239q0 254 -91 368.5t-283 116.5q-74 0 -138.5 -15.5t-113.5 -37.5v-678z" horiz-adv-x="1933" unicode="Ҧ"/><glyph d="M903 0h-121v905h-532v-905h-121v1016h774v-469q45 16 111.5 28.5t138.5 12.5q98 0 179 -30t138.5 -93.5t88 -159.5t30.5 -229q0 -147 -38 -247.5t-100 -164t-141 -91.5t-161 -28q-49 0 -90 5.5t-64 13.5l15 104q18 -4 59 -10t88 -6q55 0 109.5 19.5t98.5 66.5t70.5 129 t26.5 205q0 219 -79.5 313t-249.5 94q-66 0 -124.5 -12t-105.5 -35v-432z" horiz-adv-x="1646" unicode="ҧ"/><glyph d="M1393 -20q14 0 38.5 1t49.5 5l8 -111q-47 -8 -105 -8q-125 0 -230 35t-196 100q-98 -31 -202 -31q-156 0 -278 54.5t-205 152.5t-126 236.5t-43 306.5t42 306t124 236.5t202 152.5t276 54q88 0 150.5 -16t105.5 -39l-48 -106q-39 18 -90 30.5t-121 12.5q-129 0 -223 -45 t-157.5 -128t-94 -199t-30.5 -259t32.5 -259t97 -199t161 -128t225.5 -45q27 0 52.5 2t49.5 6q-90 102 -140 245.5t-50 318.5q0 145 31.5 243.5t85 158.5t121 86t138.5 26q82 0 150 -34t115 -98.5t73.5 -155.5t26.5 -204q0 -233 -92 -391t-236 -238q59 -37 131 -56t181 -19z M797 662q0 -180 50 -309.5t142 -215.5q133 61 212 194.5t79 344.5q0 195 -62.5 287t-173.5 92q-106 0 -176.5 -93t-70.5 -300z" horiz-adv-x="1517" unicode="Ҩ"/><glyph d="M612 84q-49 68 -76.5 156t-27.5 198q0 98 25.5 167t68.5 112t96.5 62.5t108.5 19.5q123 0 203 -91.5t80 -256.5q0 -139 -71 -253t-204 -171q57 -33 119.5 -46.5t128.5 -13.5q10 0 28.5 1t43.5 7l8 -98q-47 -8 -86 -8q-102 0 -194.5 30.5t-166.5 90.5q-47 -10 -112 -10 q-123 0 -215.5 38.5t-153.5 109.5t-92 169t-31 215q0 250 125 390t358 140q61 0 109.5 -12t83.5 -29l-39 -96q-70 33 -154 33q-182 0 -272 -114.5t-90 -311.5q0 -195 94 -311.5t285 -116.5h20zM621 438q0 -109 28.5 -190.5t81.5 -145.5q117 41 180.5 131.5t63.5 215.5 q0 133 -45 189t-123 56q-37 0 -71 -13t-59.5 -44t-40.5 -80t-15 -119z" horiz-adv-x="1159" unicode="ҩ"/><glyph d="M723 1348q-231 0 -358 -161t-127 -474q0 -324 127 -472.5t358 -148.5q68 0 124 12.5t103 31t84 41t64 42.5l59 -92q-70 -59 -183.5 -104.5t-264.5 -45.5l-17 -77q102 -8 152.5 -59.5t50.5 -125.5q0 -98 -69.5 -151t-182.5 -53q-86 0 -134 14t-58 18l20 92q35 -10 72 -19 t84 -9q72 0 111.5 23.5t39.5 80.5q0 45 -33.5 70.5t-109.5 25.5q-16 0 -34.5 -1t-35.5 -5l39 185q-258 31 -380 217t-122 510q0 168 38 306t115 236.5t192.5 152.5t271.5 54q84 0 153.5 -16t123 -40t91 -49.5t60.5 -45.5l-66 -94q-51 43 -139 87t-219 44z" horiz-adv-x="1208" unicode="Ҫ"/><glyph d="M621 -281q0 94 -154 95q-29 0 -61 -7l36 179q-170 33 -261 166t-91 356q0 119 32 217t91 169t143 109.5t191 38.5q63 0 113.5 -10t88 -25.5t62.5 -33t41 -29.5l-57 -92q-29 20 -89.5 50t-152.5 30q-147 0 -242.5 -104.5t-95.5 -317.5q0 -111 25.5 -189.5t69.5 -131 t106.5 -77t136.5 -24.5q94 0 153.5 20.5t96.5 38.5l45 -90q-14 -10 -40 -24.5t-62.5 -26.5t-87 -20.5t-115.5 -8.5l-17 -77q98 -8 150.5 -54.5t52.5 -119.5q0 -96 -71.5 -149.5t-180.5 -53.5q-86 0 -134 15.5t-58 19.5l22 86q35 -10 72 -20.5t82 -10.5q72 0 116 26.5 t44 79.5z" horiz-adv-x="888" unicode="ҫ"/><glyph d="M477 0v1319h-442v121h1012v-121h-441v-1202h150v-443h-121v326h-158z" horiz-adv-x="1081" unicode="Ҭ"/><glyph d="M385 0v909h-369v107h858v-107h-368v-805h141v-370h-112v266h-150z" horiz-adv-x="890" unicode="ҭ"/><glyph d="M459 629l-453 811h148l374 -688l383 688h140l-463 -807v-633h-129v629z" horiz-adv-x="1056" unicode="Ү"/><glyph d="M520 -451h-121v492l-389 975h133l322 -836l315 836h129l-389 -981v-486z" horiz-adv-x="919" unicode="ү"/><glyph d="M918 639v-109h-330v-530h-129v530h-330v109h324l-447 801h148l374 -688l383 688h140l-459 -801h326z" horiz-adv-x="1056" unicode="Ұ"/><glyph d="M543 102h266v-102h-289v-451h-121v451h-288v102h268l-369 914h133l322 -828l315 828h129z" horiz-adv-x="919" unicode="ұ"/><glyph d="M33 0l475 768l-404 672h154l332 -568l350 568h139l-417 -674l387 -649h139v-443h-121v326h-102l-390 653l-397 -653h-145z" horiz-adv-x="1208" unicode="Ҳ"/><glyph d="M438 446l-293 -446h-135l363 530l-330 486h139l267 -398l266 398h133l-332 -479l297 -433h123v-370h-113v266h-80z" horiz-adv-x="944" unicode="ҳ"/><glyph d="M907 1321h-379v-1204h725v1323h129v-1323h129v-443h-120v326h-992v1319h-368v121h876v-119z" horiz-adv-x="1548" unicode="Ҵ"/><glyph d="M422 104h565v912h121v-912h121v-370h-113v266h-815v909h-285v107h693v-107h-287v-805z" horiz-adv-x="1263" unicode="ҵ"/><glyph d="M907 1440h129v-1323h129v-443h-121v326h-137v653q-37 -14 -132 -31.5t-230 -17.5q-115 0 -198 31t-135 88t-76.5 136t-24.5 177v404h129v-383q0 -76 14 -137.5t52 -104.5t103.5 -66.5t170.5 -23.5q121 0 202.5 16.5t124.5 32.5v666z" horiz-adv-x="1202" unicode="Ҷ"/><glyph d="M94 1016h121v-291q0 -55 12.5 -100t44 -77t85 -49.5t137.5 -17.5q104 0 174.5 13.5t101.5 23.5v498h121v-912h121v-370h-113v266h-129v408q-29 -8 -106.5 -22.5t-200.5 -14.5q-98 0 -169 24.5t-115 68.5t-64.5 106.5t-20.5 138.5v307z" horiz-adv-x="1046" unicode="ҷ"/><glyph d="M522 604q-109 2 -186.5 35t-127.5 89t-73.5 134t-23.5 174v404h129v-383q0 -70 11 -127.5t42 -100.5t86 -70.5t143 -33.5v258h113v-260q109 4 176.5 20.5t108.5 30.5v666h129v-1440h-129v653q-31 -12 -104 -27.5t-181 -19.5v-252h-113v250z" horiz-adv-x="1200" unicode="Ҹ"/><glyph d="M545 717v-238q92 4 150.5 16.5t86.5 22.5v498h121v-1016h-121v408q-25 -8 -85 -19.5t-152 -15.5v-191h-103v189q-94 2 -159.5 27.5t-107.5 70.5t-61.5 105.5t-19.5 134.5v307h121v-291q0 -51 10.5 -93t36 -74t69.5 -51.5t111 -25.5v236h103z" horiz-adv-x="1032" unicode="ҹ"/><glyph d="M281 827q37 14 133 32t231 18q115 0 198 -31t136 -88.5t77.5 -136t24.5 -177.5v-444h-129v424q0 76 -14 137.5t-53 104.5t-104.5 66.5t-170.5 23.5q-121 0 -203.5 -16.5t-125.5 -32.5v-707h-129v1440h129v-613z" horiz-adv-x="1191" unicode="Һ"/><glyph d="M250 840q47 98 137 150t225 52q166 0 255 -96t89 -282v-664h-120v647q0 80 -19.5 135.5t-53.5 88t-80 47t-101 14.5q-84 0 -146.5 -38t-103.5 -98.5t-61.5 -136t-20.5 -153.5v-506h-121v1536h121v-696z" horiz-adv-x="1077" unicode="һ"/><glyph d="M135 1040q-2 -14 -3 -33.5t-1 -29.5q0 -61 18.5 -95t47 -51.5t65.5 -21.5t74 -4q10 154 54 276.5t118 208.5t176 132t229 46q111 0 211.5 -42t175 -134t119.5 -237.5t45 -349.5v-17h-999q4 -309 137 -451.5t369 -142.5q68 0 125 12.5t105 31t86 41t65 42.5l57 -94 q-68 -59 -184.5 -104.5t-263.5 -45.5q-313 0 -468 187.5t-159 527.5q-68 2 -125 14.5t-100 43t-68 81t-25 127.5q0 23 2 51.5t7 39.5zM1329 801q-16 262 -119.5 405.5t-296.5 143.5q-213 0 -322.5 -148.5t-123.5 -400.5h862z" horiz-adv-x="1566" unicode="Ҽ"/><glyph d="M1014 575q-10 174 -80 266.5t-217 92.5q-152 0 -227.5 -93t-90.5 -266h615zM279 578q16 213 130.5 338.5t309.5 125.5q96 0 173 -29.5t131 -96t83 -170t29 -250.5v-21h-738q10 -182 99.5 -284.5t277.5 -102.5q94 0 158.5 19.5t101.5 35.5l35 -94q-31 -20 -110.5 -46 t-196.5 -26q-238 0 -358.5 131.5t-127.5 370.5q-119 4 -193.5 57.5t-74.5 170.5q0 25 4 50t8 40l99 -6q-2 -14 -3 -32t-1 -40q0 -41 13 -67.5t35.5 -43t52.5 -23.5t63 -7z" horiz-adv-x="1220" unicode="ҽ"/><glyph d="M135 1040q-2 -14 -3 -33.5t-1 -29.5q0 -61 18.5 -95t47 -51.5t65.5 -21.5t74 -4q10 154 54 276.5t118 208.5t176 132t229 46q111 0 211.5 -42t175 -134t119.5 -237.5t45 -349.5v-17h-999q4 -309 137 -451.5t369 -142.5q68 0 125 12.5t105 31t86 41t65 42.5l57 -94 q-66 -59 -177.5 -102t-252.5 -48v-303h-121v310q-262 31 -391 214t-133 494q-68 2 -125 14.5t-100 43t-68 81t-25 127.5q0 23 2 51.5t7 39.5zM1329 801q-16 262 -119.5 405.5t-296.5 143.5q-213 0 -322.5 -148.5t-123.5 -400.5h862z" horiz-adv-x="1566" unicode="Ҿ"/><glyph d="M279 578q16 213 130.5 338.5t309.5 125.5q96 0 173 -29.5t131 -96t83 -170t29 -250.5v-21h-738q10 -182 99.5 -284.5t277.5 -102.5q94 0 158.5 19.5t101.5 35.5l35 -94q-31 -20 -105.5 -42.5t-185.5 -26.5v-246h-112v252q-190 27 -287.5 152.5t-102.5 340.5 q-119 4 -193.5 57.5t-74.5 170.5q0 25 4 50t8 40l99 -6q-2 -14 -3 -32t-1 -40q0 -41 13 -67.5t35.5 -43t52.5 -23.5t63 -7zM1014 575q-10 174 -80 266.5t-217 92.5q-152 0 -227.5 -93t-90.5 -266h615z" horiz-adv-x="1220" unicode="ҿ"/><glyph d="M281 0h-129v1440h129v-1440z" horiz-adv-x="432" unicode="Ӏ"/><glyph d="M180 0h-151l592 764l-558 676h154l547 -666v666h125v-660l547 660h145l-549 -666l600 -774h-159l-584 758v-758h-125v752zM827 1655q88 0 136 45t48 139h111q0 -59 -17.5 -110t-53 -91t-92 -62.5t-134.5 -22.5q-80 0 -136 22.5t-92 61t-52.5 91t-16.5 111.5h115 q0 -94 49 -139t135 -45z" horiz-adv-x="1660" unicode="Ӂ"/><glyph d="M481 530l-446 486h151l428 -481v481h119v-477l430 477h144l-441 -477l471 -539h-149l-455 526v-526h-119v522l-456 -522h-142zM676 1280q88 0 136 45t48 139h111q0 -59 -17.5 -110t-53 -91t-92 -62.5t-134.5 -22.5q-80 0 -136 22.5t-92 61t-52.5 91t-16.5 111.5h115 q0 -94 49 -139t135 -45z" horiz-adv-x="1351" unicode="ӂ"/><glyph d="M451 793q14 2 27.5 2h27.5q117 0 216 -33t172 -102.5t115 -176t42 -254.5q0 -160 -44 -273.5t-115 -186t-162 -107.5t-183 -35q-41 0 -93.5 5.5t-76.5 15.5l22 110q33 -10 81 -13t75 -3q66 0 131.5 25.5t116.5 82t83 148.5t32 227q0 240 -115 352.5t-322 112.5 q-57 0 -114.5 -4t-85.5 -12v-674h-129v1440h129v-664l600 664h157z" horiz-adv-x="1126" unicode="Ӄ"/><glyph d="M418 549q254 -4 390 -118t136 -363q0 -137 -39 -235.5t-104.5 -162t-150.5 -94.5t-179 -31q-49 0 -90 5.5t-64 13.5l15 106q18 -4 59 -10t88 -6q66 0 126.5 20.5t107.5 68.5t75.5 127t28.5 193q0 106 -32.5 181t-91 120.5t-138.5 66t-176 20.5q-31 0 -65.5 -2.5 t-63.5 -6.5v-442h-121v1016h121v-494l487 494h154z" horiz-adv-x="997" unicode="ӄ"/><glyph d="M1241 117v-60q0 -104 -32.5 -183t-82.5 -150l-51 -74l-94 67l49 72q43 61 66.5 113.5t23.5 97.5h-139v1321h-479l-10 -289q-4 -90 -12.5 -222t-28.5 -263q-12 -74 -34 -169t-65 -180t-112.5 -142.5t-178.5 -57.5h-19t-22 2v117q90 0 145.5 42t87.5 106.5t48 144t29 157.5 q18 117 27.5 245t13.5 245l14 383h725v-1323h131z" horiz-adv-x="1277" unicode="Ӆ"/><glyph d="M944 104h123v-51q0 -94 -29.5 -160.5t-74.5 -132.5l-37 -51l-84 60l35 51q39 55 58 97t19 83h-131v909h-401l-8 -153q-10 -166 -23.5 -288t-40.5 -210q-41 -137 -117.5 -198.5t-189.5 -61.5q-23 0 -33 2v104q82 0 137.5 36t90.5 147q23 76 37 193.5t24 293.5l12 242h633 v-912z" horiz-adv-x="1097" unicode="ӆ"/><glyph d="M1141 -27q0 -217 -78 -324.5t-258 -107.5q-31 0 -71 5t-62 14l18 108q23 -4 49.5 -8t53.5 -4q70 0 112.5 20.5t66 64.5t32 112.5t8.5 162.5v693h-731v-709h-129v1440h129v-611h731v611h129v-1467z" horiz-adv-x="1292" unicode="Ӈ"/><glyph d="M948 -29q0 -215 -80 -322.5t-260 -107.5q-29 0 -66.5 5t-60.5 14l15 102q20 -4 47.5 -8t54.5 -4q74 0 119 21.5t69.5 66.5t32.5 113.5t8 162.5v453h-577v-467h-121v1016h121v-438h577v438h121v-1045z" horiz-adv-x="1077" unicode="ӈ"/><glyph d="M1272 117v-60q0 -104 -33 -183t-82 -150l-51 -74l-94 67l49 72q43 61 66.5 113.5t23.5 97.5h-139v709h-731v-709h-129v1440h129v-611h731v611h129v-1323h131z" horiz-adv-x="1308" unicode="Ӊ"/><glyph d="M1071 104v-51q0 -94 -29.5 -160.5t-74.5 -132.5l-37 -51l-84 60l35 51q39 55 58 97t19 83h-131v467h-577v-467h-121v1016h121v-438h577v438h121v-912h123z" horiz-adv-x="1101" unicode="ӊ"/><glyph d="M907 1440h129v-1440h-157v-326h-121v443h149v536q-37 -14 -132 -31.5t-230 -17.5q-115 0 -198 31t-135 88t-76.5 136t-24.5 177v404h129v-383q0 -76 14 -137.5t52 -104.5t103.5 -66.5t170.5 -23.5q121 0 202.5 16.5t124.5 32.5v666z" horiz-adv-x="1187" unicode="Ӌ"/><glyph d="M891 0h-150v-266h-112v370h141v304q-31 -10 -107.5 -23.5t-199.5 -13.5q-98 0 -169 24.5t-115 68.5t-64.5 106.5t-20.5 138.5v307h121v-291q0 -55 12.5 -100t44 -77t85 -49.5t137.5 -17.5q104 0 174.5 13.5t101.5 23.5v498h121v-1016z" horiz-adv-x="1019" unicode="ӌ"/><glyph d="M1243 1229l-430 -793h-113l-417 768v-1204h-131v1440h147l463 -856l461 856h151v-1323h131v-60q0 -104 -32.5 -183t-81.5 -150l-52 -74l-94 67l49 72q43 61 66.5 113.5t23.5 97.5h-141v1229z" horiz-adv-x="1542" unicode="Ӎ"/><glyph d="M983 827l-326 -522h-92l-319 512v-817h-117v1016h123l364 -584l361 584h125v-912h123v-51q0 -94 -30 -160.5t-75 -132.5l-37 -51l-84 60l35 51q39 55 58.5 97t19.5 83h-129v827z" horiz-adv-x="1255" unicode="ӎ"/><glyph d="M252 0h-123v1440h123v-1440z" horiz-adv-x="380" unicode="ӏ"/><glyph d="M856 401h-588l-131 -401h-131l481 1440h152l483 -1440h-137zM303 514h516l-256 776zM563 1655q88 0 136 45t48 139h111q0 -59 -17.5 -110t-53 -91t-92 -62.5t-134.5 -22.5q-80 0 -136 22.5t-92 61t-52.5 91t-16.5 111.5h115q0 -94 49 -139t135 -45z" horiz-adv-x="1128" unicode="Ӑ"/><glyph d="M743 492q-16 4 -45.5 9t-68.5 9t-84 7t-88 3q-152 0 -212.5 -63.5t-60.5 -169.5q0 -109 67.5 -158t176.5 -49q61 0 118.5 24.5t101.5 65.5t69.5 93t25.5 108v121zM381 -25q-53 0 -109.5 16.5t-102.5 53.5t-76 96.5t-30 145.5q0 152 95.5 245t287.5 93q45 0 92.5 -3.5 t87.5 -8.5t70.5 -10t46.5 -7v90q0 133 -75.5 190.5t-216.5 57.5q-100 0 -171 -25.5t-112 -48.5l-41 94q39 23 127 54.5t227 31.5q180 0 279.5 -85t99.5 -259v-696h-110l-5 145q-31 -49 -72.5 -81.5t-91 -52t-101.5 -28t-99 -8.5zM510 1280q88 0 136 45t48 139h111 q0 -59 -17.5 -110t-53 -91t-92 -62.5t-134.5 -22.5q-80 0 -136 22.5t-92 61t-52.5 91t-16.5 111.5h115q0 -94 49 -139t135 -45z" horiz-adv-x="987" unicode="ӑ"/><glyph d="M856 401h-588l-131 -401h-131l481 1440h152l483 -1440h-137zM303 514h516l-256 776zM260 1708q0 49 29 78t69 29q43 0 71 -29t28 -78q0 -47 -28 -76.5t-71 -29.5q-41 0 -69.5 29.5t-28.5 76.5zM666 1708q0 49 28.5 78t69.5 29q43 0 71.5 -29t28.5 -78q0 -47 -28.5 -76.5 t-71.5 -29.5q-41 0 -69.5 29.5t-28.5 76.5z" horiz-adv-x="1128" unicode="Ӓ"/><glyph d="M743 492q-16 4 -45.5 9t-68.5 9t-84 7t-88 3q-152 0 -212.5 -63.5t-60.5 -169.5q0 -109 67.5 -158t176.5 -49q61 0 118.5 24.5t101.5 65.5t69.5 93t25.5 108v121zM381 -25q-53 0 -109.5 16.5t-102.5 53.5t-76 96.5t-30 145.5q0 152 95.5 245t287.5 93q45 0 92.5 -3.5 t87.5 -8.5t70.5 -10t46.5 -7v90q0 133 -75.5 190.5t-216.5 57.5q-100 0 -171 -25.5t-112 -48.5l-41 94q39 23 127 54.5t227 31.5q180 0 279.5 -85t99.5 -259v-696h-110l-5 145q-31 -49 -72.5 -81.5t-91 -52t-101.5 -28t-99 -8.5zM193 1311q0 47 27.5 74.5t68.5 27.5 t67.5 -27.5t26.5 -74.5t-26.5 -75t-67.5 -28t-68.5 28t-27.5 75zM603 1311q0 47 26.5 74.5t67.5 27.5t68.5 -27.5t27.5 -74.5t-27.5 -75t-68.5 -28t-67.5 28t-26.5 75z" horiz-adv-x="987" unicode="ӓ"/><glyph d="M766 1440h856v-119h-664v-512h519v-119h-519v-571h684v-119h-811v416h-469l-217 -416h-139zM424 526h407v789z" horiz-adv-x="1683" unicode="Ӕ"/><glyph d="M1241 88q92 0 157.5 20.5t104.5 36.5l37 -96q-31 -20 -112.5 -46t-198.5 -26q-162 0 -266.5 63.5t-157.5 174.5q-72 -139 -179.5 -189.5t-244.5 -50.5q-53 0 -109.5 16.5t-102.5 53.5t-76 96.5t-30 145.5q0 152 95.5 245t287.5 93q45 0 92.5 -3.5t87.5 -8.5t70.5 -10 t46.5 -7v68q0 133 -75.5 201.5t-216.5 68.5q-100 0 -171 -25.5t-112 -48.5l-41 94q39 23 127 54.5t227 31.5q129 0 218 -52t130 -150q53 98 142.5 151t214.5 53q98 0 176 -29.5t132 -95t83 -169t29 -248.5v-25h-746q10 -182 101.5 -284.5t279.5 -102.5zM743 492 q-16 4 -45.5 9t-68.5 9t-84 7t-88 3q-152 0 -212.5 -63.5t-60.5 -169.5q0 -109 67.5 -159t176.5 -50q61 0 118.5 24.5t101.5 65.5t69.5 93t25.5 108v123zM1485 580q-10 170 -79 262t-222 92q-154 0 -229.5 -94.5t-92.5 -259.5h623z" horiz-adv-x="1691" unicode="ӕ"/><glyph d="M152 1440h794v-119h-665v-512h520v-119h-520v-571h686v-119h-815v1440zM557 1655q88 0 136 45t48 139h111q0 -59 -17.5 -110t-53 -91t-92 -62.5t-134.5 -22.5q-80 0 -136 22.5t-92 61t-52.5 91t-16.5 111.5h115q0 -94 49 -139t135 -45z" horiz-adv-x="1017" unicode="Ӗ"/><glyph d="M592 88q92 0 157.5 20.5t104.5 36.5l37 -96q-31 -20 -113 -46t-198 -26q-248 0 -369 138.5t-121 392.5q0 121 31 220t88 169t140 107.5t188 37.5q98 0 176 -29.5t132 -96t82.5 -170t28.5 -250.5v-25h-745q10 -178 101.5 -280.5t279.5 -102.5zM836 575q-10 170 -78 264.5 t-223 94.5q-154 0 -230 -94.5t-92 -264.5h623zM553 1280q88 0 136 45t48 139h111q0 -59 -17.5 -110t-53 -91t-92 -62.5t-134.5 -22.5q-80 0 -136 22.5t-92 61t-52.5 91t-16.5 111.5h115q0 -94 49 -139t135 -45z" horiz-adv-x="1042" unicode="ӗ"/><glyph d="M244 651q14 -281 125.5 -421t304.5 -140q106 0 187 40t136.5 112.5t85 176t33.5 232.5h-872zM1118 764q-8 301 -138 442.5t-351 141.5q-63 0 -119.5 -12.5t-104 -33t-84 -44t-61.5 -44.5l-65 95q20 20 61 46.5t97.5 51.5t129 41t156.5 16q309 0 460.5 -194.5 t151.5 -542.5q0 -172 -38.5 -312.5t-112.5 -238.5t-181.5 -151.5t-244.5 -53.5q-113 0 -215.5 41t-180 131t-123.5 236.5t-46 355.5v29h1009z" horiz-adv-x="1355" unicode="Ә"/><glyph d="M219 461q4 -182 81 -278.5t226 -96.5q154 0 229.5 97.5t86.5 277.5h-623zM844 561q-4 84 -27.5 152.5t-67.5 117t-110 75t-154 26.5q-100 0 -167.5 -30t-96.5 -48l-53 90q14 12 42 29.5t67.5 33t93 25.5t121.5 10q231 0 352 -138t121 -392q0 -121 -30 -220t-86 -169 t-138 -108t-187 -38q-92 0 -171 30t-135 96.5t-88 170t-32 250.5v37h746z" horiz-adv-x="1056" unicode="ә"/><glyph d="M244 651q14 -281 125.5 -421t304.5 -140q106 0 187 40t136.5 112.5t85 176t33.5 232.5h-872zM1118 764q-8 301 -138 442.5t-351 141.5q-63 0 -119.5 -12.5t-104 -33t-84 -44t-61.5 -44.5l-65 95q20 20 61 46.5t97.5 51.5t129 41t156.5 16q309 0 460.5 -194.5 t151.5 -542.5q0 -172 -38.5 -312.5t-112.5 -238.5t-181.5 -151.5t-244.5 -53.5q-113 0 -215.5 41t-180 131t-123.5 236.5t-46 355.5v29h1009zM362 1708q0 49 29 78t69 29q43 0 71 -29t28 -78q0 -47 -28 -76.5t-71 -29.5q-41 0 -69.5 29.5t-28.5 76.5zM768 1708q0 49 28.5 78 t69.5 29q43 0 71.5 -29t28.5 -78q0 -47 -28.5 -76.5t-71.5 -29.5q-41 0 -69.5 29.5t-28.5 76.5z" horiz-adv-x="1355" unicode="Ӛ"/><glyph d="M219 461q4 -182 81 -278.5t226 -96.5q154 0 229.5 97.5t86.5 277.5h-623zM844 561q-4 84 -27.5 152.5t-67.5 117t-110 75t-154 26.5q-100 0 -167.5 -30t-96.5 -48l-53 90q14 12 42 29.5t67.5 33t93 25.5t121.5 10q231 0 352 -138t121 -392q0 -121 -30 -220t-86 -169 t-138 -108t-187 -38q-92 0 -171 30t-135 96.5t-88 170t-32 250.5v37h746zM221 1311q0 47 27.5 74.5t68.5 27.5t67.5 -27.5t26.5 -74.5t-26.5 -75t-67.5 -28t-68.5 28t-27.5 75zM631 1311q0 47 26.5 74.5t67.5 27.5t68.5 -27.5t27.5 -74.5t-27.5 -75t-68.5 -28t-67.5 28 t-26.5 75z" horiz-adv-x="1056" unicode="ӛ"/><glyph d="M180 0h-151l592 764l-558 676h154l547 -666v666h125v-660l547 660h145l-549 -666l600 -774h-159l-584 758v-758h-125v752zM526 1708q0 49 29 78t69 29q43 0 71 -29t28 -78q0 -47 -28 -76.5t-71 -29.5q-41 0 -69.5 29.5t-28.5 76.5zM932 1708q0 49 28.5 78t69.5 29 q43 0 71.5 -29t28.5 -78q0 -47 -28.5 -76.5t-71.5 -29.5q-41 0 -69.5 29.5t-28.5 76.5z" horiz-adv-x="1660" unicode="Ӝ"/><glyph d="M481 530l-446 486h151l428 -481v481h119v-477l430 477h144l-441 -477l471 -539h-149l-455 526v-526h-119v522l-456 -522h-142zM375 1311q0 47 27.5 74.5t68.5 27.5t67.5 -27.5t26.5 -74.5t-26.5 -75t-67.5 -28t-68.5 28t-27.5 75zM785 1311q0 47 26.5 74.5t67.5 27.5 t68.5 -27.5t27.5 -74.5t-27.5 -75t-68.5 -28t-67.5 28t-26.5 75z" horiz-adv-x="1351" unicode="ӝ"/><glyph d="M336 682v117h160q168 0 246.5 82t78.5 204q0 135 -81 204t-234 69q-129 0 -213 -27.5t-141 -60.5l-48 100q31 20 77 40t99.5 35t111 23.5t112.5 8.5q117 0 202 -29t139 -79t80.5 -120.5t26.5 -154.5q0 -68 -21.5 -125.5t-54 -100.5t-72.5 -72.5t-77 -43.5q49 -12 97 -40 t87 -74t63.5 -110.5t24.5 -148.5q0 -88 -29.5 -163t-88 -130t-147.5 -86t-206 -31q-86 0 -161.5 15.5t-135 36t-102.5 42t-61 35.5l51 105q29 -18 68.5 -38t92 -37t115 -28.5t135.5 -11.5q152 0 244 69.5t92 217.5q0 164 -95 235.5t-275 71.5h-160zM225 1708q0 49 29 78 t69 29q43 0 71 -29t28 -78q0 -47 -28 -76.5t-71 -29.5q-41 0 -69.5 29.5t-28.5 76.5zM631 1708q0 49 28.5 78t69.5 29q43 0 71.5 -29t28.5 -78q0 -47 -28.5 -76.5t-71.5 -29.5q-41 0 -69.5 29.5t-28.5 76.5z" horiz-adv-x="1095" unicode="Ӟ"/><glyph d="M418 936q-102 0 -169 -22.5t-110 -45.5l-41 93q39 23 124 52t204 29q102 0 173 -23.5t114 -61t62.5 -88t19.5 -103.5q0 -80 -47.5 -144.5t-120.5 -89.5q115 -29 163 -99.5t48 -164.5q0 -61 -28 -114.5t-79 -92t-125 -61.5t-164 -23q-129 0 -226 31t-144 62l43 96 q51 -29 130 -55.5t195 -26.5q152 0 214.5 54.5t62.5 137.5q0 193 -275 193h-174v104h158q123 0 186.5 48.5t63.5 136.5q0 86 -66.5 132t-191.5 46zM152 1311q0 47 27.5 74.5t68.5 27.5t67.5 -27.5t26.5 -74.5t-26.5 -75t-67.5 -28t-68.5 28t-27.5 75zM562 1311 q0 47 26.5 74.5t67.5 27.5t68.5 -27.5t27.5 -74.5t-27.5 -75t-68.5 -28t-67.5 28t-26.5 75z" horiz-adv-x="919" unicode="ӟ"/><glyph d="M780 1321h-680v119h840v-107l-444 -522q82 -6 164.5 -29.5t150.5 -71.5t111 -126t43 -197q0 -88 -30 -164t-89.5 -132t-149.5 -89t-209 -33q-86 0 -161.5 15.5t-136 36t-102.5 42t-60 35.5l51 105q29 -18 68.5 -38t91 -37t115 -28.5t136.5 -11.5q156 0 249 74t93 221 q0 166 -112.5 244t-372.5 80v100z" horiz-adv-x="1052" unicode="Ӡ"/><glyph d="M637 907h-604v109h747v-105l-415 -520q74 -6 152.5 -29.5t143 -70.5t106.5 -124t42 -194q0 -90 -27.5 -167.5t-83 -134t-138.5 -89.5t-193 -33q-82 0 -148.5 16.5t-118 38t-85 44t-50.5 35.5l60 96q25 -16 56.5 -37t73.5 -39t95 -30.5t119 -12.5q145 0 231 76t86 233 q0 170 -117.5 245t-341.5 75h-10v92z" horiz-adv-x="874" unicode="ӡ"/><glyph d="M281 233l723 1207h139v-1440h-129v1237l-742 -1237h-120v1440h129v-1207zM346 1640v111h602v-111h-602z" horiz-adv-x="1294" unicode="Ӣ"/><glyph d="M252 0h-123v1016h121v-842l581 842h127v-1016h-120v848zM251 1255v109h582v-109h-582z" horiz-adv-x="1087" unicode="ӣ"/><glyph d="M281 233l723 1207h139v-1440h-129v1237l-742 -1237h-120v1440h129v-1207zM346 1710q0 49 29 78t69 29q43 0 71 -29t28 -78q0 -47 -28 -76.5t-71 -29.5q-41 0 -69.5 29.5t-28.5 76.5zM752 1710q0 49 28.5 78t69.5 29q43 0 71.5 -29t28.5 -78q0 -47 -28.5 -76.5 t-71.5 -29.5q-41 0 -69.5 29.5t-28.5 76.5z" horiz-adv-x="1294" unicode="Ӥ"/><glyph d="M252 0h-123v1016h121v-842l581 842h127v-1016h-120v848zM242 1311q0 47 27.5 74.5t68.5 27.5t67.5 -27.5t26.5 -74.5t-26.5 -75t-67.5 -28t-68.5 28t-27.5 75zM652 1311q0 47 26.5 74.5t67.5 27.5t68.5 -27.5t27.5 -74.5t-27.5 -75t-68.5 -28t-67.5 28t-26.5 75z" horiz-adv-x="1087" unicode="ӥ"/><glyph d="M104 721q0 168 40 306t118 236.5t192.5 152.5t262.5 54q147 0 261 -54t190.5 -152.5t116.5 -236.5t40 -306t-40 -306.5t-116.5 -237.5t-191.5 -153.5t-262 -54.5t-262 54.5t-192 153.5t-117 237.5t-40 306.5zM240 721q0 -143 28.5 -259t88 -199t148.5 -128t210 -45 t210 45t148.5 128t88 199t28.5 259t-28.5 259t-88 198t-148.5 127t-210 45t-210 -45t-148.5 -127t-88 -198t-28.5 -259zM414 1708q0 49 29 78t69 29q43 0 71 -29t28 -78q0 -47 -28 -76.5t-71 -29.5q-41 0 -69.5 29.5t-28.5 76.5zM820 1708q0 49 28.5 78t69.5 29 q43 0 71.5 -29t28.5 -78q0 -47 -28.5 -76.5t-71.5 -29.5q-41 0 -69.5 29.5t-28.5 76.5z" horiz-adv-x="1429" unicode="Ӧ"/><glyph d="M557 88q176 0 260 113.5t84 308.5q0 190 -85 306t-259 116q-172 0 -257 -116t-85 -306q0 -195 84 -308.5t258 -113.5zM557 1042q117 0 204 -39.5t145.5 -110.5t88 -168t29.5 -214t-30.5 -215t-89 -169t-146.5 -110t-201 -39q-115 0 -203 39t-146 110t-88 169t-30 215 t31 214t89 168t145 110.5t202 39.5zM258 1311q0 47 27.5 74.5t68.5 27.5t67.5 -27.5t26.5 -74.5t-26.5 -75t-67.5 -28t-68.5 28t-27.5 75zM668 1311q0 47 26.5 74.5t67.5 27.5t68.5 -27.5t27.5 -74.5t-27.5 -75t-68.5 -28t-67.5 28t-26.5 75z" horiz-adv-x="1116" unicode="ӧ"/><glyph d="M104 721q0 168 40 306t118 236.5t192.5 152.5t262.5 54q147 0 261 -54t190.5 -152.5t116.5 -236.5t40 -306t-40 -306.5t-116.5 -237.5t-191.5 -153.5t-262 -54.5t-262 54.5t-192 153.5t-117 237.5t-40 306.5zM715 90q115 0 202 41t145 117t90 183.5t36 240.5h-948 q6 -133 37.5 -240.5t90 -183.5t145.5 -117t202 -41zM715 1350q-115 0 -200 -40t-144.5 -113t-91 -176t-37.5 -233h946q-6 129 -39 232.5t-91.5 176.5t-144 113t-198.5 40z" horiz-adv-x="1429" unicode="Ө"/><glyph d="M557 1042q117 0 204 -39.5t145.5 -110.5t88 -168t29.5 -214t-30.5 -215t-89 -169t-146.5 -110t-201 -39q-115 0 -203 39t-146 110t-88 169t-30 215t31 214t89 168t145 110.5t202 39.5zM557 88q164 0 248 99.5t94 273.5h-682q10 -174 93 -273.5t247 -99.5zM557 932 q-160 0 -245 -99.5t-95 -267.5h682q-12 168 -97 267.5t-245 99.5z" horiz-adv-x="1116" unicode="ө"/><glyph d="M104 721q0 168 40 306t118 236.5t192.5 152.5t262.5 54q147 0 261 -54t190.5 -152.5t116.5 -236.5t40 -306t-40 -306.5t-116.5 -237.5t-191.5 -153.5t-262 -54.5t-262 54.5t-192 153.5t-117 237.5t-40 306.5zM715 90q115 0 202 41t145 117t90 183.5t36 240.5h-948 q6 -133 37.5 -240.5t90 -183.5t145.5 -117t202 -41zM715 1350q-115 0 -200 -40t-144.5 -113t-91 -176t-37.5 -233h946q-6 129 -39 232.5t-91.5 176.5t-144 113t-198.5 40zM414 1708q0 49 29 78t69 29q43 0 71 -29t28 -78q0 -47 -28 -76.5t-71 -29.5q-41 0 -69.5 29.5 t-28.5 76.5zM820 1708q0 49 28.5 78t69.5 29q43 0 71.5 -29t28.5 -78q0 -47 -28.5 -76.5t-71.5 -29.5q-41 0 -69.5 29.5t-28.5 76.5z" horiz-adv-x="1429" unicode="Ӫ"/><glyph d="M557 1042q117 0 204 -39.5t145.5 -110.5t88 -168t29.5 -214t-30.5 -215t-89 -169t-146.5 -110t-201 -39q-115 0 -203 39t-146 110t-88 169t-30 215t31 214t89 168t145 110.5t202 39.5zM557 88q164 0 248 99.5t94 273.5h-682q10 -174 93 -273.5t247 -99.5zM557 932 q-160 0 -245 -99.5t-95 -267.5h682q-12 168 -97 267.5t-245 99.5zM258 1311q0 47 27.5 74.5t68.5 27.5t67.5 -27.5t26.5 -74.5t-26.5 -75t-67.5 -28t-68.5 28t-27.5 75zM668 1311q0 47 26.5 74.5t67.5 27.5t68.5 -27.5t27.5 -74.5t-27.5 -75t-68.5 -28t-67.5 28t-26.5 75z" horiz-adv-x="1116" unicode="ӫ"/><glyph d="M510 94q225 0 349 147.5t134 440.5h-659v117h657q-8 143 -46 246.5t-100.5 171t-147.5 99.5t-185 32q-131 0 -218 -43t-138 -86l-64 92q20 20 59 46.5t93.5 50.5t124 40t153.5 16q143 0 256 -50t191 -144t118.5 -231.5t40.5 -311.5q0 -170 -37.5 -308t-114.5 -236.5 t-193.5 -152t-272.5 -53.5q-145 0 -260 42t-184 102l59 100q27 -20 65.5 -42.5t87 -41t106.5 -31t126 -12.5zM244 1708q0 49 29 78t69 29q43 0 71 -29t28 -78q0 -47 -28 -76.5t-71 -29.5q-41 0 -69.5 29.5t-28.5 76.5zM650 1708q0 49 28.5 78t69.5 29q43 0 71.5 -29 t28.5 -78q0 -47 -28.5 -76.5t-71.5 -29.5q-41 0 -69.5 29.5t-28.5 76.5z" horiz-adv-x="1230" unicode="Ӭ"/><glyph d="M393 -23q-66 0 -120 9.5t-96 24t-71.5 29.5t-44.5 26l45 96q35 -18 106 -46t175 -28q141 0 233.5 94t102.5 287h-459v104h459q-16 186 -107.5 272.5t-224.5 86.5q-96 0 -156.5 -27.5t-89.5 -48.5l-53 90q14 12 41 29.5t63.5 32t87 24.5t115.5 10q100 0 182.5 -35.5 t141.5 -103t92 -166t33 -225.5q0 -119 -30 -217t-88 -169t-143 -110t-194 -39zM127 1311q0 47 27.5 74.5t68.5 27.5t67.5 -27.5t26.5 -74.5t-26.5 -75t-67.5 -28t-68.5 28t-27.5 75zM537 1311q0 47 26.5 74.5t67.5 27.5t68.5 -27.5t27.5 -74.5t-27.5 -75t-68.5 -28t-67.5 28 t-26.5 75z" horiz-adv-x="937" unicode="ӭ"/><glyph d="M573 598l383 842h138l-670 -1440h-137l219 459l-494 981h146zM256 1640v111h602v-111h-602z" horiz-adv-x="1105" unicode="Ӯ"/><glyph d="M8 1016h139l322 -819l328 819h133l-613 -1467h-127l211 500zM180 1255v109h582v-109h-582z" horiz-adv-x="937" unicode="ӯ"/><glyph d="M573 598l383 842h138l-670 -1440h-137l219 459l-494 981h146zM254 1708q0 49 29 78t69 29q43 0 71 -29t28 -78q0 -47 -28 -76.5t-71 -29.5q-41 0 -69.5 29.5t-28.5 76.5zM660 1708q0 49 28.5 78t69.5 29q43 0 71.5 -29t28.5 -78q0 -47 -28.5 -76.5t-71.5 -29.5 q-41 0 -69.5 29.5t-28.5 76.5z" horiz-adv-x="1105" unicode="Ӱ"/><glyph d="M8 1016h139l322 -819l328 819h133l-613 -1467h-127l211 500zM168 1311q0 47 27.5 74.5t68.5 27.5t67.5 -27.5t26.5 -74.5t-26.5 -75t-67.5 -28t-68.5 28t-27.5 75zM578 1311q0 47 26.5 74.5t67.5 27.5t68.5 -27.5t27.5 -74.5t-27.5 -75t-68.5 -28t-67.5 28t-26.5 75z" horiz-adv-x="937" unicode="ӱ"/><glyph d="M573 598l383 842h138l-670 -1440h-137l219 459l-494 981h146zM651 1628l285 301l86 -88l-299 -285zM244 1628l285 301l86 -88l-299 -285z" horiz-adv-x="1105" unicode="Ӳ"/><glyph d="M8 1016h139l322 -819l328 819h133l-613 -1467h-127l211 500zM548 1229l289 327l90 -81l-303 -314zM141 1229l289 327l90 -81l-303 -314z" horiz-adv-x="937" unicode="ӳ"/><glyph d="M907 1440h129v-1440h-129v653q-37 -14 -132 -31.5t-230 -17.5q-115 0 -198 31t-135 88t-76.5 136t-24.5 177v404h129v-383q0 -76 14 -137.5t52 -104.5t103.5 -66.5t170.5 -23.5q121 0 202.5 16.5t124.5 32.5v666zM274 1708q0 49 29 78t69 29q43 0 71 -29t28 -78 q0 -47 -28 -76.5t-71 -29.5q-41 0 -69.5 29.5t-28.5 76.5zM680 1708q0 49 28.5 78t69.5 29q43 0 71.5 -29t28.5 -78q0 -47 -28.5 -76.5t-71.5 -29.5q-41 0 -69.5 29.5t-28.5 76.5z" horiz-adv-x="1187" unicode="Ӵ"/><glyph d="M94 1016h121v-291q0 -55 12.5 -100t44 -77t85 -49.5t137.5 -17.5q104 0 174.5 13.5t101.5 23.5v498h121v-1016h-121v408q-29 -8 -106.5 -22.5t-200.5 -14.5q-98 0 -169 24.5t-115 68.5t-64.5 106.5t-20.5 138.5v307zM195 1311q0 47 27.5 74.5t68.5 27.5t67.5 -27.5 t26.5 -74.5t-26.5 -75t-67.5 -28t-68.5 28t-27.5 75zM605 1311q0 47 26.5 74.5t67.5 27.5t68.5 -27.5t27.5 -74.5t-27.5 -75t-68.5 -28t-67.5 28t-26.5 75z" horiz-adv-x="1019" unicode="ӵ"/><glyph d="M430 117v-443h-121v326h-157v1440h780v-121h-651v-1202h149z" horiz-adv-x="962" unicode="Ӷ"/><glyph d="M391 104v-370h-112v266h-150v1016h672v-111h-551v-801h141z" horiz-adv-x="817" unicode="ӷ"/><glyph d="M879 436q0 170 -88.5 246t-243.5 76h-266v-641h260q164 0 251 79.5t87 239.5zM1008 436q0 -86 -27 -164.5t-82 -139t-143 -96.5t-211 -36h-393v1440h129v-566h270q119 0 205 -33.5t142 -93t83 -139.5t27 -172zM1329 0h-129v1440h129v-1440zM438 1708q0 49 29 78t69 29 q43 0 71 -29t28 -78q0 -47 -28 -76.5t-71 -29.5q-41 0 -69.5 29.5t-28.5 76.5zM844 1708q0 49 28.5 78t69.5 29q43 0 71.5 -29t28.5 -78q0 -47 -28.5 -76.5t-71.5 -29.5q-41 0 -69.5 29.5t-28.5 76.5z" horiz-adv-x="1480" unicode="Ӹ"/><glyph d="M784 319q0 215 -280 216h-254v-435h250q150 0 217 56.5t67 162.5zM903 319q0 -61 -20.5 -118.5t-67.5 -101.5t-124 -71.5t-189 -27.5h-373v1016h121v-381h256q111 0 186.5 -25.5t122.5 -68.5t67.5 -101t20.5 -121zM1069 1016h123v-1016h-123v1016zM361 1311 q0 47 27.5 74.5t68.5 27.5t67.5 -27.5t26.5 -74.5t-26.5 -75t-67.5 -28t-68.5 28t-27.5 75zM771 1311q0 47 26.5 74.5t67.5 27.5t68.5 -27.5t27.5 -74.5t-27.5 -75t-68.5 -28t-67.5 28t-26.5 75z" horiz-adv-x="1320" unicode="ӹ"/><glyph d="M483 0h-149l-314 1440h136l262 -1233l291 1198h143l283 -1196l272 1231h133l-330 -1440h-151l-281 1182zM1028 1655l-41 -94l-477 202l53 119z" horiz-adv-x="1560" unicode="Ẁ"/><glyph d="M6 1016h129l250 -877l219 846h137l220 -846l247 877h121l-305 -1016h-137l-217 827l-219 -827h-138zM903 1294l-47 -92l-462 217l57 115z" horiz-adv-x="1335" unicode="ẁ"/><glyph d="M483 0h-149l-314 1440h136l262 -1233l291 1198h143l283 -1196l272 1231h133l-330 -1440h-151l-281 1182zM1013 1882l54 -119l-478 -202l-41 94z" horiz-adv-x="1560" unicode="Ẃ"/><glyph d="M6 1016h129l250 -877l219 846h137l220 -846l247 877h121l-305 -1016h-137l-217 827l-219 -827h-138zM885 1534l57 -115l-462 -217l-48 92z" horiz-adv-x="1335" unicode="ẃ"/><glyph d="M483 0h-149l-314 1440h136l262 -1233l291 1198h143l283 -1196l272 1231h133l-330 -1440h-151l-281 1182zM481 1708q0 49 29 78t69 29q43 0 71 -29t28 -78q0 -47 -28 -76.5t-71 -29.5q-41 0 -69.5 29.5t-28.5 76.5zM887 1708q0 49 28.5 78t69.5 29q43 0 71.5 -29t28.5 -78 q0 -47 -28.5 -76.5t-71.5 -29.5q-41 0 -69.5 29.5t-28.5 76.5z" horiz-adv-x="1560" unicode="Ẅ"/><glyph d="M6 1016h129l250 -877l219 846h137l220 -846l247 877h121l-305 -1016h-137l-217 827l-219 -827h-138zM365 1311q0 47 27.5 74.5t68.5 27.5t67.5 -27.5t26.5 -74.5t-26.5 -75t-67.5 -28t-68.5 28t-27.5 75zM775 1311q0 47 26.5 74.5t67.5 27.5t68.5 -27.5t27.5 -74.5 t-27.5 -75t-68.5 -28t-67.5 28t-26.5 75z" horiz-adv-x="1335" unicode="ẅ"/><glyph d="M856 401h-588l-131 -401h-131l481 1440h152l483 -1440h-137zM303 514h516l-256 776zM471 -297q0 45 26.5 72.5t67.5 27.5t65.5 -27.5t24.5 -72.5t-24.5 -72t-65.5 -27t-67.5 27t-26.5 72z" horiz-adv-x="1128" unicode="Ạ"/><glyph d="M743 492q-16 4 -45.5 9t-68.5 9t-84 7t-88 3q-152 0 -212.5 -63.5t-60.5 -169.5q0 -109 67.5 -158t176.5 -49q61 0 118.5 24.5t101.5 65.5t69.5 93t25.5 108v121zM381 -25q-53 0 -109.5 16.5t-102.5 53.5t-76 96.5t-30 145.5q0 152 95.5 245t287.5 93q45 0 92.5 -3.5 t87.5 -8.5t70.5 -10t46.5 -7v90q0 133 -75.5 190.5t-216.5 57.5q-100 0 -171 -25.5t-112 -48.5l-41 94q39 23 127 54.5t227 31.5q180 0 279.5 -85t99.5 -259v-696h-110l-5 145q-31 -49 -72.5 -81.5t-91 -52t-101.5 -28t-99 -8.5zM397 -297q0 45 26.5 72.5t67.5 27.5 t65.5 -27.5t24.5 -72.5t-24.5 -72t-65.5 -27t-67.5 27t-26.5 72z" horiz-adv-x="987" unicode="ạ"/><glyph d="M856 401h-588l-131 -401h-131l481 1440h152l483 -1440h-137zM303 514h516l-256 776zM524 1929q104 0 145.5 -47t41.5 -102q0 -72 -42 -122t-94 -97l-67 57q29 29 56.5 60.5t27.5 72.5q0 74 -84 74q-25 0 -46.5 -4t-37.5 -9v103q16 4 43.5 9t56.5 5z" horiz-adv-x="1128" unicode="Ả"/><glyph d="M502 1378q0 33 -22 55t-66 21q-27 0 -50 -2q-24 -2 -38 -6v104q41 10 112 11q53 0 89 -15q36 -14 59 -37t31 -50q9 -28 10 -56q0 -70 -41 -121t-92 -98l-68 55q29 27 52 64q24 36 24 75zM743 492q-16 4 -45.5 9t-68.5 9t-84 7t-88 3q-152 0 -212.5 -63.5t-60.5 -169.5 q0 -109 67.5 -158t176.5 -49q61 0 118.5 24.5t101.5 65.5t69.5 93t25.5 108v121zM381 -25q-53 0 -109.5 16.5t-102.5 53.5t-76 96.5t-30 145.5q0 152 95.5 245t287.5 93q45 0 92.5 -3.5t87.5 -8.5t70.5 -10t46.5 -7v90q0 133 -75.5 190.5t-216.5 57.5q-100 0 -171 -25.5 t-112 -48.5l-41 94q39 23 127 54.5t227 31.5q180 0 279.5 -85t99.5 -259v-696h-110l-5 145q-31 -49 -72.5 -81.5t-91 -52t-101.5 -28t-99 -8.5z" horiz-adv-x="987" unicode="ả"/><glyph d="M487 1380h152l483 -1380h-137l-131 381h-586l-131 -381h-131zM307 494h508l-252 739zM831 1450l-268 178l-268 -178l-68 70l278 231h115l279 -231zM813 1683l-52 91l263 161l57 -104z" horiz-adv-x="1128" unicode="Ấ"/><glyph d="M743 492q-16 4 -45.5 9t-68.5 9t-84 7t-88 3q-152 0 -212.5 -63.5t-60.5 -169.5q0 -109 67.5 -158t176.5 -49q61 0 118.5 24.5t101.5 65.5t69.5 93t25.5 108v121zM381 -25q-53 0 -109.5 16.5t-102.5 53.5t-76 96.5t-30 145.5q0 152 95.5 245t287.5 93q45 0 92.5 -3.5 t87.5 -8.5t70.5 -10t46.5 -7v90q0 133 -75.5 190.5t-216.5 57.5q-100 0 -171 -25.5t-112 -48.5l-41 94q39 23 127 54.5t227 31.5q180 0 279.5 -85t99.5 -259v-696h-110l-5 145q-31 -49 -72.5 -81.5t-91 -52t-101.5 -28t-99 -8.5zM791 1231l-70 -68l-244 183l-243 -183 l-70 68l262 235h102zM725 1389l-51 86l270 165l56 -100z" horiz-adv-x="987" unicode="ấ"/><glyph d="M487 1380h152l483 -1380h-137l-131 381h-586l-131 -381h-131zM307 494h508l-252 739zM225 1520l278 227h115l279 -227l-68 -70l-268 174l-268 -174zM698 1845l84 84l242 -246l-76 -71z" horiz-adv-x="1128" unicode="Ầ"/><glyph d="M743 492q-16 4 -45.5 9t-68.5 9t-84 7t-88 3q-152 0 -212.5 -63.5t-60.5 -169.5q0 -109 67.5 -158t176.5 -49q61 0 118.5 24.5t101.5 65.5t69.5 93t25.5 108v121zM381 -25q-53 0 -109.5 16.5t-102.5 53.5t-76 96.5t-30 145.5q0 152 95.5 245t287.5 93q45 0 92.5 -3.5 t87.5 -8.5t70.5 -10t46.5 -7v90q0 133 -75.5 190.5t-216.5 57.5q-100 0 -171 -25.5t-112 -48.5l-41 94q39 23 127 54.5t227 31.5q180 0 279.5 -85t99.5 -259v-696h-110l-5 145q-31 -49 -72.5 -81.5t-91 -52t-101.5 -28t-99 -8.5zM574 1565l92 77l244 -272l-80 -65zM781 1231 l-70 -68l-244 180l-243 -180l-70 68l262 233h102z" horiz-adv-x="987" unicode="ầ"/><glyph d="M487 1380h152l483 -1380h-137l-131 381h-586l-131 -381h-131zM307 494h508l-252 739zM625 1745h-115l-278 -221l59 -74l277 172l276 -172l60 74zM775 1919q35 10 94 10q92 0 126 -41t34 -90q0 -59 -30 -98t-75 -80l-63 53q25 23 42 46.5t17 58.5q0 61 -74 61 q-41 0 -71 -10v90z" horiz-adv-x="1128" unicode="Ẩ"/><glyph d="M743 492q-16 4 -45.5 9t-68.5 9t-84 7t-88 3q-152 0 -212.5 -63.5t-60.5 -169.5q0 -109 67.5 -158t176.5 -49q61 0 118.5 24.5t101.5 65.5t69.5 93t25.5 108v121zM381 -25q-53 0 -109.5 16.5t-102.5 53.5t-76 96.5t-30 145.5q0 152 95.5 245t287.5 93q45 0 92.5 -3.5 t87.5 -8.5t70.5 -10t46.5 -7v90q0 133 -75.5 190.5t-216.5 57.5q-100 0 -171 -25.5t-112 -48.5l-41 94q39 23 127 54.5t227 31.5q180 0 279.5 -85t99.5 -259v-696h-110l-5 145q-31 -49 -72.5 -81.5t-91 -52t-101.5 -28t-99 -8.5zM234 1163l249 178l250 -178l70 66l-268 235 h-103l-268 -235zM676 1630q16 4 40.5 7t53.5 3q45 0 76 -12t49 -32.5t26.5 -45t8.5 -49.5q0 -59 -31 -100t-76 -82l-63 53q25 23 42 48.5t17 60.5q0 29 -14 50t-55 21q-23 0 -43.5 -2t-30.5 -6v86z" horiz-adv-x="987" unicode="ẩ"/><glyph d="M487 1380h152l483 -1380h-137l-131 381h-586l-131 -381h-131zM307 494h508l-252 739zM897 1493l-59 -76l-270 148l-271 -148l-59 76l272 182h115zM721 1722q-51 0 -90 15.5t-73.5 33t-67.5 33t-70 15.5t-56.5 -20.5t-19.5 -72.5h-104q0 102 41 152.5t131 50.5 q51 0 92 -14t76 -32.5t67.5 -33t71.5 -14.5q37 0 54.5 19.5t17.5 70.5h104q0 -106 -43 -154.5t-131 -48.5z" horiz-adv-x="1128" unicode="Ẫ"/><glyph d="M743 492q-16 4 -45.5 9t-68.5 9t-84 7t-88 3q-152 0 -212.5 -63.5t-60.5 -169.5q0 -109 67.5 -158t176.5 -49q61 0 118.5 24.5t101.5 65.5t69.5 93t25.5 108v121zM381 -25q-53 0 -109.5 16.5t-102.5 53.5t-76 96.5t-30 145.5q0 152 95.5 245t287.5 93q45 0 92.5 -3.5 t87.5 -8.5t70.5 -10t46.5 -7v90q0 133 -75.5 190.5t-216.5 57.5q-100 0 -171 -25.5t-112 -48.5l-41 94q39 23 127 54.5t227 31.5q180 0 279.5 -85t99.5 -259v-696h-110l-5 145q-31 -49 -72.5 -81.5t-91 -52t-101.5 -28t-99 -8.5zM803 1221l-59 -74l-264 129l-265 -129 l-59 74l272 163h103zM158 1464q0 102 47 149.5t129 47.5q47 0 83 -15.5t68.5 -35t63.5 -34.5t68 -15q76 0 78 88h108q0 -102 -46 -149.5t-122 -47.5q-53 0 -91 15.5t-69.5 35t-62.5 34.5t-68 15q-76 0 -77 -88h-109z" horiz-adv-x="987" unicode="ẫ"/><glyph d="M856 401h-588l-131 -401h-131l481 1440h152l483 -1440h-137zM303 514h516l-256 776zM471 -297q0 45 26.5 72.5t67.5 27.5t65.5 -27.5t24.5 -72.5t-24.5 -72t-65.5 -27t-67.5 27t-26.5 72zM842 1559l-279 200l-278 -200l-70 71l293 252h111l293 -252z" horiz-adv-x="1128" unicode="Ậ"/><glyph d="M743 492q-16 4 -45.5 9t-68.5 9t-84 7t-88 3q-152 0 -212.5 -63.5t-60.5 -169.5q0 -109 67.5 -158t176.5 -49q61 0 118.5 24.5t101.5 65.5t69.5 93t25.5 108v121zM381 -25q-53 0 -109.5 16.5t-102.5 53.5t-76 96.5t-30 145.5q0 152 95.5 245t287.5 93q45 0 92.5 -3.5 t87.5 -8.5t70.5 -10t46.5 -7v90q0 133 -75.5 190.5t-216.5 57.5q-100 0 -171 -25.5t-112 -48.5l-41 94q39 23 127 54.5t227 31.5q180 0 279.5 -85t99.5 -259v-696h-110l-5 145q-31 -49 -72.5 -81.5t-91 -52t-101.5 -28t-99 -8.5zM412 -297q0 45 26.5 72.5t67.5 27.5 t65.5 -27.5t24.5 -72.5t-24.5 -72t-65.5 -27t-67.5 27t-26.5 72zM170 1253l278 258h99l278 -258l-72 -67l-256 203l-256 -203z" horiz-adv-x="987" unicode="ậ"/><glyph d="M985 0l-131 365h-586l-131 -365h-131l481 1343h152l483 -1343h-137zM305 477h512l-254 727zM537 1653l-64 80l236 196l74 -92zM561 1530q88 0 148.5 46t60.5 140h113q0 -59 -20.5 -111.5t-61.5 -92t-101.5 -63.5t-138.5 -24t-138 24t-101 63.5t-61.5 92t-20.5 111.5h113 q0 -94 60 -140t148 -46z" horiz-adv-x="1128" unicode="Ắ"/><glyph d="M743 492q-16 4 -45.5 9t-68.5 9t-84 7t-88 3q-152 0 -212.5 -63.5t-60.5 -169.5q0 -109 67.5 -158t176.5 -49q61 0 118.5 24.5t101.5 65.5t69.5 93t25.5 108v121zM381 -25q-53 0 -109.5 16.5t-102.5 53.5t-76 96.5t-30 145.5q0 152 95.5 245t287.5 93q45 0 92.5 -3.5 t87.5 -8.5t70.5 -10t46.5 -7v90q0 133 -75.5 190.5t-216.5 57.5q-100 0 -171 -25.5t-112 -48.5l-41 94q39 23 127 54.5t227 31.5q180 0 279.5 -85t99.5 -259v-696h-110l-5 145q-31 -49 -72.5 -81.5t-91 -52t-101.5 -28t-99 -8.5zM680 1565l-215 -205l-74 70l201 210z M481 1243q86 0 144.5 46t58.5 141h111q0 -59 -19.5 -111.5t-58.5 -90.5t-97.5 -59.5t-138.5 -21.5t-138 21.5t-97 59.5t-58.5 90t-19.5 112h111q0 -94 58 -140.5t144 -46.5z" horiz-adv-x="987" unicode="ắ"/><glyph d="M985 0l-131 365h-586l-131 -365h-131l481 1343h152l483 -1343h-137zM305 477h512l-254 727zM342 1837l74 92l236 -196l-64 -80zM563 1530q88 0 148.5 46t60.5 140h113q0 -59 -20.5 -111.5t-61.5 -92t-101.5 -63.5t-138.5 -24t-138 24t-101 63.5t-61.5 92t-20.5 111.5h113 q0 -94 60 -140t148 -46z" horiz-adv-x="1128" unicode="Ằ"/><glyph d="M743 492q-16 4 -45.5 9t-68.5 9t-84 7t-88 3q-152 0 -212.5 -63.5t-60.5 -169.5q0 -109 67.5 -158t176.5 -49q61 0 118.5 24.5t101.5 65.5t69.5 93t25.5 108v121zM381 -25q-53 0 -109.5 16.5t-102.5 53.5t-76 96.5t-30 145.5q0 152 95.5 245t287.5 93q45 0 92.5 -3.5 t87.5 -8.5t70.5 -10t46.5 -7v90q0 133 -75.5 190.5t-216.5 57.5q-100 0 -171 -25.5t-112 -48.5l-41 94q39 23 127 54.5t227 31.5q180 0 279.5 -85t99.5 -259v-696h-110l-5 145q-31 -49 -72.5 -81.5t-91 -52t-101.5 -28t-99 -8.5zM348 1640l200 -210l-73 -70l-215 205z M456 1243q86 0 144.5 46t58.5 141h111q0 -59 -19.5 -111.5t-58.5 -90.5t-97.5 -59.5t-138.5 -21.5t-138 21.5t-97 59.5t-58.5 90t-19.5 112h111q0 -94 58 -140.5t144 -46.5z" horiz-adv-x="987" unicode="ằ"/><glyph d="M985 0l-131 365h-586l-131 -365h-131l481 1343h152l483 -1343h-137zM305 477h512l-254 727zM561 1425q74 0 132.5 20.5t98.5 56.5t62.5 83t26.5 103h-113q-8 -84 -66.5 -121t-140.5 -37t-140 37t-66 121h-113q4 -55 26.5 -102.5t62.5 -83.5t98 -56.5t132 -20.5zM447 1919 q35 10 94 10q88 0 119.5 -38t31.5 -85q0 -55 -33.5 -96t-78.5 -82l-62 49q23 23 44.5 52.5t21.5 62.5q0 47 -64 47q-43 0 -73 -10v90z" horiz-adv-x="1128" unicode="Ẳ"/><glyph d="M743 492q-16 4 -45.5 9t-68.5 9t-84 7t-88 3q-152 0 -212.5 -63.5t-60.5 -169.5q0 -109 67.5 -158t176.5 -49q61 0 118.5 24.5t101.5 65.5t69.5 93t25.5 108v121zM381 -25q-53 0 -109.5 16.5t-102.5 53.5t-76 96.5t-30 145.5q0 152 95.5 245t287.5 93q45 0 92.5 -3.5 t87.5 -8.5t70.5 -10t46.5 -7v90q0 133 -75.5 190.5t-216.5 57.5q-100 0 -171 -25.5t-112 -48.5l-41 94q39 23 127 54.5t227 31.5q180 0 279.5 -85t99.5 -259v-696h-110l-5 145q-31 -49 -72.5 -81.5t-91 -52t-101.5 -28t-99 -8.5zM481 1497q0 55 -61 55q-27 0 -43 -2t-27 -6 v86q14 4 40 7t55 3q86 0 116.5 -37.5t30.5 -89.5q0 -55 -32.5 -95t-75.5 -79l-64 47q23 23 42 51.5t19 59.5zM473 1147q154 0 230.5 74.5t83.5 187.5h-111q-8 -84 -65.5 -125t-137.5 -41t-137 41t-65 125h-111q6 -113 82.5 -187.5t230.5 -74.5z" horiz-adv-x="987" unicode="ẳ"/><glyph d="M985 0l-131 365h-586l-131 -365h-131l481 1343h152l483 -1343h-137zM305 477h512l-254 727zM697 1712q-45 0 -81 16.5t-68 35t-59.5 35t-58.5 16.5q-35 0 -52 -20.5t-17 -72.5h-117q0 100 46 153.5t134 53.5q45 0 80 -15.5t65.5 -33.5t60.5 -34.5t64 -16.5 q39 0 56.5 20.5t17.5 73.5h117q0 -211 -188 -211zM883 1642q-16 -98 -96 -161.5t-224 -63.5q-143 0 -222 62.5t-95 162.5h119q16 -66 68.5 -91t129.5 -25q78 0 131.5 26.5t69.5 89.5h119z" horiz-adv-x="1128" unicode="Ẵ"/></font>
</defs>
</svg>
